<?xml version="1.0" encoding="UTF-8"?>
<svg xmlns="http://www.w3.org/2000/svg" width="1900" height="1340" viewBox="0 0 1900 1340" role="img" aria-labelledby="title desc">
  <title id="title">Autopilot 沙盒运行时当前架构状态图 - 2026-05-22 live 实测</title>
  <desc id="desc">基于 npm run dev:all、Docker Desktop、真实 blueprint generation 和 diagnostics 端点的当前架构状态。当前 live route-generation 只证明 4/10 bridge real，不能表达为 10/10 全绿。</desc>

  <defs>
    <style>
      .bg { fill: #f8fafc; }
      .panel { fill: #ffffff; stroke: #cbd5e1; stroke-width: 1.2; }
      .panelSoft { fill: #f1f5f9; stroke: #cbd5e1; stroke-width: 1; }
      .green { fill: #ecfdf5; stroke: #34d399; stroke-width: 1.4; }
      .amber { fill: #fff7ed; stroke: #fb923c; stroke-width: 1.4; }
      .blue { fill: #eff6ff; stroke: #60a5fa; stroke-width: 1.4; }
      .slate { fill: #f8fafc; stroke: #94a3b8; stroke-width: 1.2; }
      .chipGreen { fill: #dcfce7; stroke: #22c55e; stroke-width: 1; }
      .chipAmber { fill: #ffedd5; stroke: #f97316; stroke-width: 1; }
      .chipBlue { fill: #dbeafe; stroke: #3b82f6; stroke-width: 1; }
      .chipSlate { fill: #e2e8f0; stroke: #94a3b8; stroke-width: 1; }
      .ink { fill: #0f172a; font-family: "Microsoft YaHei", "PingFang SC", "Noto Sans CJK SC", Arial, sans-serif; }
      .muted { fill: #475569; font-family: "Microsoft YaHei", "PingFang SC", "Noto Sans CJK SC", Arial, sans-serif; }
      .tinyText { fill: #64748b; font-family: "Microsoft YaHei", "PingFang SC", "Noto Sans CJK SC", Arial, sans-serif; }
      .mono { fill: #334155; font-family: Consolas, "SFMono-Regular", Menlo, monospace; }
      .okText { fill: #047857; font-weight: 900; }
      .warnText { fill: #c2410c; font-weight: 900; }
      .blueText { fill: #1d4ed8; font-weight: 900; }
      .slateText { fill: #334155; font-weight: 900; }
      .h1 { font-size: 34px; font-weight: 900; }
      .h2 { font-size: 21px; font-weight: 900; }
      .h3 { font-size: 16px; font-weight: 900; }
      .body { font-size: 14px; font-weight: 650; }
      .small { font-size: 12px; font-weight: 650; }
      .tiny { font-size: 11px; font-weight: 650; }
      .code { font-size: 12px; font-weight: 700; }
      .lineGreen { stroke: #10b981; stroke-width: 3; fill: none; }
      .lineAmber { stroke: #f97316; stroke-width: 3; stroke-dasharray: 8 7; fill: none; }
      .lineBlue { stroke: #3b82f6; stroke-width: 2.6; stroke-dasharray: 7 6; fill: none; }
      .lineSlate { stroke: #94a3b8; stroke-width: 2.2; stroke-dasharray: 6 6; fill: none; }
    </style>
    <marker id="arrowGreen" markerWidth="12" markerHeight="12" refX="10" refY="6" orient="auto">
      <path d="M2,2 L10,6 L2,10 Z" fill="#10b981"/>
    </marker>
    <marker id="arrowAmber" markerWidth="12" markerHeight="12" refX="10" refY="6" orient="auto">
      <path d="M2,2 L10,6 L2,10 Z" fill="#f97316"/>
    </marker>
    <marker id="arrowBlue" markerWidth="12" markerHeight="12" refX="10" refY="6" orient="auto">
      <path d="M2,2 L10,6 L2,10 Z" fill="#3b82f6"/>
    </marker>
    <marker id="arrowSlate" markerWidth="12" markerHeight="12" refX="10" refY="6" orient="auto">
      <path d="M2,2 L10,6 L2,10 Z" fill="#94a3b8"/>
    </marker>
    <filter id="softShadow" x="-10%" y="-10%" width="120%" height="130%">
      <feDropShadow dx="0" dy="8" stdDeviation="10" flood-color="#0f172a" flood-opacity="0.09"/>
    </filter>
  </defs>

  <rect class="bg" x="0" y="0" width="1900" height="1340"/>

  <text class="ink h1" x="56" y="64">Autopilot 沙盒运行时架构状态图（2026-05-22 live 实测版）</text>
  <text class="muted body" x="56" y="94">结论：SVG 不能全翻绿。当前 dev:all 实测 route-generation 只证明 4 个核心 bridge 为 real；另有 5 个 enabled 未触发，roleAutonomousAgent 为 lite。</text>
  <text class="mono code" x="56" y="120">live job: blueprint-job-183c6aa5-50c3-4e65-b7fb-535764aac940 | elapsed 34.9s | routes 4 | core bridges real</text>

  <g transform="translate(1228 38)">
    <rect class="chipGreen" x="0" y="0" width="150" height="30" rx="15"/>
    <text class="ink tiny okText" x="18" y="20">dev:all healthy</text>
    <rect class="chipGreen" x="164" y="0" width="138" height="30" rx="15"/>
    <text class="ink tiny okText" x="182" y="20">core 4/10 real</text>
    <rect class="chipBlue" x="316" y="0" width="162" height="30" rx="15"/>
    <text class="ink tiny blueText" x="334" y="20">5 enabled + 1 lite</text>
    <rect class="chipAmber" x="492" y="0" width="126" height="30" rx="15"/>
    <text class="ink tiny warnText" x="510" y="20">not all green</text>
  </g>

  <rect class="panel" filter="url(#softShadow)" x="56" y="150" width="1788" height="158" rx="18"/>
  <text class="ink h2" x="86" y="188">现场结论</text>
  <text class="ink body" x="86" y="220">
    <tspan class="okText">服务面：</tspan>
    <tspan>frontend 3000 = 200；server 3001 = ok；executor 3031 = ok；Docker = connected。</tspan>
  </text>
  <text class="ink body" x="86" y="248">
    <tspan class="okText">真实调用：</tspan>
    <tspan>docker / mcpGithub / role / aigcNode 均为 real 1、fallback 0。</tspan>
  </text>
  <text class="ink body" x="86" y="276">
    <tspan class="warnText">边界：</tspan>
    <tspan>另外 5 个 bridge 本次未调用；roleAutonomousAgent=lite；plan networkPolicy=none，但 executor security=permissive，HostConfig 仍是 bridge。</tspan>
  </text>
  <text class="mono code" x="1200" y="220">tests: 117 focused tests passed</text>
  <text class="mono code" x="1200" y="248">callback fix: unix seconds + blueprint:* 202</text>
  <text class="mono code" x="1200" y="276">Docker evidence: one-line JSON, dockerRuntime=ok, dependencyReady=true</text>

  <rect class="panel" filter="url(#softShadow)" x="56" y="346" width="1788" height="252" rx="18"/>
  <text class="ink h2" x="86" y="384">实际 route-generation 运行流</text>
  <text class="muted small" x="86" y="410">这是一条真实完成的运行链，不代表所有目标架构分支都已执行。</text>

  <g transform="translate(86 438)">
    <rect class="green" x="0" y="0" width="182" height="82" rx="12"/>
    <text class="ink h3" x="18" y="30">1 输入 / GitHub</text>
    <text class="muted small" x="18" y="58">target + 666ghj/MiroFish</text>
  </g>
  <path class="lineGreen" d="M268 479 C294 479, 308 479, 334 479" marker-end="url(#arrowGreen)"/>

  <g transform="translate(334 438)">
    <rect class="green" x="0" y="0" width="182" height="82" rx="12"/>
    <text class="ink h3" x="18" y="30">2 LLM RouteSet</text>
    <text class="muted small" x="18" y="58">4 routes · generationSource=llm</text>
  </g>
  <path class="lineGreen" d="M516 479 C542 479, 556 479, 582 479" marker-end="url(#arrowGreen)"/>

  <g transform="translate(582 438)">
    <rect class="green" x="0" y="0" width="202" height="82" rx="12"/>
    <text class="ink h3" x="18" y="30">3 Sandbox Derivation</text>
    <text class="muted small" x="18" y="58">5 capability invocations</text>
  </g>
  <path class="lineGreen" d="M784 479 C810 479, 824 479, 850 479" marker-end="url(#arrowGreen)"/>

  <g transform="translate(850 438)">
    <rect class="green" x="0" y="0" width="230" height="82" rx="12"/>
    <text class="ink h3" x="18" y="30">4 Core Bridges</text>
    <text class="muted small" x="18" y="58">Docker + MCP + Role + AIGC real</text>
  </g>
  <path class="lineGreen" d="M1080 479 C1106 479, 1120 479, 1146 479" marker-end="url(#arrowGreen)"/>

  <g transform="translate(1146 438)">
    <rect class="green" x="0" y="0" width="218" height="82" rx="12"/>
    <text class="ink h3" x="18" y="30">5 EventBus</text>
    <text class="muted small" x="18" y="58">25 events · capability completed 5</text>
  </g>
  <path class="lineGreen" d="M1364 479 C1390 479, 1404 479, 1430 479" marker-end="url(#arrowGreen)"/>

  <g transform="translate(1430 438)">
    <rect class="green" x="0" y="0" width="196" height="82" rx="12"/>
    <text class="ink h3" x="18" y="30">6 Diagnostics</text>
    <text class="muted small" x="18" y="58">4 real | 5 enabled | 1 lite</text>
  </g>
  <path class="lineAmber" d="M1626 479 C1652 479, 1666 479, 1692 479" marker-end="url(#arrowAmber)"/>

  <g transform="translate(1692 438)">
    <rect class="amber" x="0" y="0" width="122" height="82" rx="12"/>
    <text class="ink h3" x="18" y="30">7 SPEC</text>
    <text class="muted small" x="18" y="58">本 job 未跑</text>
  </g>

  <path class="lineBlue" d="M680 540 C824 596, 1098 606, 1244 540" marker-end="url(#arrowBlue)"/>
  <text class="blueText small" x="782" y="570">Artifact evidence 写回：route_set + capability_invocation + capability_evidence + agent_crew + role_timeline</text>

  <rect class="panel" filter="url(#softShadow)" x="56" y="636" width="860" height="500" rx="18"/>
  <text class="ink h2" x="86" y="674">修复前后证据</text>

  <rect class="amber" x="86" y="706" width="800" height="94" rx="14"/>
  <text class="ink h3" x="110" y="736">修复前：Docker bridge 被记录为 fallback</text>
  <text class="muted small" x="110" y="764">job blueprint-job-e70d9740-3515-469b-92cc-a49b7a0363a6：docker-analysis-sandbox executionMode=simulated_fallback。</text>
  <text class="mono code" x="110" y="788">error: No such image: lobster-executor:default</text>

  <rect class="green" x="86" y="826" width="800" height="118" rx="14"/>
  <text class="ink h3" x="110" y="856">修复后：Docker bridge 真实容器执行成功</text>
  <text class="muted small" x="110" y="884">默认镜像改为 executor 当前可用的 node:20-slim，并注入确定性 Node 分析命令。</text>
  <text class="muted small" x="110" y="910">executor job blueprint-capability-invocation-95d663e5-3664-453b-b596-dbc8288f6b8a；job.completed；duration 399ms。</text>
  <text class="mono code" x="110" y="932">stdout JSON: dockerRuntime=ok | networkPolicy=none | githubUrlCount=1</text>

  <rect class="blue" x="86" y="970" width="800" height="124" rx="14"/>
  <text class="ink h3" x="110" y="1000">诊断事件覆盖修复</text>
  <text class="muted small" x="110" y="1028">createGenerationJob 现在把 docker-analysis-sandbox 和 mcp-github-source 的 capability events 发进 diagnostics event bus。</text>
  <text class="muted small" x="110" y="1054">Callback HMAC 改为 Unix seconds；blueprint:* executor callbacks 通过 HMAC 后返回 202 accepted，不再触发重试。</text>
  <text class="mono code" x="110" y="1080">diagnostics after live job: docker=real, mcpGithub=real, role=real, aigcNode=real</text>

  <rect class="panel" filter="url(#softShadow)" x="984" y="636" width="860" height="500" rx="18"/>
  <text class="ink h2" x="1014" y="674">10 个 diagnostics bridge 的当前 live 状态</text>
  <text class="muted small" x="1014" y="698">口径：重启后的当前 dev:all 进程，执行一次真实 route-generation job 后读取 /api/blueprint/diagnostics。</text>

  <rect class="panelSoft" x="1014" y="724" width="810" height="26" rx="6"/>
  <text class="ink small" x="1030" y="742">Bridge</text>
  <text class="ink small" x="1248" y="742">Mode</text>
  <text class="ink small" x="1360" y="742">Invocations</text>
  <text class="ink small" x="1542" y="742">含义</text>
  <text class="ink small" x="1740" y="742">色彩</text>

  <g class="ink small">
    <rect class="green" x="1014" y="760" width="810" height="28" rx="6"/>
    <text class="mono code" x="1030" y="779">docker</text>
    <text class="okText" x="1248" y="779">real</text>
    <text x="1360" y="779">total 1 · real 1 · fallback 0</text>
    <text x="1542" y="779">真实 Docker 容器执行</text>
    <text class="okText" x="1740" y="779">green</text>

    <rect class="green" x="1014" y="794" width="810" height="28" rx="6"/>
    <text class="mono code" x="1030" y="813">mcpGithub</text>
    <text class="okText" x="1248" y="813">real</text>
    <text x="1360" y="813">total 1 · real 1 · fallback 0</text>
    <text x="1542" y="813">真实 GitHub MCP/HTTP 路径</text>
    <text class="okText" x="1740" y="813">green</text>

    <rect class="green" x="1014" y="828" width="810" height="28" rx="6"/>
    <text class="mono code" x="1030" y="847">role</text>
    <text class="okText" x="1248" y="847">real</text>
    <text x="1360" y="847">total 1 · real 1 · fallback 0</text>
    <text x="1542" y="847">真实角色架构桥</text>
    <text class="okText" x="1740" y="847">green</text>

    <rect class="green" x="1014" y="862" width="810" height="28" rx="6"/>
    <text class="mono code" x="1030" y="881">aigcNode</text>
    <text class="okText" x="1248" y="881">real</text>
    <text x="1360" y="881">total 1 · real 1 · fallback 0</text>
    <text x="1542" y="881">真实 AIGC spec node</text>
    <text class="okText" x="1740" y="881">green</text>

    <rect class="blue" x="1014" y="906" width="810" height="28" rx="6"/>
    <text class="mono code" x="1030" y="925">agentCrewStageActivation</text>
    <text class="blueText" x="1248" y="925">enabled</text>
    <text x="1360" y="925">total 0</text>
    <text x="1542" y="925">本 job 未产生该类 invocation</text>
    <text class="blueText" x="1740" y="925">blue</text>

    <rect class="blue" x="1014" y="940" width="810" height="28" rx="6"/>
    <text class="mono code" x="1030" y="959">roleContainerLoader</text>
    <text class="blueText" x="1248" y="959">enabled</text>
    <text x="1360" y="959">total 0</text>
    <text x="1542" y="959">需要 role.container.* 触发</text>
    <text class="blueText" x="1740" y="959">blue</text>

    <rect class="blue" x="1014" y="974" width="810" height="28" rx="6"/>
    <text class="mono code" x="1030" y="993">roleAutonomousAgent</text>
    <text class="blueText" x="1248" y="993">lite</text>
    <text x="1360" y="993">total 0</text>
    <text x="1542" y="993">需要 agent delegate/callback</text>
    <text class="blueText" x="1740" y="993">blue</text>

    <rect class="blue" x="1014" y="1008" width="810" height="28" rx="6"/>
    <text class="mono code" x="1030" y="1027">agentReasoningBridge</text>
    <text class="blueText" x="1248" y="1027">enabled</text>
    <text x="1360" y="1027">total 0</text>
    <text x="1542" y="1027">需要 reasoning callback</text>
    <text class="blueText" x="1740" y="1027">blue</text>

    <rect class="blue" x="1014" y="1042" width="810" height="28" rx="6"/>
    <text class="mono code" x="1030" y="1061">specTreeLlm</text>
    <text class="blueText" x="1248" y="1061">enabled</text>
    <text x="1360" y="1061">total 0</text>
    <text x="1542" y="1061">本 route-generation job 未跑 SPEC tree</text>
    <text class="blueText" x="1740" y="1061">blue</text>

    <rect class="blue" x="1014" y="1076" width="810" height="28" rx="6"/>
    <text class="mono code" x="1030" y="1095">specDocsLlm</text>
    <text class="blueText" x="1248" y="1095">enabled</text>
    <text x="1360" y="1095">total 0</text>
    <text x="1542" y="1095">本 route-generation job 未跑 SPEC docs</text>
    <text class="blueText" x="1740" y="1095">blue</text>
  </g>

  <rect class="amber" x="1014" y="1118" width="810" height="2" rx="1"/>
  <text class="warnText small" x="1030" y="1134">因此：当前 live 证据是 4/10 real + 5/10 enabled/no invocation + 1/10 lite，不是 10/10 全绿。</text>

  <rect class="panel" filter="url(#softShadow)" x="56" y="1172" width="1788" height="112" rx="18"/>
  <text class="ink h2" x="86" y="1210">目标架构流程仍然成立，但完成口径要拆开</text>
  <text class="muted body" x="86" y="1242">目标闭环：输入/GitHub -> 澄清 -> RouteSet -> runtime bridge -> Agent Crew -> SPEC tree/docs -> effect preview -> handoff -> Artifact Memory/Replay。</text>
  <text class="muted body" x="86" y="1270">当前实测只覆盖 RouteSet 与四条核心 runtime bridge；SPEC tree/docs、agent crew 深层 callback、container loader 仍需要各自的真实触发用例。</text>
  <text class="mono code" x="1180" y="1270">validation: live dev:all + Docker + 117 focused tests</text>

  <rect class="panelSoft" x="56" y="1302" width="1788" height="28" rx="8"/>
  <text class="tinyText tiny" x="76" y="1321">更新依据：GET /api/health | GET /health on executor | POST /api/blueprint/generations | GET /api/blueprint/diagnostics | devall logs | focused Vitest.</text>
</svg>
