<?xml version="1.0" encoding="UTF-8"?>
<svg xmlns="http://www.w3.org/2000/svg" width="1600" height="1120" viewBox="0 0 1600 1120" role="img" aria-labelledby="title desc">
  <title id="title">Task Autopilot Frontend Experience 12 Spec Progress Overview 2026-04-26</title>
  <desc id="desc">Progress overview for 12 Task Autopilot frontend experience specs. Current implementation progress is 144 of 144 tasks, 100 percent complete. P0 is 48 of 48, P1 is 48 of 48, and P2 is 48 of 48.</desc>
  <defs>
    <linearGradient id="bg" x1="0" y1="0" x2="0" y2="1">
      <stop offset="0%" stop-color="#f6f8fc"/>
      <stop offset="100%" stop-color="#eef3f8"/>
    </linearGradient>
    <linearGradient id="hero" x1="0" y1="0" x2="1" y2="1">
      <stop offset="0%" stop-color="#16233f"/>
      <stop offset="55%" stop-color="#243f84"/>
      <stop offset="100%" stop-color="#0f8f87"/>
    </linearGradient>
    <linearGradient id="heroBar" x1="0" y1="0" x2="1" y2="0">
      <stop offset="0%" stop-color="#8fd3ff"/>
      <stop offset="100%" stop-color="#7ce3cb"/>
    </linearGradient>
    <linearGradient id="readyFill" x1="0" y1="0" x2="1" y2="0">
      <stop offset="0%" stop-color="#27c281"/>
      <stop offset="100%" stop-color="#169b67"/>
    </linearGradient>
    <linearGradient id="todoFill" x1="0" y1="0" x2="1" y2="0">
      <stop offset="0%" stop-color="#f59e0b"/>
      <stop offset="100%" stop-color="#d97706"/>
    </linearGradient>
    <filter id="shadow" x="-20%" y="-20%" width="140%" height="140%">
      <feDropShadow dx="0" dy="14" stdDeviation="18" flood-color="#0f172a" flood-opacity="0.10"/>
    </filter>
    <style>
      .title { font: 700 32px "Segoe UI", "Microsoft YaHei", sans-serif; fill: #ffffff; }
      .subtitle { font: 500 15px "Segoe UI", "Microsoft YaHei", sans-serif; fill: rgba(255,255,255,0.86); }
      .hero-k { font: 600 12px "Segoe UI", "Microsoft YaHei", sans-serif; fill: rgba(255,255,255,0.72); }
      .hero-v { font: 700 29px "Segoe UI", "Microsoft YaHei", sans-serif; fill: #ffffff; }
      .card-title { font: 700 15px "Segoe UI", "Microsoft YaHei", sans-serif; fill: #0f172a; }
      .card-value { font: 700 21px "Segoe UI", "Microsoft YaHei", sans-serif; fill: #0f172a; }
      .card-meta { font: 500 12px "Segoe UI", "Microsoft YaHei", sans-serif; fill: #64748b; }
      .section-title { font: 700 18px "Segoe UI", "Microsoft YaHei", sans-serif; fill: #0f172a; }
      .section-meta { font: 500 12px "Segoe UI", "Microsoft YaHei", sans-serif; fill: #64748b; }
      .spec-title { font: 700 14px "Segoe UI", "Microsoft YaHei", sans-serif; fill: #0f172a; }
      .spec-slug { font: 500 10px "Segoe UI", "Microsoft YaHei", sans-serif; fill: #64748b; }
      .spec-task { font: 500 11px "Segoe UI", "Microsoft YaHei", sans-serif; fill: #475569; }
      .spec-badge-ready { font: 700 10px "Segoe UI", "Microsoft YaHei", sans-serif; fill: #15996a; }
      .spec-badge-todo { font: 700 10px "Segoe UI", "Microsoft YaHei", sans-serif; fill: #a16207; }
      .legend { font: 500 11px "Segoe UI", "Microsoft YaHei", sans-serif; fill: #64748b; }
      .foot { font: 500 12px "Segoe UI", "Microsoft YaHei", sans-serif; fill: #64748b; }
    </style>
  </defs>

  <rect x="0" y="0" width="1600" height="1120" fill="url(#bg)"/>

  <rect x="36" y="28" width="1528" height="194" rx="28" fill="url(#hero)" filter="url(#shadow)"/>
  <text x="60" y="78" class="title">Task Autopilot 前端体验 12 个规格实施进度总览</text>
  <text x="60" y="108" class="subtitle">统计时间: 2026-04-27 | 口径: 12 个前端体验 specs, requirements/design/tasks 与 tasks.md 顶层任务</text>
  <text x="60" y="138" class="subtitle">当前状态: 12 个前端体验 specs 实施完成; 三栏 cockpit、目标锁定、路线规划、证据、接管、移动体验已进入代码基线</text>
  <text x="60" y="176" class="subtitle">口径提醒: specs 12 / 12, Markdown 36 / 36; 实施任务 144 / 144; 显式引用既有 specs 67 条, 回补修复检查线索 41 条</text>

  <rect x="954" y="46" width="142" height="66" rx="18" fill="rgba(255,255,255,0.11)" stroke="rgba(255,255,255,0.18)"/>
  <text x="972" y="71" class="hero-k">新增 specs</text>
  <text x="972" y="101" class="hero-v">12 / 12</text>

  <rect x="1114" y="46" width="142" height="66" rx="18" fill="rgba(255,255,255,0.11)" stroke="rgba(255,255,255,0.18)"/>
  <text x="1132" y="71" class="hero-k">Markdown</text>
  <text x="1132" y="101" class="hero-v">36 / 36</text>

  <rect x="1274" y="46" width="220" height="66" rx="18" fill="rgba(255,255,255,0.11)" stroke="rgba(255,255,255,0.18)"/>
  <text x="1292" y="71" class="hero-k">实施任务</text>
  <text x="1292" y="101" class="hero-v">144 / 144</text>

  <rect x="954" y="138" width="540" height="10" rx="5" fill="rgba(255,255,255,0.18)"/>
  <rect x="954" y="138" width="540" height="10" rx="5" fill="url(#heroBar)"/>
  <text x="954" y="174" class="subtitle">文档完整率 100% | 实施完成率 100% | P0 48/48, P1 48/48, P2 48/48</text>

  <rect x="36" y="244" width="360" height="112" rx="22" fill="#ffffff" stroke="#dbe5f1" filter="url(#shadow)"/>
  <text x="58" y="278" class="card-title">前端体验 specs</text>
  <text x="58" y="316" class="card-value">12 / 12</text>
  <text x="58" y="340" class="card-meta">全部包含 requirements / design / tasks 三件套</text>

  <rect x="416" y="244" width="360" height="112" rx="22" fill="#ffffff" stroke="#dbe5f1" filter="url(#shadow)"/>
  <text x="438" y="278" class="card-title">文档文件</text>
  <text x="438" y="316" class="card-value">36 / 36</text>
  <text x="438" y="340" class="card-meta">12 个目录, 每个 3 个 markdown</text>

  <rect x="796" y="244" width="360" height="112" rx="22" fill="#ffffff" stroke="#dbe5f1" filter="url(#shadow)"/>
  <text x="818" y="278" class="card-title">实施任务完成</text>
  <text x="818" y="316" class="card-value">144 / 144</text>
  <text x="818" y="340" class="card-meta">整体完成率 100%, 按 tasks.md 顶层任务行统计</text>

  <rect x="1176" y="244" width="388" height="112" rx="22" fill="#ffffff" stroke="#dbe5f1" filter="url(#shadow)"/>
  <text x="1198" y="278" class="card-title">引用与回补关系</text>
  <text x="1198" y="316" class="card-value">67 refs / 41 fix lines</text>
  <text x="1198" y="340" class="card-meta">显式引用既有 18 specs, 执行时修复既有落地缺口</text>

  <circle cx="1192" cy="390" r="6" fill="#27c281"/>
  <text x="1206" y="394" class="legend">文档就绪</text>
  <circle cx="1294" cy="390" r="6" fill="#27c281"/>
  <text x="1308" y="394" class="legend">已完成</text>
  <circle cx="1388" cy="390" r="6" fill="#3b82f6"/>
  <text x="1402" y="394" class="legend">引用既有 specs</text>
  <circle cx="1506" cy="390" r="6" fill="#94a3b8"/>
  <text x="1520" y="394" class="legend">回补缺陷</text>

  <text x="44" y="424" class="section-title">P0 先让用户看见自动驾驶</text>
  <text x="350" y="424" class="section-meta">4 specs | 文档 12 / 12 | 实施任务 48 / 48 | 当前 100%</text>

  <rect x="36" y="442" width="360" height="126" rx="18" fill="#ffffff" stroke="#cfdceb"/>
  <rect x="52" y="454" width="58" height="18" rx="9" fill="#e8fbf2"/><text x="64" y="467" class="spec-badge-ready">文档就绪</text>
  <rect x="118" y="454" width="50" height="18" rx="9" fill="#e8fbf2"/><text x="131" y="467" class="spec-badge-ready">已完成</text>
  <text x="364" y="470" text-anchor="end" class="card-value" style="font-size:18px;">100%</text>
  <text x="52" y="500" class="spec-title">目的地输入</text>
  <text x="52" y="520" class="spec-slug">autopilot-launch-destination-input</text>
  <text x="52" y="540" class="spec-task">实施 12 / 12 | 目的地命名、preview/detail fallback 已收口</text>
  <rect x="52" y="548" width="288" height="6" rx="3" fill="#e5ebf3"/>
  <rect x="52" y="548" width="288" height="6" rx="3" fill="url(#readyFill)"/>

  <rect x="416" y="442" width="360" height="126" rx="18" fill="#ffffff" stroke="#cfdceb"/>
  <rect x="432" y="454" width="58" height="18" rx="9" fill="#e8fbf2"/><text x="444" y="467" class="spec-badge-ready">文档就绪</text>
  <rect x="498" y="454" width="50" height="18" rx="9" fill="#e8fbf2"/><text x="511" y="467" class="spec-badge-ready">已完成</text>
  <text x="744" y="470" text-anchor="end" class="card-value" style="font-size:18px;">100%</text>
  <text x="432" y="500" class="spec-title">路线规划浮层</text>
  <text x="432" y="520" class="spec-slug">autopilot-route-planning-overlay</text>
  <text x="432" y="540" class="spec-task">实施 12 / 12 | 候选路线对齐、证据事件、挂载关系</text>
  <rect x="432" y="548" width="288" height="6" rx="3" fill="#e5ebf3"/>
  <rect x="432" y="548" width="288" height="6" rx="3" fill="url(#readyFill)"/>

  <rect x="796" y="442" width="360" height="126" rx="18" fill="#ffffff" stroke="#cfdceb"/>
  <rect x="812" y="454" width="58" height="18" rx="9" fill="#e8fbf2"/><text x="824" y="467" class="spec-badge-ready">文档就绪</text>
  <rect x="878" y="454" width="50" height="18" rx="9" fill="#e8fbf2"/><text x="891" y="467" class="spec-badge-ready">已完成</text>
  <text x="1124" y="470" text-anchor="end" class="card-value" style="font-size:18px;">100%</text>
  <text x="812" y="500" class="spec-title">三栏驾驶舱</text>
  <text x="812" y="520" class="spec-slug">autopilot-cockpit-three-column-layout</text>
  <text x="812" y="540" class="spec-task">实施 12 / 12 | 三栏右栏、子组件、overlay 高度防护</text>
  <rect x="812" y="548" width="288" height="6" rx="3" fill="#e5ebf3"/>
  <rect x="812" y="548" width="288" height="6" rx="3" fill="url(#readyFill)"/>

  <rect x="1176" y="442" width="388" height="126" rx="18" fill="#ffffff" stroke="#cfdceb"/>
  <rect x="1192" y="454" width="58" height="18" rx="9" fill="#e8fbf2"/><text x="1204" y="467" class="spec-badge-ready">文档就绪</text>
  <rect x="1258" y="454" width="50" height="18" rx="9" fill="#e8fbf2"/><text x="1271" y="467" class="spec-badge-ready">已完成</text>
  <text x="1532" y="470" text-anchor="end" class="card-value" style="font-size:18px;">100%</text>
  <text x="1192" y="500" class="spec-title">空状态与 Onboarding</text>
  <text x="1192" y="520" class="spec-slug">autopilot-empty-state-and-onboarding</text>
  <text x="1192" y="540" class="spec-task">实施 12 / 12 | 首次引导、示例一致性、视觉解释</text>
  <rect x="1192" y="548" width="312" height="6" rx="3" fill="#e5ebf3"/>
  <rect x="1192" y="548" width="312" height="6" rx="3" fill="url(#readyFill)"/>

  <text x="44" y="612" class="section-title">P1 补齐驾驶舱主对象</text>
  <text x="330" y="612" class="section-meta">4 specs | 文档 12 / 12 | 实施任务 48 / 48 | 当前 100%</text>

  <rect x="36" y="630" width="360" height="126" rx="18" fill="#ffffff" stroke="#cfdceb"/>
  <rect x="52" y="642" width="58" height="18" rx="9" fill="#e8fbf2"/><text x="64" y="655" class="spec-badge-ready">文档就绪</text>
  <rect x="118" y="642" width="50" height="18" rx="9" fill="#e8fbf2"/><text x="131" y="655" class="spec-badge-ready">已完成</text>
  <text x="364" y="658" text-anchor="end" class="card-value" style="font-size:18px;">100%</text>
  <text x="52" y="688" class="spec-title">目标锁定卡片</text>
  <text x="52" y="708" class="spec-slug">autopilot-destination-card-and-goal-lock</text>
  <text x="52" y="728" class="spec-task">实施 12 / 12 | lock state、parser、replan、fallback 闭环</text>
  <rect x="52" y="736" width="288" height="6" rx="3" fill="#e5ebf3"/>
  <rect x="52" y="736" width="288" height="6" rx="3" fill="url(#readyFill)"/>

  <rect x="416" y="630" width="360" height="126" rx="18" fill="#ffffff" stroke="#cfdceb"/>
  <rect x="432" y="642" width="58" height="18" rx="9" fill="#e8fbf2"/><text x="444" y="655" class="spec-badge-ready">文档就绪</text>
  <rect x="498" y="642" width="50" height="18" rx="9" fill="#e8fbf2"/><text x="511" y="655" class="spec-badge-ready">已完成</text>
  <text x="744" y="658" text-anchor="end" class="card-value" style="font-size:18px;">100%</text>
  <text x="432" y="688" class="spec-title">驾驶状态时间线</text>
  <text x="432" y="708" class="spec-slug">autopilot-drive-state-timeline-and-replan</text>
  <text x="432" y="728" class="spec-task">实施 12 / 12 | 下一步、剩余步骤、replan banner</text>
  <rect x="432" y="736" width="288" height="6" rx="3" fill="#e5ebf3"/>
  <rect x="432" y="736" width="288" height="6" rx="3" fill="url(#readyFill)"/>

  <rect x="796" y="630" width="360" height="126" rx="18" fill="#ffffff" stroke="#cfdceb"/>
  <rect x="812" y="642" width="58" height="18" rx="9" fill="#e8fbf2"/><text x="824" y="655" class="spec-badge-ready">文档就绪</text>
  <rect x="878" y="642" width="50" height="18" rx="9" fill="#e8fbf2"/><text x="891" y="655" class="spec-badge-ready">已完成</text>
  <text x="1124" y="658" text-anchor="end" class="card-value" style="font-size:18px;">100%</text>
  <text x="812" y="688" class="spec-title">车队实时可视化</text>
  <text x="812" y="708" class="spec-slug">autopilot-fleet-live-visualization</text>
  <text x="812" y="728" class="spec-task">实施 12 / 12 | 并行 lanes、脱敏绑定、blocked 跳转</text>
  <rect x="812" y="736" width="288" height="6" rx="3" fill="#e5ebf3"/>
  <rect x="812" y="736" width="288" height="6" rx="3" fill="url(#readyFill)"/>

  <rect x="1176" y="630" width="388" height="126" rx="18" fill="#ffffff" stroke="#cfdceb"/>
  <rect x="1192" y="642" width="58" height="18" rx="9" fill="#e8fbf2"/><text x="1204" y="655" class="spec-badge-ready">文档就绪</text>
  <rect x="1258" y="642" width="50" height="18" rx="9" fill="#e8fbf2"/><text x="1271" y="655" class="spec-badge-ready">已完成</text>
  <text x="1532" y="658" text-anchor="end" class="card-value" style="font-size:18px;">100%</text>
  <text x="1192" y="688" class="spec-title">接管控制面板</text>
  <text x="1192" y="708" class="spec-slug">autopilot-takeover-control-panel</text>
  <text x="1192" y="728" class="spec-task">实施 12 / 12 | DecisionPanel 去重、投影留痕、HITL 对齐</text>
  <rect x="1192" y="736" width="312" height="6" rx="3" fill="#e5ebf3"/>
  <rect x="1192" y="736" width="312" height="6" rx="3" fill="url(#readyFill)"/>

  <text x="44" y="800" class="section-title">P2 可信、状态与体验系统</text>
  <text x="350" y="800" class="section-meta">4 specs | 文档 12 / 12 | 实施任务 48 / 48 | 当前 100%</text>

  <rect x="36" y="818" width="360" height="126" rx="18" fill="#ffffff" stroke="#cfdceb"/>
  <rect x="52" y="830" width="58" height="18" rx="9" fill="#e8fbf2"/><text x="64" y="843" class="spec-badge-ready">文档就绪</text>
  <rect x="118" y="830" width="50" height="18" rx="9" fill="#e8fbf2"/><text x="131" y="843" class="spec-badge-ready">已完成</text>
  <text x="364" y="846" text-anchor="end" class="card-value" style="font-size:18px;">100%</text>
  <text x="52" y="876" class="spec-title">证据记录仪</text>
  <text x="52" y="896" class="spec-slug">autopilot-evidence-driving-recorder</text>
  <text x="52" y="916" class="spec-task">实施 12 / 12 | 分类筛选、详情 drawer、排序</text>
  <rect x="52" y="924" width="288" height="6" rx="3" fill="#e5ebf3"/>
  <rect x="52" y="924" width="288" height="6" rx="3" fill="url(#readyFill)"/>

  <rect x="416" y="818" width="360" height="126" rx="18" fill="#ffffff" stroke="#cfdceb"/>
  <rect x="432" y="830" width="58" height="18" rx="9" fill="#e8fbf2"/><text x="444" y="843" class="spec-badge-ready">文档就绪</text>
  <rect x="498" y="830" width="50" height="18" rx="9" fill="#e8fbf2"/><text x="511" y="843" class="spec-badge-ready">已完成</text>
  <text x="744" y="846" text-anchor="end" class="card-value" style="font-size:18px;">100%</text>
  <text x="432" y="876" class="spec-title">前端状态模型</text>
  <text x="432" y="896" class="spec-slug">autopilot-frontend-state-model-and-store</text>
  <text x="432" y="916" class="spec-task">实施 12 / 12 | 状态映射、route/cockpit hooks</text>
  <rect x="432" y="924" width="288" height="6" rx="3" fill="#e5ebf3"/>
  <rect x="432" y="924" width="288" height="6" rx="3" fill="url(#readyFill)"/>

  <rect x="796" y="818" width="360" height="126" rx="18" fill="#ffffff" stroke="#cfdceb"/>
  <rect x="812" y="830" width="58" height="18" rx="9" fill="#e8fbf2"/><text x="824" y="843" class="spec-badge-ready">文档就绪</text>
  <rect x="878" y="830" width="50" height="18" rx="9" fill="#e8fbf2"/><text x="891" y="843" class="spec-badge-ready">已完成</text>
  <text x="1124" y="846" text-anchor="end" class="card-value" style="font-size:18px;">100%</text>
  <text x="812" y="876" class="spec-title">响应式驾驶舱</text>
  <text x="812" y="896" class="spec-slug">autopilot-mobile-and-responsive-cockpit</text>
  <text x="812" y="916" class="spec-task">实施 12 / 12 | bottom sheet、安全区、chip 防溢出</text>
  <rect x="812" y="924" width="288" height="6" rx="3" fill="#e5ebf3"/>
  <rect x="812" y="924" width="288" height="6" rx="3" fill="url(#readyFill)"/>

  <rect x="1176" y="818" width="388" height="126" rx="18" fill="#ffffff" stroke="#cfdceb"/>
  <rect x="1192" y="830" width="58" height="18" rx="9" fill="#e8fbf2"/><text x="1204" y="843" class="spec-badge-ready">文档就绪</text>
  <rect x="1258" y="830" width="50" height="18" rx="9" fill="#e8fbf2"/><text x="1271" y="843" class="spec-badge-ready">已完成</text>
  <text x="1532" y="846" text-anchor="end" class="card-value" style="font-size:18px;">100%</text>
  <text x="1192" y="876" class="spec-title">视觉语言与动效</text>
  <text x="1192" y="896" class="spec-slug">autopilot-visual-language-and-motion-system</text>
  <text x="1192" y="916" class="spec-task">实施 12 / 12 | 视觉解释层与状态 marker 回补</text>
  <rect x="1192" y="924" width="312" height="6" rx="3" fill="#e5ebf3"/>
  <rect x="1192" y="924" width="312" height="6" rx="3" fill="url(#readyFill)"/>

  <rect x="36" y="976" width="1528" height="88" rx="22" fill="#ffffff" stroke="#dbe5f1" filter="url(#shadow)"/>
  <text x="60" y="1010" class="card-title">完成状态</text>
  <text x="60" y="1038" class="card-meta">本批已收口: 12 个 specs 全部完成，目标锁定、路线规划、三栏 cockpit、接管、证据与移动体验均有测试证据。</text>
  <text x="60" y="1088" class="foot">Source: .kiro/specs/autopilot-* frontend experience specs + .kiro/steering/task-autopilot-frontend-experience-spec-roadmap-2026-04-26.md | Generated 2026-04-27</text>
</svg>
