<?xml version="1.0" encoding="UTF-8"?>
<!DOCTYPE svg PUBLIC "-//W3C//DTD SVG 1.1//EN" "http://www.w3.org/Graphics/SVG/1.1/DTD/svg11.dtd">
<svg xmlns="http://www.w3.org/2000/svg" version="1.1" width="1254px" height="1254px" style="shape-rendering:geometricPrecision; text-rendering:geometricPrecision; image-rendering:optimizeQuality; fill-rule:evenodd; clip-rule:evenodd" xmlns:xlink="http://www.w3.org/1999/xlink">
<g><path style="opacity:1" fill="#0c5dd4" d="M 714.5,237.5 C 720.538,242.537 725.871,248.203 730.5,254.5C 731.167,256.5 731.833,258.5 732.5,260.5C 731.957,260.56 731.624,260.893 731.5,261.5C 733.598,268.823 734.931,276.157 735.5,283.5C 734.833,286.5 734.167,289.5 733.5,292.5C 732.463,293.93 731.796,295.597 731.5,297.5C 730.833,297.5 730.5,297.833 730.5,298.5C 727.759,299.439 725.759,301.273 724.5,304C 724.728,304.399 725.062,304.565 725.5,304.5C 725.672,305.492 725.338,306.158 724.5,306.5C 723.671,305.668 722.838,306.001 722,307.5C 720.167,310 718.333,312.5 716.5,315C 716.728,315.399 717.062,315.565 717.5,315.5C 714.883,320.114 711.883,324.447 708.5,328.5C 707.671,327.668 706.838,328.001 706,329.5C 704.667,331.5 703.333,333.5 702,335.5C 701.683,333.699 701.016,333.366 700,334.5C 700.485,337.784 699.319,340.617 696.5,343C 696.728,343.399 697.062,343.565 697.5,343.5C 692.41,351.35 687.077,359.016 681.5,366.5C 680.671,365.668 679.838,366.001 679,367.5C 678.667,366.833 678.333,366.167 678,365.5C 677.535,366.931 676.701,368.097 675.5,369C 676.167,369.333 676.833,369.667 677.5,370C 673.5,375.333 669.5,380.667 665.5,386C 665.728,386.399 666.062,386.565 666.5,386.5C 648.5,412.167 630.5,437.833 612.5,463.5C 608.5,468.5 604.5,473.5 600.5,478.5C 598.5,479.976 596.833,481.809 595.5,484C 595.728,484.399 596.062,484.565 596.5,484.5C 593.474,489.184 590.474,493.851 587.5,498.5C 586.833,498.833 586.167,499.167 585.5,499.5C 581.131,503.351 578.131,507.685 576.5,512.5C 573.167,517.833 569.833,523.167 566.5,528.5C 565.833,528.5 565.5,528.833 565.5,529.5C 564.662,529.842 564.328,530.508 564.5,531.5C 563.833,531.5 563.5,531.833 563.5,532.5C 562.061,534.36 560.395,536.027 558.5,537.5C 553.157,543.661 548.157,550.161 543.5,557C 543.728,557.399 544.062,557.565 544.5,557.5C 535.89,571.067 526.557,584.067 516.5,596.5C 513.698,599.476 511.031,602.642 508.5,606C 508.728,606.399 509.062,606.565 509.5,606.5C 506.564,612.041 502.897,617.041 498.5,621.5C 495.864,624.31 493.364,627.31 491,630.5C 490.333,629.167 489.667,629.167 489,630.5C 489.553,632.944 488.719,635.111 486.5,637C 486.728,637.399 487.062,637.565 487.5,637.5C 487.672,638.492 487.338,639.158 486.5,639.5C 485.671,638.668 484.838,639.001 484,640.5C 483.535,641.931 482.701,643.097 481.5,644C 481.728,644.399 482.062,644.565 482.5,644.5C 475.321,655.528 467.654,666.195 459.5,676.5C 457.031,679.144 454.698,681.977 452.5,685C 452.728,685.399 453.062,685.565 453.5,685.5C 450.109,692.635 445.109,698.302 438.5,702.5C 436.205,703.136 434.539,704.469 433.5,706.5C 433.167,706.5 432.833,706.5 432.5,706.5C 431.687,705.347 430.687,705.347 429.5,706.5C 429.167,705.833 428.833,705.167 428.5,704.5C 427.232,705.428 425.899,705.595 424.5,705C 425.696,704.346 425.696,703.846 424.5,703.5C 422.885,704.154 421.218,704.654 419.5,705C 422.121,705.906 421.954,706.406 419,706.5C 415.511,705.411 412.011,705.411 408.5,706.5C 408.649,705.448 408.483,704.448 408,703.5C 401.123,706.46 394.456,706.127 388,702.5C 387.601,702.728 387.435,703.062 387.5,703.5C 384.891,702.557 382.891,700.89 381.5,698.5C 380.145,696.071 378.478,694.738 376.5,694.5C 370.773,689.052 367.106,682.386 365.5,674.5C 366.139,673.903 366.472,673.07 366.5,672C 365.966,667.004 365.3,662.17 364.5,657.5C 364.278,653.47 365.278,649.97 367.5,647C 366.288,645.893 366.621,645.393 368.5,645.5C 373.572,639.696 377.905,633.362 381.5,626.5C 381.511,624.983 382.177,623.816 383.5,623C 383.167,622.667 382.833,622.333 382.5,622C 384.5,619.404 386.833,617.071 389.5,615C 388.849,613.692 389.515,612.859 391.5,612.5C 393.262,611.738 394.262,610.404 394.5,608.5C 397.456,602.576 401.456,596.743 406.5,591C 406.167,590.667 405.833,590.333 405.5,590C 407.679,589.558 408.345,588.558 407.5,587C 408.942,586.623 409.942,585.79 410.5,584.5C 428.146,559.178 446.146,534.178 464.5,509.5C 466.262,508.738 467.262,507.404 467.5,505.5C 469.822,504.198 471.155,502.198 471.5,499.5C 472.906,499.027 473.573,498.027 473.5,496.5C 475.147,493.527 477.147,490.86 479.5,488.5C 481.9,486.704 483.567,484.37 484.5,481.5C 484.5,480.833 484.5,480.167 484.5,479.5C 486.5,477.167 488.5,474.833 490.5,472.5C 491.906,472.027 492.573,471.027 492.5,469.5C 492.733,467.938 493.4,466.605 494.5,465.5C 495.906,465.027 496.573,464.027 496.5,462.5C 497.473,460.861 498.806,459.527 500.5,458.5C 503.933,455.399 506.6,451.732 508.5,447.5C 511.711,441.287 515.711,435.62 520.5,430.5C 522.822,429.198 524.155,427.198 524.5,424.5C 525.598,423.603 525.598,422.77 524.5,422C 525.328,421.085 526.328,420.419 527.5,420C 527.167,419.667 526.833,419.333 526.5,419C 529.878,415.958 532.878,412.625 535.5,409C 534.588,407.375 535.255,406.541 537.5,406.5C 541.812,402.546 545.145,397.88 547.5,392.5C 549.806,391.625 550.473,390.292 549.5,388.5C 549.062,388.565 548.728,388.399 548.5,388C 558.657,375.736 568.49,362.569 578,348.5C 585.61,337.588 593.444,326.921 601.5,316.5C 602.906,316.027 603.573,315.027 603.5,313.5C 605.025,310.437 607.025,307.77 609.5,305.5C 611.9,303.704 613.567,301.37 614.5,298.5C 623.244,285.355 632.244,272.355 641.5,259.5C 646.806,249.528 654.472,241.861 664.5,236.5C 664.435,236.938 664.601,237.272 665,237.5C 666.417,236.922 667.25,235.922 667.5,234.5C 676.234,230.885 685.234,229.219 694.5,229.5C 696.029,229.529 697.196,230.196 698,231.5C 698.561,230.978 699.228,230.645 700,230.5C 702.238,232.022 704.572,233.355 707,234.5C 707.333,234.167 707.667,233.833 708,233.5C 710.069,235.085 712.236,236.419 714.5,237.5 Z"/></g>
<g><path style="opacity:1" fill="#4f8fe3" d="M 667.5,234.5 C 667.25,235.922 666.417,236.922 665,237.5C 664.601,237.272 664.435,236.938 664.5,236.5C 665.469,235.691 666.302,234.691 667,233.5C 667.399,233.728 667.565,234.062 667.5,234.5 Z"/></g>
<g><path style="opacity:1" fill="#4489da" d="M 714.5,236.5 C 713.833,235.167 713.833,235.167 714.5,236.5 Z"/></g>
<g><path style="opacity:1" fill="#4489da" d="M 714.5,236.5 C 715.833,237.167 715.833,237.167 714.5,236.5 Z"/></g>
<g><path style="opacity:1" fill="#3275da" d="M 730.5,254.5 C 730.369,253.761 730.536,253.094 731,252.5C 731.692,253.437 731.525,254.103 730.5,254.5 Z"/></g>
<g><path style="opacity:1" fill="#256fe1" d="M 641.5,259.5 C 640.833,258.167 640.833,258.167 641.5,259.5 Z"/></g>
<g><path style="opacity:1" fill="#4583d8" d="M 732.5,260.5 C 733.517,263.694 734.85,266.861 736.5,270C 736.811,274.402 736.478,278.902 735.5,283.5C 734.931,276.157 733.598,268.823 731.5,261.5C 731.624,260.893 731.957,260.56 732.5,260.5 Z"/></g>
<g><path style="opacity:1" fill="#448fed" d="M 733.5,292.5 C 734.525,292.897 734.692,293.563 734,294.5C 733.536,293.906 733.369,293.239 733.5,292.5 Z"/></g>
<g><path style="opacity:1" fill="#196fda" d="M 731.5,297.5 C 732.833,298.167 732.833,298.167 731.5,297.5 Z"/></g>
<g><path style="opacity:1" fill="#5196e7" d="M 730.5,299.5 C 731.833,300.167 731.833,300.167 730.5,299.5 Z"/></g>
<g><path style="opacity:1" fill="#4483e2" d="M 614.5,298.5 C 613.567,301.37 611.9,303.704 609.5,305.5C 610.433,302.63 612.1,300.296 614.5,298.5 Z"/></g>
<g><path style="opacity:1" fill="#3b82dc" d="M 730.5,298.5 C 730.5,298.833 730.5,299.167 730.5,299.5C 728.605,300.973 726.939,302.64 725.5,304.5C 725.062,304.565 724.728,304.399 724.5,304C 725.759,301.273 727.759,299.439 730.5,298.5 Z"/></g>
<g><path style="opacity:1" fill="#4381e0" d="M 724.5,306.5 C 722.518,309.81 720.185,312.81 717.5,315.5C 717.062,315.565 716.728,315.399 716.5,315C 718.333,312.5 720.167,310 722,307.5C 722.838,306.001 723.671,305.668 724.5,306.5 Z"/></g>
<g><path style="opacity:1" fill="#f93237" d="M 832.5,309.5 C 833.833,310.167 833.833,310.167 832.5,309.5 Z"/></g>
<g><path style="opacity:1" fill="#f95156" d="M 834.5,310.5 C 835.833,311.167 835.833,311.167 834.5,310.5 Z"/></g>
<g><path style="opacity:1" fill="#f9091a" d="M 832.5,310.5 C 832.5,311.167 832.833,311.5 833.5,311.5C 833.369,312.376 833.702,313.043 834.5,313.5C 836.413,314.373 838.247,315.373 840,316.5C 840.399,316.272 840.565,315.938 840.5,315.5C 853.201,322.887 860.867,333.887 863.5,348.5C 862.167,352.833 862.167,357.167 863.5,361.5C 862.963,367.611 861.13,373.277 858,378.5C 841.078,400.697 824.911,423.364 809.5,446.5C 800.778,456.931 792.778,467.931 785.5,479.5C 784.833,479.5 784.5,479.833 784.5,480.5C 782.179,483.796 779.846,487.129 777.5,490.5C 775.782,492.223 774.449,494.223 773.5,496.5C 772.833,496.5 772.5,496.833 772.5,497.5C 771.527,499.139 770.194,500.473 768.5,501.5C 766.031,504.144 763.698,506.977 761.5,510C 761.728,510.399 762.062,510.565 762.5,510.5C 762.5,511.167 762.167,511.5 761.5,511.5C 758.495,514.318 755.828,517.484 753.5,521C 753.728,521.399 754.062,521.565 754.5,521.5C 754.5,521.833 754.5,522.167 754.5,522.5C 753.11,523.899 752.11,525.566 751.5,527.5C 750.833,527.5 750.5,527.833 750.5,528.5C 749.599,529.29 748.932,530.29 748.5,531.5C 747.833,531.5 747.5,531.833 747.5,532.5C 746.833,533.167 746.167,533.833 745.5,534.5C 744.671,533.668 743.838,534.001 743,535.5C 740.72,539.447 738.053,543.113 735,546.5C 734.121,543.654 732.454,542.987 730,544.5C 729.183,547.844 730.016,549.844 732.5,550.5C 732.023,551.478 731.357,552.311 730.5,553C 730.728,553.399 731.062,553.565 731.5,553.5C 731.443,554.609 731.11,555.609 730.5,556.5C 729.094,556.973 728.427,557.973 728.5,559.5C 727.833,559.5 727.5,559.833 727.5,560.5C 726.599,561.29 725.932,562.29 725.5,563.5C 724.094,563.973 723.427,564.973 723.5,566.5C 713.833,579.167 704.167,591.833 694.5,604.5C 691.698,607.476 689.031,610.642 686.5,614C 686.728,614.399 687.062,614.565 687.5,614.5C 687.672,615.492 687.338,616.158 686.5,616.5C 686.565,616.062 686.399,615.728 686,615.5C 684.426,616.984 683.093,618.651 682,620.5C 680.177,616.879 677.843,616.213 675,618.5C 674.775,622.056 675.275,625.223 676.5,628C 675.789,629.255 674.956,630.421 674,631.5C 671.966,630.138 669.799,629.138 667.5,628.5C 665.504,631.841 666.337,634.174 670,635.5C 669.891,636.769 670.058,637.769 670.5,638.5C 664.5,647.167 658.5,655.833 652.5,664.5C 641.697,679.596 631.031,694.263 620.5,708.5C 607.022,726.109 594.022,744.109 581.5,762.5C 579.167,765.167 576.833,767.833 574.5,770.5C 573.206,771.29 572.039,772.29 571,773.5C 570.195,771.099 569.362,771.266 568.5,774C 566.905,773.383 565.572,773.716 564.5,775C 564.833,775.333 565.167,775.667 565.5,776C 563.82,776.347 562.82,777.347 562.5,779C 563.459,781.12 563.626,783.287 563,785.5C 560.563,788.72 558.397,792.053 556.5,795.5C 555.087,798.661 553.42,801.661 551.5,804.5C 549.025,806.77 547.025,809.437 545.5,812.5C 544.833,812.5 544.5,812.833 544.5,813.5C 544.167,813.5 543.833,813.5 543.5,813.5C 541.031,816.144 538.698,818.977 536.5,822C 536.728,822.399 537.062,822.565 537.5,822.5C 535.518,825.81 533.185,828.81 530.5,831.5C 527.019,835.763 523.519,840.097 520,844.5C 517.904,843.285 518.071,842.451 520.5,842C 518.975,840.991 517.308,840.491 515.5,840.5C 515.335,842.827 514.669,844.993 513.5,847C 514.978,848.193 516.312,848.693 517.5,848.5C 516.289,850.422 514.956,852.255 513.5,854C 513.728,854.399 514.062,854.565 514.5,854.5C 511.984,858.866 508.984,862.866 505.5,866.5C 502.158,869.992 499.158,873.825 496.5,878C 494.77,879.852 493.604,879.686 493,877.5C 491.5,879 490,880.5 488.5,882C 490.581,884.411 490.581,886.578 488.5,888.5C 485.012,892.417 480.679,895.083 475.5,896.5C 472.732,895.133 469.732,894.133 466.5,893.5C 463.924,894.883 464.258,895.717 467.5,896C 465.681,896.74 464.348,897.907 463.5,899.5C 461.801,899.34 460.134,899.506 458.5,900C 459.888,900.889 459.722,901.389 458,901.5C 455.036,901.117 452.37,900.117 450,898.5C 449.439,899.022 448.772,899.355 448,899.5C 444.848,897.615 441.514,895.948 438,894.5C 437.667,894.833 437.333,895.167 437,895.5C 435.296,893.627 433.463,891.96 431.5,890.5C 431.938,890.565 432.272,890.399 432.5,890C 429.526,888.494 429.193,886.828 431.5,885C 430.667,884.167 429.833,883.333 429,882.5C 428.581,883.672 427.915,884.672 427,885.5C 423.343,882.135 420.176,878.468 417.5,874.5C 415.178,869.896 412.845,865.23 410.5,860.5C 409.961,849.116 412.461,838.45 418,828.5C 432.903,808.554 447.736,787.887 462.5,766.5C 464.522,764.469 466.189,762.135 467.5,759.5C 474.215,750.782 480.548,741.782 486.5,732.5C 487.167,732.5 487.5,732.167 487.5,731.5C 488.488,730.205 489.488,728.872 490.5,727.5C 494.591,721.653 498.924,715.987 503.5,710.5C 505.262,709.738 506.262,708.404 506.5,706.5C 507.721,705.972 508.887,705.305 510,704.5C 510.533,701.495 511.7,698.828 513.5,696.5C 514.906,696.027 515.573,695.027 515.5,693.5C 517.025,690.437 519.025,687.77 521.5,685.5C 522.906,685.027 523.573,684.027 523.5,682.5C 525.229,678.245 527.896,674.578 531.5,671.5C 532.906,671.027 533.573,670.027 533.5,668.5C 533.554,666.368 534.554,665.035 536.5,664.5C 538.262,663.738 539.262,662.404 539.5,660.5C 539.351,659.448 539.517,658.448 540,657.5C 542.666,654.824 544.833,651.824 546.5,648.5C 547.167,648.167 547.833,647.833 548.5,647.5C 549.906,647.027 550.573,646.027 550.5,644.5C 551.529,642.483 552.529,640.483 553.5,638.5C 554.5,637.833 555.5,637.167 556.5,636.5C 557.906,636.027 558.573,635.027 558.5,633.5C 559.026,631.77 560.026,630.436 561.5,629.5C 562.906,629.027 563.573,628.027 563.5,626.5C 568.695,617.632 575.028,608.965 582.5,600.5C 583.906,600.027 584.573,599.027 584.5,597.5C 589.085,590.153 594.418,582.82 600.5,575.5C 601.906,575.027 602.573,574.027 602.5,572.5C 603.167,570.833 603.833,569.167 604.5,567.5C 605.5,566.833 606.5,566.167 607.5,565.5C 608.906,565.027 609.573,564.027 609.5,562.5C 611.122,559.545 613.122,556.878 615.5,554.5C 616.906,554.027 617.573,553.027 617.5,551.5C 629.915,534.424 641.915,517.091 653.5,499.5C 659.311,492.559 664.644,485.226 669.5,477.5C 672.01,475.582 673.177,473.249 673,470.5C 674.147,471.458 675.147,471.125 676,469.5C 677.094,467.922 677.928,466.255 678.5,464.5C 681.167,461.5 683.833,458.5 686.5,455.5C 687.906,455.027 688.573,454.027 688.5,452.5C 688.427,450.973 689.094,449.973 690.5,449.5C 692.587,448.415 693.92,446.749 694.5,444.5C 694.557,443.391 694.89,442.391 695.5,441.5C 696.906,441.027 697.573,440.027 697.5,438.5C 698.167,438.5 698.5,438.167 698.5,437.5C 702.167,432.833 705.833,428.167 709.5,423.5C 710.906,423.027 711.573,422.027 711.5,420.5C 713.925,417.411 715.925,414.078 717.5,410.5C 719.395,409.027 721.061,407.36 722.5,405.5C 724.262,404.738 725.262,403.404 725.5,401.5C 728.796,395.226 732.796,389.559 737.5,384.5C 738.906,384.027 739.573,383.027 739.5,381.5C 741.458,378.208 743.791,375.208 746.5,372.5C 748.326,370.853 749.66,368.853 750.5,366.5C 752.9,364.704 754.567,362.37 755.5,359.5C 755.859,357.629 756.859,356.129 758.5,355C 757.655,353.442 758.321,352.442 760.5,352C 760.167,351.667 759.833,351.333 759.5,351C 760.693,349.905 762.027,349.072 763.5,348.5C 764.906,348.027 765.573,347.027 765.5,345.5C 766.906,345.027 767.573,344.027 767.5,342.5C 768.026,340.77 769.026,339.436 770.5,338.5C 771.906,338.027 772.573,337.027 772.5,335.5C 773.598,334.603 773.598,333.77 772.5,333C 773.328,332.085 774.328,331.419 775.5,331C 775.167,330.667 774.833,330.333 774.5,330C 775.693,328.905 777.027,328.072 778.5,327.5C 783.69,321.314 790.023,316.648 797.5,313.5C 798.298,313.043 798.631,312.376 798.5,311.5C 802.664,310.279 806.831,308.946 811,307.5C 814.181,308.79 817.348,308.79 820.5,307.5C 824.409,308.915 828.409,309.915 832.5,310.5 Z"/></g>
<g><path style="opacity:1" fill="#5890db" d="M 603.5,313.5 C 603.573,315.027 602.906,316.027 601.5,316.5C 601.427,314.973 602.094,313.973 603.5,313.5 Z"/></g>
<g><path style="opacity:1" fill="#f73d45" d="M 798.5,311.5 C 798.631,312.376 798.298,313.043 797.5,313.5C 790.023,316.648 783.69,321.314 778.5,327.5C 783.228,319.795 789.895,314.462 798.5,311.5 Z"/></g>
<g><path style="opacity:1" fill="#f6585c" d="M 833.5,311.5 C 833.833,311.5 834.167,311.5 834.5,311.5C 836.5,312.833 838.5,314.167 840.5,315.5C 840.565,315.938 840.399,316.272 840,316.5C 838.247,315.373 836.413,314.373 834.5,313.5C 833.702,313.043 833.369,312.376 833.5,311.5 Z"/></g>
<g><path style="opacity:1" fill="#2d71da" d="M 708.5,328.5 C 705.188,333.804 701.521,338.804 697.5,343.5C 697.062,343.565 696.728,343.399 696.5,343C 699.319,340.617 700.485,337.784 700,334.5C 701.016,333.366 701.683,333.699 702,335.5C 703.333,333.5 704.667,331.5 706,329.5C 706.838,328.001 707.671,327.668 708.5,328.5 Z"/></g>
<g><path style="opacity:1" fill="#f45f6b" d="M 772.5,335.5 C 772.573,337.027 771.906,338.027 770.5,338.5C 770.427,336.973 771.094,335.973 772.5,335.5 Z"/></g>
<g><path style="opacity:1" fill="#f95966" d="M 767.5,342.5 C 767.573,344.027 766.906,345.027 765.5,345.5C 765.427,343.973 766.094,342.973 767.5,342.5 Z"/></g>
<g><path style="opacity:1" fill="#ed5464" d="M 765.5,345.5 C 765.573,347.027 764.906,348.027 763.5,348.5C 763.427,346.973 764.094,345.973 765.5,345.5 Z"/></g>
<g><path style="opacity:1" fill="#f35356" d="M 863.5,348.5 C 864.597,352.777 864.597,357.11 863.5,361.5C 862.167,357.167 862.167,352.833 863.5,348.5 Z"/></g>
<g><path style="opacity:1" fill="#f14649" d="M 755.5,359.5 C 754.567,362.37 752.9,364.704 750.5,366.5C 749.395,364.7 750.061,363.533 752.5,363C 752.167,362.667 751.833,362.333 751.5,362C 752.693,360.905 754.027,360.072 755.5,359.5 Z"/></g>
<g><path style="opacity:1" fill="#f74a4c" d="M 750.5,366.5 C 749.66,368.853 748.326,370.853 746.5,372.5C 746.845,369.802 748.178,367.802 750.5,366.5 Z"/></g>
<g><path style="opacity:1" fill="#f36266" d="M 739.5,381.5 C 739.573,383.027 738.906,384.027 737.5,384.5C 737.427,382.973 738.094,381.973 739.5,381.5 Z"/></g>
<g><path style="opacity:1" fill="#3777d7" d="M 681.5,366.5 C 676.975,373.563 671.975,380.229 666.5,386.5C 666.062,386.565 665.728,386.399 665.5,386C 669.5,380.667 673.5,375.333 677.5,370C 676.833,369.667 676.167,369.333 675.5,369C 676.701,368.097 677.535,366.931 678,365.5C 678.333,366.167 678.667,366.833 679,367.5C 679.838,366.001 680.671,365.668 681.5,366.5 Z"/></g>
<g><path style="opacity:1" fill="#4e86db" d="M 549.5,388.5 C 550.473,390.292 549.806,391.625 547.5,392.5C 547.389,391.883 547.056,391.383 546.5,391C 547.571,390.148 548.571,389.315 549.5,388.5 Z"/></g>
<g><path style="opacity:1" fill="#3375d9" d="M 376.5,398.5 C 372.833,399.833 369.167,399.833 365.5,398.5C 369.167,397.167 372.833,397.167 376.5,398.5 Z"/></g>
<g><path style="opacity:1" fill="#437ddb" d="M 547.5,392.5 C 545.145,397.88 541.812,402.546 537.5,406.5C 539.844,402.64 542.011,398.64 544,394.5C 545.113,393.695 546.279,393.028 547.5,392.5 Z"/></g>
<g><path style="opacity:1" fill="#f9575c" d="M 722.5,403.5 C 721.833,402.167 721.833,402.167 722.5,403.5 Z"/></g>
<g><path style="opacity:1" fill="#fa5c61" d="M 725.5,401.5 C 725.262,403.404 724.262,404.738 722.5,405.5C 722.5,404.833 722.5,404.167 722.5,403.5C 723.5,402.833 724.5,402.167 725.5,401.5 Z"/></g>
<g><path style="opacity:1" fill="#5184da" d="M 913.5,402.5 C 910.167,403.833 906.833,403.833 903.5,402.5C 906.731,401.218 910.064,401.218 913.5,402.5 Z"/></g>
<g><path style="opacity:1" fill="#4180df" d="M 386.5,401.5 C 393.08,402.613 398.08,405.946 401.5,411.5C 399.914,410.852 398.247,410.352 396.5,410C 397.061,408.434 396.394,407.101 394.5,406C 391.609,404.726 388.942,403.226 386.5,401.5 Z"/></g>
<g><path style="opacity:1" fill="#0c5dd4" d="M 903.5,402.5 C 906.833,403.833 910.167,403.833 913.5,402.5C 915.584,403.248 917.584,403.248 919.5,402.5C 920.936,404.822 922.77,405.489 925,404.5C 927.959,406.863 931.126,409.029 934.5,411C 936.706,413.037 938.706,415.203 940.5,417.5C 940.79,419.11 939.79,420.277 937.5,421C 938.573,424.471 939.24,428.305 939.5,432.5C 943.45,431.204 947.283,430.537 951,430.5C 954.369,434.037 957.869,437.371 961.5,440.5C 964.194,442.527 966.527,444.861 968.5,447.5C 968.738,449.478 970.071,451.145 972.5,452.5C 973.5,452.833 974.167,453.5 974.5,454.5C 976.43,458.1 979.097,461.1 982.5,463.5C 988.194,468.527 993.527,473.86 998.5,479.5C 1009.38,490.895 1020.05,502.561 1030.5,514.5C 1030.74,516.478 1032.07,518.145 1034.5,519.5C 1045.17,530.172 1055.51,541.172 1065.5,552.5C 1066.83,553.5 1068.17,554.5 1069.5,555.5C 1068.17,555.833 1068.17,556.167 1069.5,556.5C 1072.49,559.792 1075.49,563.126 1078.5,566.5C 1079.5,567.833 1080.5,569.167 1081.5,570.5C 1081.06,570.435 1080.73,570.601 1080.5,571C 1082.5,573 1084.5,575 1086.5,577C 1085.55,577.718 1085.38,578.551 1086,579.5C 1089.32,580.744 1092.32,583.077 1095,586.5C 1095.4,586.272 1095.57,585.938 1095.5,585.5C 1097.95,589.756 1100.61,593.256 1103.5,596C 1103.04,596.414 1102.71,596.914 1102.5,597.5C 1105.38,602.474 1107.05,607.807 1107.5,613.5C 1106.17,619.5 1106.17,625.5 1107.5,631.5C 1105.52,644.789 1099.86,656.122 1090.5,665.5C 1090.57,665.062 1090.4,664.728 1090,664.5C 1085.53,668.595 1081.87,672.595 1079,676.5C 1076.5,679 1074,681.5 1071.5,684C 1071.73,684.399 1072.06,684.565 1072.5,684.5C 1066.51,691.825 1060.17,698.825 1053.5,705.5C 1053.57,705.062 1053.4,704.728 1053,704.5C 1048.9,708.095 1045.4,712.095 1042.5,716.5C 1032.51,727.802 1022.51,739.135 1012.5,750.5C 1011.5,750.833 1010.83,751.5 1010.5,752.5C 1009.83,752.5 1009.5,752.833 1009.5,753.5C 1008.83,753.5 1008.5,753.833 1008.5,754.5C 1007.83,754.5 1007.5,754.833 1007.5,755.5C 1006.83,755.5 1006.5,755.833 1006.5,756.5C 1005.83,756.5 1005.5,756.833 1005.5,757.5C 1004.5,758.167 1003.5,758.833 1002.5,759.5C 998.345,759.161 996.512,760.828 997,764.5C 993.558,767.432 990.725,770.765 988.5,774.5C 988.5,775.167 988.167,775.5 987.5,775.5C 982.438,779.559 978.105,784.226 974.5,789.5C 974.068,790.71 973.401,791.71 972.5,792.5C 972.565,792.062 972.399,791.728 972,791.5C 968.558,794.432 965.725,797.765 963.5,801.5C 962.2,804.432 960.2,806.766 957.5,808.5C 957.565,808.062 957.399,807.728 957,807.5C 953.181,810.804 950.014,814.47 947.5,818.5C 944.147,818.345 943.814,819.012 946.5,820.5C 945.738,822.262 944.404,823.262 942.5,823.5C 939.22,825.14 935.886,826.807 932.5,828.5C 931.702,828.957 931.369,829.624 931.5,830.5C 928.539,831.323 925.539,831.99 922.5,832.5C 918.833,831.167 915.167,831.167 911.5,832.5C 901.661,830.841 892.994,826.674 885.5,820C 886.598,819.23 886.598,818.397 885.5,817.5C 884.551,815.223 883.218,813.223 881.5,811.5C 880.527,809.75 879.193,808.25 877.5,807C 878.13,804.184 877.464,801.518 875.5,799C 875.261,788.974 877.427,779.474 882,770.5C 884.668,766.666 887.835,763.333 891.5,760.5C 897.868,754.741 903.535,748.408 908.5,741.5C 911.458,736.874 915.124,732.874 919.5,729.5C 923.898,726.105 927.564,722.105 930.5,717.5C 933.243,715.761 935.243,713.427 936.5,710.5C 938.167,708.167 940.167,706.167 942.5,704.5C 945.243,702.761 947.243,700.427 948.5,697.5C 948.833,696.5 949.5,695.833 950.5,695.5C 954.898,692.105 958.564,688.105 961.5,683.5C 961.799,681.545 962.799,680.211 964.5,679.5C 964.435,679.938 964.601,680.272 965,680.5C 966.802,679.211 967.969,677.544 968.5,675.5C 969.167,674.167 970.167,673.167 971.5,672.5C 975.566,669.437 978.899,665.771 981.5,661.5C 984.799,656.534 988.799,652.201 993.5,648.5C 997.213,645.108 1000.21,641.108 1002.5,636.5C 1002.38,635.893 1002.04,635.56 1001.5,635.5C 1001.83,633.5 1002.17,631.5 1002.5,629.5C 1004.55,628.947 1004.89,627.947 1003.5,626.5C 1003.2,613.546 998.196,602.546 988.5,593.5C 985.899,589.229 982.566,585.563 978.5,582.5C 970.465,575.466 963.132,567.799 956.5,559.5C 953.848,555.183 950.515,551.516 946.5,548.5C 945.167,547.833 944.167,546.833 943.5,545.5C 941.949,542.437 939.782,539.771 937,537.5C 936.383,536.551 936.549,535.718 937.5,535C 936.184,534.472 935.517,534.972 935.5,536.5C 929.052,531.057 923.385,525.057 918.5,518.5C 914.934,513.427 910.768,508.76 906,504.5C 905.517,503.552 905.351,502.552 905.5,501.5C 904.5,501.5 903.5,501.5 902.5,501.5C 901.167,500.833 900.167,499.833 899.5,498.5C 896.848,494.183 893.515,490.516 889.5,487.5C 886.833,485.167 884.167,482.833 881.5,480.5C 881.167,479.5 880.5,478.833 879.5,478.5C 875.879,473.707 872.046,469.04 868,464.5C 865.787,459.696 864.287,454.696 863.5,449.5C 864.638,446.696 864.805,443.696 864,440.5C 863.617,441.056 863.117,441.389 862.5,441.5C 867.738,419.594 881.405,406.594 903.5,402.5 Z"/></g>
<g><path style="opacity:1" fill="#f94b56" d="M 717.5,410.5 C 716.833,409.167 716.833,409.167 717.5,410.5 Z"/></g>
<g><path style="opacity:1" fill="#0056da" d="M 332.5,415.5 C 331.833,414.167 331.833,414.167 332.5,415.5 Z"/></g>
<g><path style="opacity:1" fill="#226ada" d="M 940.5,417.5 C 945.803,423.635 951.636,429.302 958,434.5C 959.421,436.405 960.588,438.405 961.5,440.5C 957.869,437.371 954.369,434.037 951,430.5C 947.283,430.537 943.45,431.204 939.5,432.5C 939.24,428.305 938.573,424.471 937.5,421C 939.79,420.277 940.79,419.11 940.5,417.5 Z"/></g>
<g><path style="opacity:1" fill="#f35a64" d="M 711.5,420.5 C 711.573,422.027 710.906,423.027 709.5,423.5C 709.427,421.973 710.094,420.973 711.5,420.5 Z"/></g>
<g><path style="opacity:1" fill="#4a7edf" d="M 329.5,420.5 C 327.234,424.436 324.234,427.769 320.5,430.5C 322.766,426.564 325.766,423.231 329.5,420.5 Z"/></g>
<g><path style="opacity:1" fill="#4e89df" d="M 524.5,424.5 C 524.155,427.198 522.822,429.198 520.5,430.5C 521.298,428.034 522.631,426.034 524.5,424.5 Z"/></g>
<g><path style="opacity:1" fill="#2569d4" d="M 315.5,434.5 C 314.833,433.167 314.833,433.167 315.5,434.5 Z"/></g>
<g><path style="opacity:1" fill="#2067d6" d="M 410.5,425.5 C 416.576,442.53 412.909,457.197 399.5,469.5C 399.039,468.226 398.873,466.559 399,464.5C 401.291,465.311 403.125,464.477 404.5,462C 403.833,461.667 403.167,461.333 402.5,461C 405.154,458.928 404.82,457.261 401.5,456C 402.77,455.1 403.77,453.934 404.5,452.5C 406.375,453.836 407.708,453.336 408.5,451C 405.388,448.561 403.055,445.561 401.5,442C 401.759,440.739 402.426,439.739 403.5,439C 401.715,437.407 401.548,435.907 403,434.5C 403.333,435.5 403.667,436.5 404,437.5C 405.113,436.289 406.28,436.289 407.5,437.5C 410.144,436.259 410.977,434.259 410,431.5C 409.716,433.886 408.716,434.552 407,433.5C 406.503,430.854 406.336,428.187 406.5,425.5C 407.833,425.5 409.167,425.5 410.5,425.5 Z"/></g>
<g><path style="opacity:1" fill="#fa383e" d="M 698.5,437.5 C 697.833,437.5 697.5,437.833 697.5,438.5C 696.957,438.44 696.624,438.107 696.5,437.5C 697.257,436.227 697.923,436.227 698.5,437.5 Z"/></g>
<g><path style="opacity:1" fill="#f9323d" d="M 695.5,441.5 C 694.833,440.167 694.833,440.167 695.5,441.5 Z"/></g>
<g><path style="opacity:1" fill="#f9384a" d="M 692.5,445.5 C 691.833,444.167 691.833,444.167 692.5,445.5 Z"/></g>
<g><path style="opacity:1" fill="#4d87da" d="M 863.5,449.5 C 863.721,446.721 863.388,444.054 862.5,441.5C 863.117,441.389 863.617,441.056 864,440.5C 864.805,443.696 864.638,446.696 863.5,449.5 Z"/></g>
<g><path style="opacity:1" fill="#1f68df" d="M 303.5,447.5 C 302.833,447.5 302.5,447.833 302.5,448.5C 301.957,448.44 301.624,448.107 301.5,447.5C 302.257,446.227 302.923,446.227 303.5,447.5 Z"/></g>
<g><path style="opacity:1" fill="#fa5660" d="M 694.5,444.5 C 693.92,446.749 692.587,448.415 690.5,449.5C 690.196,448.85 689.863,448.183 689.5,447.5C 690.781,447.984 691.781,447.317 692.5,445.5C 693.167,445.167 693.833,444.833 694.5,444.5 Z"/></g>
<g><path style="opacity:1" fill="#f24456" d="M 809.5,446.5 C 810.833,447.167 810.833,447.167 809.5,446.5 Z"/></g>
<g><path style="opacity:1" fill="#4a87de" d="M 968.5,447.5 C 970.587,448.585 971.92,450.251 972.5,452.5C 970.071,451.145 968.738,449.478 968.5,447.5 Z"/></g>
<g><path style="opacity:1" fill="#4b81db" d="M 508.5,447.5 C 506.6,451.732 503.933,455.399 500.5,458.5C 502.071,453.945 504.738,450.278 508.5,447.5 Z"/></g>
<g><path style="opacity:1" fill="#fb5b62" d="M 688.5,452.5 C 688.573,454.027 687.906,455.027 686.5,455.5C 686.427,453.973 687.094,452.973 688.5,452.5 Z"/></g>
<g><path style="opacity:1" fill="#1263d4" d="M 976.5,454.5 C 977.833,455.167 977.833,455.167 976.5,454.5 Z"/></g>
<g><path style="opacity:1" fill="#3c7ad9" d="M 974.5,454.5 C 975.167,454.833 975.833,455.167 976.5,455.5C 977.812,457.479 979.479,459.145 981.5,460.5C 982.386,461.325 982.719,462.325 982.5,463.5C 979.097,461.1 976.43,458.1 974.5,454.5 Z"/></g>
<g><path style="opacity:1" fill="#3275e1" d="M 496.5,462.5 C 495.833,461.167 495.833,461.167 496.5,462.5 Z"/></g>
<g><path style="opacity:1" fill="#2b75da" d="M 612.5,463.5 C 613.833,464.167 613.833,464.167 612.5,463.5 Z"/></g>
<g><path style="opacity:1" fill="#f9575c" d="M 678.5,464.5 C 677.833,463.167 677.833,463.167 678.5,464.5 Z"/></g>
<g><path style="opacity:1" fill="#3875da" d="M 494.5,465.5 C 493.833,464.167 493.833,464.167 494.5,465.5 Z"/></g>
<g><path style="opacity:1" fill="#548fe2" d="M 492.5,469.5 C 492.573,471.027 491.906,472.027 490.5,472.5C 489.509,470.877 490.176,469.877 492.5,469.5 Z"/></g>
<g><path style="opacity:1" fill="#4489e1" d="M 396.5,473.5 C 397.833,474.167 397.833,474.167 396.5,473.5 Z"/></g>
<g><path style="opacity:1" fill="#3883e1" d="M 395.5,474.5 C 395.833,474.5 396.167,474.5 396.5,474.5C 396.315,475.17 395.981,475.17 395.5,474.5 Z"/></g>
<g><path style="opacity:1" fill="#257ce1" d="M 394.5,475.5 C 394.833,475.5 395.167,475.5 395.5,475.5C 395.315,476.17 394.981,476.17 394.5,475.5 Z"/></g>
<g><path style="opacity:1" fill="#196fda" d="M 393.5,476.5 C 393.833,476.5 394.167,476.5 394.5,476.5C 394.315,477.17 393.981,477.17 393.5,476.5 Z"/></g>
<g><path style="opacity:1" fill="#f93e4a" d="M 669.5,477.5 C 668.833,476.167 668.833,476.167 669.5,477.5 Z"/></g>
<g><path style="opacity:1" fill="#2b6fda" d="M 273.5,479.5 C 272.833,478.167 272.833,478.167 273.5,479.5 Z"/></g>
<g><path style="opacity:1" fill="#3e7de1" d="M 484.5,479.5 C 483.833,478.167 483.833,478.167 484.5,479.5 Z"/></g>
<g><path style="opacity:1" fill="#518fe7" d="M 879.5,478.5 C 878.833,479.167 878.833,479.167 879.5,478.5 Z"/></g>
<g><path style="opacity:1" fill="#125cda" d="M 998.5,478.5 C 999.833,479.167 999.833,479.167 998.5,478.5 Z"/></g>
<g><path style="opacity:1" fill="#3978da" d="M 397.5,471.5 C 397.167,472.167 396.833,472.833 396.5,473.5C 395.833,473.5 395.5,473.833 395.5,474.5C 394.833,474.5 394.5,474.833 394.5,475.5C 393.833,475.5 393.5,475.833 393.5,476.5C 388.061,482.36 382.395,488.027 376.5,493.5C 378.388,490.101 380.888,487.101 384,484.5C 384.617,483.551 384.451,482.718 383.5,482C 388.565,478.943 393.065,475.11 397,470.5C 397.399,470.728 397.565,471.062 397.5,471.5 Z"/></g>
<g><path style="opacity:1" fill="#ec2531" d="M 785.5,479.5 C 786.833,480.167 786.833,480.167 785.5,479.5 Z"/></g>
<g><path style="opacity:1" fill="#4084dd" d="M 600.5,478.5 C 599.66,480.853 598.326,482.853 596.5,484.5C 596.062,484.565 595.728,484.399 595.5,484C 596.833,481.809 598.5,479.976 600.5,478.5 Z"/></g>
<g><path style="opacity:1" fill="#f20c1e" d="M 784.5,480.5 C 784.833,480.5 785.167,480.5 785.5,480.5C 785.315,481.17 784.981,481.17 784.5,480.5 Z"/></g>
<g><path style="opacity:1" fill="#327cda" d="M 881.5,480.5 C 880.833,481.167 880.833,481.167 881.5,480.5 Z"/></g>
<g><path style="opacity:1" fill="#447bda" d="M 277.5,476.5 C 274.514,481.152 270.847,485.152 266.5,488.5C 268.451,485.214 270.785,482.214 273.5,479.5C 274.833,478.5 276.167,477.5 277.5,476.5 Z"/></g>
<g><path style="opacity:1" fill="#3e7de1" d="M 479.5,486.5 C 478.833,485.167 478.833,485.167 479.5,486.5 Z"/></g>
<g><path style="opacity:1" fill="#4983de" d="M 484.5,481.5 C 483.567,484.37 481.9,486.704 479.5,488.5C 479.5,487.833 479.5,487.167 479.5,486.5C 480.939,484.64 482.605,482.973 484.5,481.5 Z"/></g>
<g><path style="opacity:1" fill="#f9252a" d="M 777.5,490.5 C 778.833,491.167 778.833,491.167 777.5,490.5 Z"/></g>
<g><path style="opacity:1" fill="#4582dd" d="M 889.5,487.5 C 893.515,490.516 896.848,494.183 899.5,498.5C 895.434,495.437 892.101,491.771 889.5,487.5 Z"/></g>
<g><path style="opacity:1" fill="#5c95e2" d="M 473.5,496.5 C 473.573,498.027 472.906,499.027 471.5,499.5C 471.427,497.973 472.094,496.973 473.5,496.5 Z"/></g>
<g><path style="opacity:1" fill="#f93e50" d="M 773.5,496.5 C 774.833,497.167 774.833,497.167 773.5,496.5 Z"/></g>
<g><path style="opacity:1" fill="#f91f31" d="M 772.5,497.5 C 772.833,497.5 773.167,497.5 773.5,497.5C 773.315,498.17 772.981,498.17 772.5,497.5 Z"/></g>
<g><path style="opacity:1" fill="#4680d8" d="M 261.5,493.5 C 260.243,496.427 258.243,498.761 255.5,500.5C 256.757,497.573 258.757,495.239 261.5,493.5 Z"/></g>
<g><path style="opacity:1" fill="#387dda" d="M 470.5,499.5 C 469.833,498.167 469.833,498.167 470.5,499.5 Z"/></g>
<g><path style="opacity:1" fill="#3883e1" d="M 587.5,498.5 C 588.833,499.167 588.833,499.167 587.5,498.5 Z"/></g>
<g><path style="opacity:1" fill="#f93843" d="M 653.5,499.5 C 652.833,498.167 652.833,498.167 653.5,499.5 Z"/></g>
<g><path style="opacity:1" fill="#3275da" d="M 468.5,502.5 C 467.833,501.167 467.833,501.167 468.5,502.5 Z"/></g>
<g><path style="opacity:1" fill="#3883e1" d="M 585.5,501.5 C 586.833,502.167 586.833,502.167 585.5,501.5 Z"/></g>
<g><path style="opacity:1" fill="#3c7bda" d="M 470.5,499.5 C 470.833,499.5 471.167,499.5 471.5,499.5C 471.155,502.198 469.822,504.198 467.5,505.5C 467.557,504.391 467.89,503.391 468.5,502.5C 469.401,501.71 470.068,500.71 470.5,499.5 Z"/></g>
<g><path style="opacity:1" fill="#3877d9" d="M 374.5,495.5 C 370.873,500.794 366.54,505.461 361.5,509.5C 364.228,505.263 367.561,501.429 371.5,498C 371.167,497.667 370.833,497.333 370.5,497C 371.563,495.812 372.897,495.312 374.5,495.5 Z"/></g>
<g><path style="opacity:1" fill="#f92531" d="M 767.5,504.5 C 768.525,504.897 768.692,505.563 768,506.5C 767.536,505.906 767.369,505.239 767.5,504.5 Z"/></g>
<g><path style="opacity:1" fill="#5591e2" d="M 467.5,505.5 C 467.262,507.404 466.262,508.738 464.5,509.5C 464.738,507.596 465.738,506.262 467.5,505.5 Z"/></g>
<g><path style="opacity:1" fill="#fa494e" d="M 768.5,501.5 C 768.443,502.609 768.11,503.609 767.5,504.5C 765.833,506.5 764.167,508.5 762.5,510.5C 762.062,510.565 761.728,510.399 761.5,510C 763.698,506.977 766.031,504.144 768.5,501.5 Z"/></g>
<g><path style="opacity:1" fill="#699de4" d="M 852.5,507.5 C 852.5,508.167 852.167,508.5 851.5,508.5C 848.941,508.802 846.607,508.468 844.5,507.5C 846.957,507.208 849.624,507.208 852.5,507.5 Z"/></g>
<g><path style="opacity:1" fill="#4a85db" d="M 852.5,507.5 C 855.106,508.136 857.606,508.136 860,507.5C 864.808,510.007 869.974,512.84 875.5,516C 876.71,517.039 877.71,518.206 878.5,519.5C 870.466,513.312 861.466,509.645 851.5,508.5C 852.167,508.5 852.5,508.167 852.5,507.5 Z"/></g>
<g><path style="opacity:1" fill="#3d7fdc" d="M 585.5,499.5 C 585.5,500.167 585.5,500.833 585.5,501.5C 582.261,504.983 579.261,508.65 576.5,512.5C 578.131,507.685 581.131,503.351 585.5,499.5 Z"/></g>
<g><path style="opacity:1" fill="#3c78d8" d="M 902.5,501.5 C 903.5,501.5 904.5,501.5 905.5,501.5C 905.351,502.552 905.517,503.552 906,504.5C 910.768,508.76 914.934,513.427 918.5,518.5C 912.462,513.463 907.129,507.797 902.5,501.5 Z"/></g>
<g><path style="opacity:1" fill="#f74448" d="M 761.5,511.5 C 761.443,512.609 761.11,513.609 760.5,514.5C 758.5,516.833 756.5,519.167 754.5,521.5C 754.062,521.565 753.728,521.399 753.5,521C 755.828,517.484 758.495,514.318 761.5,511.5 Z"/></g>
<g><path style="opacity:1" fill="#f23843" d="M 760.5,514.5 C 761.833,515.167 761.833,515.167 760.5,514.5 Z"/></g>
<g><path style="opacity:1" fill="#4c86dc" d="M 1030.5,514.5 C 1032.59,515.585 1033.92,517.251 1034.5,519.5C 1032.07,518.145 1030.74,516.478 1030.5,514.5 Z"/></g>
<g><path style="opacity:1" fill="#3376d5" d="M 355.5,516.5 C 352.833,519.833 349.833,522.833 346.5,525.5C 348.725,521.765 351.558,518.432 355,515.5C 355.399,515.728 355.565,516.062 355.5,516.5 Z"/></g>
<g><path style="opacity:1" fill="#487bd8" d="M 828.5,511.5 C 828.586,512.496 828.252,513.329 827.5,514C 822.944,516.106 818.944,518.939 815.5,522.5C 816.203,520.284 817.536,518.451 819.5,517C 822.528,515.156 825.528,513.322 828.5,511.5 Z"/></g>
<g><path style="opacity:1" fill="#467edd" d="M 244.5,512.5 C 239.871,518.797 234.538,524.463 228.5,529.5C 232.432,524.393 236.599,519.393 241,514.5C 241.816,513.177 242.983,512.511 244.5,512.5 Z"/></g>
<g><path style="opacity:1" fill="#fa202b" d="M 754.5,522.5 C 757.001,522.511 757.168,523.178 755,524.5C 754.536,523.906 754.369,523.239 754.5,522.5 Z"/></g>
<g><path style="opacity:1" fill="#5b96dc" d="M 814.5,523.5 C 814.573,525.027 813.906,526.027 812.5,526.5C 812.427,524.973 813.094,523.973 814.5,523.5 Z"/></g>
<g><path style="opacity:1" fill="#f25763" d="M 751.5,527.5 C 752.833,528.167 752.833,528.167 751.5,527.5 Z"/></g>
<g><path style="opacity:1" fill="#0c5dd4" d="M 844.5,507.5 C 846.607,508.468 848.941,508.802 851.5,508.5C 861.466,509.645 870.466,513.312 878.5,519.5C 888.359,527.048 894.026,537.048 895.5,549.5C 894.167,553.5 894.167,557.5 895.5,561.5C 894.921,569.645 891.921,576.645 886.5,582.5C 886.565,582.062 886.399,581.728 886,581.5C 884.426,582.984 883.093,584.651 882,586.5C 881.586,586.043 881.086,585.709 880.5,585.5C 878.808,587.359 877.308,589.359 876,591.5C 875.576,587.81 874.742,587.643 873.5,591C 874.019,593.026 874.353,595.026 874.5,597C 873.743,598.512 872.743,599.846 871.5,601C 871.728,601.399 872.062,601.565 872.5,601.5C 850.206,634.018 827.539,665.684 804.5,696.5C 801.066,700.506 797.732,704.672 794.5,709C 794.728,709.399 795.062,709.565 795.5,709.5C 793.735,712.709 791.735,715.709 789.5,718.5C 789.565,718.062 789.399,717.728 789,717.5C 787.333,719.5 785.667,721.5 784,723.5C 783.586,723.043 783.086,722.709 782.5,722.5C 780.861,723.916 780.027,725.583 780,727.5C 780.654,726.304 781.154,726.304 781.5,727.5C 779.694,730.472 777.694,733.305 775.5,736C 775.728,736.399 776.062,736.565 776.5,736.5C 775.525,738.795 774.192,740.795 772.5,742.5C 771.671,741.668 770.838,742.001 770,743.5C 766.333,748.833 762.667,754.167 759,759.5C 758.259,760.641 757.425,760.641 756.5,759.5C 753.75,760.716 752.583,762.716 753,765.5C 753.701,763.238 754.868,762.238 756.5,762.5C 754.89,764.725 753.557,767.059 752.5,769.5C 751.833,771.167 751.167,772.833 750.5,774.5C 749.833,774.5 749.5,774.833 749.5,775.5C 747.808,777.205 746.475,779.205 745.5,781.5C 741.925,785.653 738.591,789.986 735.5,794.5C 734.671,793.668 733.838,794.001 733,795.5C 730.888,799.278 728.388,802.778 725.5,806C 725.728,806.399 726.062,806.565 726.5,806.5C 726.443,807.609 726.11,808.609 725.5,809.5C 720.924,814.987 716.591,820.653 712.5,826.5C 711.671,825.668 710.838,826.001 710,827.5C 707.888,831.278 705.388,834.778 702.5,838C 702.728,838.399 703.062,838.565 703.5,838.5C 703.672,839.492 703.338,840.158 702.5,840.5C 701.671,839.668 700.838,840.001 700,841.5C 698.204,844.927 696.037,848.094 693.5,851C 693.728,851.399 694.062,851.565 694.5,851.5C 694.068,852.71 693.401,853.71 692.5,854.5C 692.565,854.062 692.399,853.728 692,853.5C 690.333,855.5 688.667,857.5 687,859.5C 686.333,858.167 685.667,858.167 685,859.5C 684.383,860.449 684.549,861.282 685.5,862C 682.833,865.667 680.167,869.333 677.5,873C 677.728,873.399 678.062,873.565 678.5,873.5C 676.745,876.68 674.745,879.68 672.5,882.5C 671.671,881.668 670.838,882.001 670,883.5C 665.29,890.421 660.456,897.254 655.5,904C 655.728,904.399 656.062,904.565 656.5,904.5C 650.548,913.782 644.215,922.782 637.5,931.5C 636.671,930.668 635.838,931.001 635,932.5C 632.578,936.344 629.911,940.01 627,943.5C 626,942.5 625,941.5 624,940.5C 623,940.833 622,941.167 621,941.5C 620.333,942.833 620.333,944.167 621,945.5C 621.654,944.304 622.154,944.304 622.5,945.5C 620.991,947.62 621.324,949.287 623.5,950.5C 616.188,961.661 605.855,967.994 592.5,969.5C 588.5,968.167 584.5,968.167 580.5,969.5C 555.868,964.038 541.868,948.871 538.5,924C 538.335,921.083 539.002,918.417 540.5,916C 539.978,915.439 539.645,914.772 539.5,914C 541.223,910.571 542.557,907.404 543.5,904.5C 544.496,904.586 545.329,904.252 546,903.5C 548.523,899.112 551.023,894.778 553.5,890.5C 555.255,887.32 557.255,884.32 559.5,881.5C 559.81,882.738 560.31,882.738 561,881.5C 563.751,877.598 566.251,873.598 568.5,869.5C 569.433,866.63 571.1,864.296 573.5,862.5C 575.937,861.262 576.937,859.595 576.5,857.5C 576.932,856.29 577.599,855.29 578.5,854.5C 578.81,855.738 579.31,855.738 580,854.5C 581.094,852.922 581.928,851.255 582.5,849.5C 585.676,843.811 589.342,838.477 593.5,833.5C 593.81,834.738 594.31,834.738 595,833.5C 596.421,831.595 597.588,829.595 598.5,827.5C 599.338,824.782 600.671,822.616 602.5,821C 613.855,803.618 626.521,786.118 640.5,768.5C 643.231,767.047 644.231,765.047 643.5,762.5C 660.842,739.236 677.509,715.903 693.5,692.5C 696.261,688.65 699.261,684.983 702.5,681.5C 704.89,679.733 706.557,677.4 707.5,674.5C 708.379,671.618 710.046,669.285 712.5,667.5C 720.603,657.728 727.936,647.394 734.5,636.5C 734.511,634.983 735.177,633.816 736.5,633C 736.167,632.667 735.833,632.333 735.5,632C 739.923,628.433 743.09,623.933 745,618.5C 746.665,616.167 748.832,614 751.5,612C 770.376,584.721 790.709,556.221 812.5,526.5C 813.906,526.027 814.573,525.027 814.5,523.5C 814.5,522.833 814.833,522.5 815.5,522.5C 818.944,518.939 822.944,516.106 827.5,514C 828.252,513.329 828.586,512.496 828.5,511.5C 833.567,509.145 838.901,507.812 844.5,507.5 Z"/></g>
<g><path style="opacity:1" fill="#4489da" d="M 566.5,528.5 C 567.833,529.167 567.833,529.167 566.5,528.5 Z"/></g>
<g><path style="opacity:1" fill="#f93243" d="M 750.5,528.5 C 750.833,528.5 751.167,528.5 751.5,528.5C 751.315,529.17 750.981,529.17 750.5,528.5 Z"/></g>
<g><path style="opacity:1" fill="#1f6fd4" d="M 565.5,529.5 C 565.833,529.5 566.167,529.5 566.5,529.5C 566.315,530.17 565.981,530.17 565.5,529.5 Z"/></g>
<g><path style="opacity:1" fill="#0c5cd4" d="M 564.5,531.5 C 565.833,532.167 565.833,532.167 564.5,531.5 Z"/></g>
<g><path style="opacity:1" fill="#f94450" d="M 748.5,531.5 C 749.833,532.167 749.833,532.167 748.5,531.5 Z"/></g>
<g><path style="opacity:1" fill="#327ce1" d="M 563.5,532.5 C 563.833,532.5 564.167,532.5 564.5,532.5C 564.315,533.17 563.981,533.17 563.5,532.5 Z"/></g>
<g><path style="opacity:1" fill="#f92b37" d="M 747.5,532.5 C 747.833,532.5 748.167,532.5 748.5,532.5C 748.315,533.17 747.981,533.17 747.5,532.5 Z"/></g>
<g><path style="opacity:1" fill="#4d84e1" d="M 223.5,534.5 C 221.57,538.1 218.903,541.1 215.5,543.5C 217.43,539.9 220.097,536.9 223.5,534.5 Z"/></g>
<g><path style="opacity:1" fill="#307ade" d="M 339.5,533.5 C 337.167,536.5 334.5,539.167 331.5,541.5C 333.388,538.101 335.888,535.101 339,532.5C 339.399,532.728 339.565,533.062 339.5,533.5 Z"/></g>
<g><path style="opacity:1" fill="#fa2d31" d="M 745.5,534.5 C 742.141,539.518 738.807,544.518 735.5,549.5C 734.167,550.833 732.833,552.167 731.5,553.5C 731.062,553.565 730.728,553.399 730.5,553C 731.357,552.311 732.023,551.478 732.5,550.5C 730.016,549.844 729.183,547.844 730,544.5C 732.454,542.987 734.121,543.654 735,546.5C 738.053,543.113 740.72,539.447 743,535.5C 743.838,534.001 744.671,533.668 745.5,534.5 Z"/></g>
<g><path style="opacity:1" fill="#3574d5" d="M 943.5,545.5 C 940.097,543.1 937.43,540.1 935.5,536.5C 935.517,534.972 936.184,534.472 937.5,535C 936.549,535.718 936.383,536.551 937,537.5C 939.782,539.771 941.949,542.437 943.5,545.5 Z"/></g>
<g><path style="opacity:1" fill="#f94b56" d="M 735.5,549.5 C 736.833,550.167 736.833,550.167 735.5,549.5 Z"/></g>
<g><path style="opacity:1" fill="#4580da" d="M 210.5,548.5 C 209.969,550.544 208.802,552.211 207,553.5C 206.601,553.272 206.435,552.938 206.5,552.5C 206.894,550.29 208.227,548.957 210.5,548.5 Z"/></g>
<g><path style="opacity:1" fill="#3878d7" d="M 329.5,543.5 C 325.968,548.798 321.635,553.465 316.5,557.5C 319.563,552.928 323.23,548.761 327.5,545C 325.071,544.549 324.904,543.715 327,542.5C 327.671,543.252 328.504,543.586 329.5,543.5 Z"/></g>
<g><path style="opacity:1" fill="#f35f66" d="M 617.5,551.5 C 617.573,553.027 616.906,554.027 615.5,554.5C 615.427,552.973 616.094,551.973 617.5,551.5 Z"/></g>
<g><path style="opacity:1" fill="#0056da" d="M 1065.5,551.5 C 1066.83,552.167 1066.83,552.167 1065.5,551.5 Z"/></g>
<g><path style="opacity:1" fill="#3f7ed9" d="M 558.5,537.5 C 554.323,544.525 549.656,551.192 544.5,557.5C 544.062,557.565 543.728,557.399 543.5,557C 548.157,550.161 553.157,543.661 558.5,537.5 Z"/></g>
<g><path style="opacity:1" fill="#4a85d5" d="M 895.5,549.5 C 896.833,553.5 896.833,557.5 895.5,561.5C 894.167,557.5 894.167,553.5 895.5,549.5 Z"/></g>
<g><path style="opacity:1" fill="#065cd4" d="M 1069.5,555.5 C 1070.83,556.167 1070.83,556.167 1069.5,555.5 Z"/></g>
<g><path style="opacity:1" fill="#f94450" d="M 730.5,556.5 C 731.833,557.167 731.833,557.167 730.5,556.5 Z"/></g>
<g><path style="opacity:1" fill="#3f7ad4" d="M 946.5,548.5 C 950.515,551.516 953.848,555.183 956.5,559.5C 952.536,556.53 949.202,552.863 946.5,548.5 Z"/></g>
<g><path style="opacity:1" fill="#f95163" d="M 728.5,559.5 C 729.833,560.167 729.833,560.167 728.5,559.5 Z"/></g>
<g><path style="opacity:1" fill="#f92537" d="M 727.5,560.5 C 727.833,560.5 728.167,560.5 728.5,560.5C 728.315,561.17 727.981,561.17 727.5,560.5 Z"/></g>
<g><path style="opacity:1" fill="#ed5c64" d="M 609.5,562.5 C 609.573,564.027 608.906,565.027 607.5,565.5C 607.427,563.973 608.094,562.973 609.5,562.5 Z"/></g>
<g><path style="opacity:1" fill="#f94b56" d="M 725.5,563.5 C 726.833,564.167 726.833,564.167 725.5,563.5 Z"/></g>
<g><path style="opacity:1" fill="#0056da" d="M 1078.5,565.5 C 1079.83,566.167 1079.83,566.167 1078.5,565.5 Z"/></g>
<g><path style="opacity:1" fill="#f20011" d="M 604.5,567.5 C 603.833,566.167 603.833,566.167 604.5,567.5 Z"/></g>
<g><path style="opacity:1" fill="#f90c1e" d="M 723.5,566.5 C 724.833,567.167 724.833,567.167 723.5,566.5 Z"/></g>
<g><path style="opacity:1" fill="#558cdf" d="M 196.5,563.5 C 195.581,566.089 193.914,568.089 191.5,569.5C 192.419,566.911 194.086,564.911 196.5,563.5 Z"/></g>
<g><path style="opacity:1" fill="#387cd9" d="M 309.5,565.5 C 307.118,568.548 304.452,571.215 301.5,573.5C 303.48,569.513 306.147,566.847 309.5,565.5 Z"/></g>
<g><path style="opacity:1" fill="#f55563" d="M 602.5,572.5 C 602.573,574.027 601.906,575.027 600.5,575.5C 600.427,573.973 601.094,572.973 602.5,572.5 Z"/></g>
<g><path style="opacity:1" fill="#3470d8" d="M 1081.5,570.5 C 1086.51,573.997 1090.35,577.997 1093,582.5C 1093.33,582.167 1093.67,581.833 1094,581.5C 1094.79,582.745 1095.29,584.078 1095.5,585.5C 1095.57,585.938 1095.4,586.272 1095,586.5C 1092.32,583.077 1089.32,580.744 1086,579.5C 1085.38,578.551 1085.55,577.718 1086.5,577C 1084.5,575 1082.5,573 1080.5,571C 1080.73,570.601 1081.06,570.435 1081.5,570.5 Z"/></g>
<g><path style="opacity:1" fill="#065cd4" d="M 410.5,584.5 C 409.833,583.167 409.833,583.167 410.5,584.5 Z"/></g>
<g><path style="opacity:1" fill="#3674d6" d="M 298.5,577.5 C 294.139,582.193 289.805,586.859 285.5,591.5C 285.413,590.502 285.08,589.335 284.5,588C 289.565,584.943 294.065,581.11 298,576.5C 298.399,576.728 298.565,577.062 298.5,577.5 Z"/></g>
<g><path style="opacity:1" fill="#266bd7" d="M 886.5,582.5 C 882.066,589.049 877.399,595.383 872.5,601.5C 872.062,601.565 871.728,601.399 871.5,601C 872.743,599.846 873.743,598.512 874.5,597C 874.353,595.026 874.019,593.026 873.5,591C 874.742,587.643 875.576,587.81 876,591.5C 877.308,589.359 878.808,587.359 880.5,585.5C 881.086,585.709 881.586,586.043 882,586.5C 883.093,584.651 884.426,582.984 886,581.5C 886.399,581.728 886.565,582.062 886.5,582.5 Z"/></g>
<g><path style="opacity:1" fill="#367cd7" d="M 978.5,582.5 C 982.566,585.563 985.899,589.229 988.5,593.5C 984.389,590.396 981.056,586.729 978.5,582.5 Z"/></g>
<g><path style="opacity:1" fill="#fa666b" d="M 584.5,597.5 C 584.573,599.027 583.906,600.027 582.5,600.5C 582.427,598.973 583.094,597.973 584.5,597.5 Z"/></g>
<g><path style="opacity:1" fill="#3c82d8" d="M 282.5,594.5 C 280.833,596.833 278.833,598.833 276.5,600.5C 276.062,600.565 275.728,600.399 275.5,600C 277.667,597.833 279.833,595.667 282,593.5C 282.399,593.728 282.565,594.062 282.5,594.5 Z"/></g>
<g><path style="opacity:1" fill="#4581da" d="M 516.5,596.5 C 514.938,600.392 512.605,603.725 509.5,606.5C 509.062,606.565 508.728,606.399 508.5,606C 511.031,602.642 513.698,599.476 516.5,596.5 Z"/></g>
<g><path style="opacity:1" fill="#4f87da" d="M 168.5,599.5 C 169.57,601.973 168.57,603.307 165.5,603.5C 166.659,602.26 167.659,600.926 168.5,599.5 Z"/></g>
<g><path style="opacity:1" fill="#508bde" d="M 274.5,603.5 C 273.134,606.232 271.801,608.899 270.5,611.5C 269.957,611.44 269.624,611.107 269.5,610.5C 270.667,608.167 271.833,605.833 273,603.5C 273.69,602.262 274.19,602.262 274.5,603.5 Z"/></g>
<g><path style="opacity:1" fill="#f74747" d="M 694.5,604.5 C 692.957,608.378 690.624,611.711 687.5,614.5C 687.062,614.565 686.728,614.399 686.5,614C 689.031,610.642 691.698,607.476 694.5,604.5 Z"/></g>
<g><path style="opacity:1" fill="#4885db" d="M 394.5,608.5 C 394.262,610.404 393.262,611.738 391.5,612.5C 390.693,610.285 391.693,608.951 394.5,608.5 Z"/></g>
<g><path style="opacity:1" fill="#f91f27" d="M 686.5,616.5 C 681.129,624.427 675.796,631.761 670.5,638.5C 670.058,637.769 669.891,636.769 670,635.5C 666.337,634.174 665.504,631.841 667.5,628.5C 669.799,629.138 671.966,630.138 674,631.5C 674.956,630.421 675.789,629.255 676.5,628C 675.275,625.223 674.775,622.056 675,618.5C 677.843,616.213 680.177,616.879 682,620.5C 683.093,618.651 684.426,616.984 686,615.5C 686.399,615.728 686.565,616.062 686.5,616.5 Z"/></g>
<g><path style="opacity:1" fill="#4088e2" d="M 1107.5,613.5 C 1108.79,619.531 1108.79,625.531 1107.5,631.5C 1106.17,625.5 1106.17,619.5 1107.5,613.5 Z"/></g>
<g><path style="opacity:1" fill="#6493dd" d="M 269.5,616.5 C 268.38,620.528 268.38,624.528 269.5,628.5C 268.206,626.952 267.539,624.952 267.5,622.5C 267.539,620.048 268.206,618.048 269.5,616.5 Z"/></g>
<g><path style="opacity:1" fill="#fa666f" d="M 563.5,626.5 C 563.573,628.027 562.906,629.027 561.5,629.5C 561.427,627.973 562.094,626.973 563.5,626.5 Z"/></g>
<g><path style="opacity:1" fill="#5a8fda" d="M 1003.5,626.5 C 1004.89,627.947 1004.55,628.947 1002.5,629.5C 1003.11,628.609 1003.44,627.609 1003.5,626.5 Z"/></g>
<g><path style="opacity:1" fill="#3272d6" d="M 498.5,621.5 C 495.607,627.388 491.94,632.722 487.5,637.5C 487.062,637.565 486.728,637.399 486.5,637C 488.719,635.111 489.553,632.944 489,630.5C 489.667,629.167 490.333,629.167 491,630.5C 493.364,627.31 495.864,624.31 498.5,621.5 Z"/></g>
<g><path style="opacity:1" fill="#fa606d" d="M 558.5,633.5 C 558.573,635.027 557.906,636.027 556.5,636.5C 556.427,634.973 557.094,633.973 558.5,633.5 Z"/></g>
<g><path style="opacity:1" fill="#518bdf" d="M 270.5,634.5 C 271.345,635.671 272.011,637.005 272.5,638.5C 271.624,638.631 270.957,638.298 270.5,637.5C 269.347,636.313 269.347,635.313 270.5,634.5 Z"/></g>
<g><path style="opacity:1" fill="#3a79dc" d="M 381.5,626.5 C 377.905,633.362 373.572,639.696 368.5,645.5C 368.389,644.883 368.056,644.383 367.5,644C 372,638.003 376.667,632.17 381.5,626.5 Z"/></g>
<g><path style="opacity:1" fill="#f9000b" d="M 553.5,638.5 C 552.833,637.167 552.833,637.167 553.5,638.5 Z"/></g>
<g><path style="opacity:1" fill="#4983db" d="M 486.5,639.5 C 485.396,641.389 484.063,643.055 482.5,644.5C 482.062,644.565 481.728,644.399 481.5,644C 482.701,643.097 483.535,641.931 484,640.5C 484.838,639.001 485.671,638.668 486.5,639.5 Z"/></g>
<g><path style="opacity:1" fill="#4482df" d="M 1001.5,635.5 C 1002.04,635.56 1002.38,635.893 1002.5,636.5C 1000.21,641.108 997.213,645.108 993.5,648.5C 995.857,643.966 998.523,639.632 1001.5,635.5 Z"/></g>
<g><path style="opacity:1" fill="#fa6266" d="M 550.5,644.5 C 550.573,646.027 549.906,647.027 548.5,647.5C 548.427,645.973 549.094,644.973 550.5,644.5 Z"/></g>
<g><path style="opacity:1" fill="#f93843" d="M 546.5,648.5 C 545.833,647.167 545.833,647.167 546.5,648.5 Z"/></g>
<g><path style="opacity:1" fill="#0c5dd4" d="M 365.5,398.5 C 369.167,399.833 372.833,399.833 376.5,398.5C 380.116,398.899 383.45,399.899 386.5,401.5C 388.942,403.226 391.609,404.726 394.5,406C 396.394,407.101 397.061,408.434 396.5,410C 398.247,410.352 399.914,410.852 401.5,411.5C 405.679,414.817 408.679,419.484 410.5,425.5C 409.167,425.5 407.833,425.5 406.5,425.5C 406.336,428.187 406.503,430.854 407,433.5C 408.716,434.552 409.716,433.886 410,431.5C 410.977,434.259 410.144,436.259 407.5,437.5C 406.28,436.289 405.113,436.289 404,437.5C 403.667,436.5 403.333,435.5 403,434.5C 401.548,435.907 401.715,437.407 403.5,439C 402.426,439.739 401.759,440.739 401.5,442C 403.055,445.561 405.388,448.561 408.5,451C 407.708,453.336 406.375,453.836 404.5,452.5C 403.77,453.934 402.77,455.1 401.5,456C 404.82,457.261 405.154,458.928 402.5,461C 403.167,461.333 403.833,461.667 404.5,462C 403.125,464.477 401.291,465.311 399,464.5C 398.873,466.559 399.039,468.226 399.5,469.5C 399.167,470.5 398.5,471.167 397.5,471.5C 397.565,471.062 397.399,470.728 397,470.5C 393.065,475.11 388.565,478.943 383.5,482C 384.451,482.718 384.617,483.551 384,484.5C 380.888,487.101 378.388,490.101 376.5,493.5C 376.167,494.5 375.5,495.167 374.5,495.5C 372.897,495.312 371.563,495.812 370.5,497C 370.833,497.333 371.167,497.667 371.5,498C 367.561,501.429 364.228,505.263 361.5,509.5C 360.2,512.432 358.2,514.766 355.5,516.5C 355.565,516.062 355.399,515.728 355,515.5C 351.558,518.432 348.725,521.765 346.5,525.5C 344.883,528.784 342.55,531.451 339.5,533.5C 339.565,533.062 339.399,532.728 339,532.5C 335.888,535.101 333.388,538.101 331.5,541.5C 331.167,542.5 330.5,543.167 329.5,543.5C 328.504,543.586 327.671,543.252 327,542.5C 324.904,543.715 325.071,544.549 327.5,545C 323.23,548.761 319.563,552.928 316.5,557.5C 314.906,560.764 312.573,563.431 309.5,565.5C 306.147,566.847 303.48,569.513 301.5,573.5C 301.262,575.404 300.262,576.738 298.5,577.5C 298.565,577.062 298.399,576.728 298,576.5C 294.065,581.11 289.565,584.943 284.5,588C 285.08,589.335 285.413,590.502 285.5,591.5C 284.833,592.833 283.833,593.833 282.5,594.5C 282.565,594.062 282.399,593.728 282,593.5C 279.833,595.667 277.667,597.833 275.5,600C 275.728,600.399 276.062,600.565 276.5,600.5C 276.068,601.71 275.401,602.71 274.5,603.5C 274.19,602.262 273.69,602.262 273,603.5C 271.833,605.833 270.667,608.167 269.5,610.5C 269.624,611.107 269.957,611.44 270.5,611.5C 270.371,613.216 270.038,614.883 269.5,616.5C 268.206,618.048 267.539,620.048 267.5,622.5C 267.539,624.952 268.206,626.952 269.5,628.5C 269.833,630.5 270.167,632.5 270.5,634.5C 269.347,635.313 269.347,636.313 270.5,637.5C 270.957,638.298 271.624,638.631 272.5,638.5C 276.695,646.366 282.362,653.033 289.5,658.5C 294.833,664.833 300.167,671.167 305.5,677.5C 308.134,681.83 311.801,685.83 316.5,689.5C 317.167,689.5 317.5,689.833 317.5,690.5C 320.134,694.83 323.801,698.83 328.5,702.5C 330.167,703.5 331.5,704.833 332.5,706.5C 333.438,709.157 335.438,711.49 338.5,713.5C 340.833,715.5 343.167,717.5 345.5,719.5C 354.23,728.891 362.563,738.558 370.5,748.5C 373.725,753.398 377.725,757.732 382.5,761.5C 386.241,764.237 389.241,767.57 391.5,771.5C 398.033,784.308 398.033,796.974 391.5,809.5C 388.081,813.979 384.414,818.312 380.5,822.5C 369.137,832.398 356.137,835.231 341.5,831C 336.99,829.582 332.99,827.415 329.5,824.5C 329.938,824.565 330.272,824.399 330.5,824C 328,821.5 325.5,819 323,816.5C 323.617,814.905 323.284,813.572 322,812.5C 321.667,812.833 321.333,813.167 321,813.5C 316.251,808.581 311.417,803.914 306.5,799.5C 303.514,794.848 299.847,790.848 295.5,787.5C 293.833,786.167 292.167,784.833 290.5,783.5C 286.126,779.128 282.126,774.461 278.5,769.5C 275.604,765.095 272.104,761.095 268,757.5C 264.028,752.361 259.528,747.694 254.5,743.5C 245.806,735.473 237.473,727.14 229.5,718.5C 222.247,710.237 214.913,701.904 207.5,693.5C 206.118,690.606 204.118,688.106 201.5,686C 202.641,685.259 202.641,684.425 201.5,683.5C 197.558,681.062 194.058,678.062 191,674.5C 190.601,674.728 190.435,675.062 190.5,675.5C 183.827,668.99 177.66,661.99 172,654.5C 164.867,640.801 162.034,626.635 163.5,612C 164.5,609.667 165.5,607.333 166.5,605C 165.944,604.617 165.611,604.117 165.5,603.5C 168.57,603.307 169.57,601.973 168.5,599.5C 173.519,588.062 181.186,578.062 191.5,569.5C 193.914,568.089 195.581,566.089 196.5,563.5C 199.92,559.755 203.253,556.088 206.5,552.5C 206.435,552.938 206.601,553.272 207,553.5C 208.802,552.211 209.969,550.544 210.5,548.5C 211.833,546.5 213.5,544.833 215.5,543.5C 218.903,541.1 221.57,538.1 223.5,534.5C 224.833,532.5 226.5,530.833 228.5,529.5C 234.538,524.463 239.871,518.797 244.5,512.5C 247.436,507.895 251.102,503.895 255.5,500.5C 258.243,498.761 260.243,496.427 261.5,493.5C 262.422,491.184 264.089,489.517 266.5,488.5C 270.847,485.152 274.514,481.152 277.5,476.5C 285.776,467.218 294.109,457.885 302.5,448.5C 303.167,448.5 303.5,448.167 303.5,447.5C 307.472,443.193 311.472,438.859 315.5,434.5C 317.167,433.167 318.833,431.833 320.5,430.5C 324.234,427.769 327.234,424.436 329.5,420.5C 330.527,418.816 331.527,417.149 332.5,415.5C 341.789,405.693 352.789,400.026 365.5,398.5 Z"/></g>
<g><path style="opacity:1" fill="#0050d4" d="M 289.5,657.5 C 290.833,658.167 290.833,658.167 289.5,657.5 Z"/></g>
<g><path style="opacity:1" fill="#326fda" d="M 717.5,658.5 C 716.833,657.167 716.833,657.167 717.5,658.5 Z"/></g>
<g><path style="opacity:1" fill="#427bdc" d="M 734.5,636.5 C 727.936,647.394 720.603,657.728 712.5,667.5C 713.913,664.339 715.58,661.339 717.5,658.5C 722.224,653.578 726.057,647.912 729,641.5C 730.839,639.799 732.673,638.132 734.5,636.5 Z"/></g>
<g><path style="opacity:1" fill="#4c7dde" d="M 364.5,657.5 C 365.3,662.17 365.966,667.004 366.5,672C 366.472,673.07 366.139,673.903 365.5,674.5C 363.506,668.906 363.173,663.24 364.5,657.5 Z"/></g>
<g><path style="opacity:1" fill="#f45f67" d="M 539.5,660.5 C 539.262,662.404 538.262,663.738 536.5,664.5C 536.738,662.596 537.738,661.262 539.5,660.5 Z"/></g>
<g><path style="opacity:1" fill="#f21f31" d="M 652.5,664.5 C 653.525,664.897 653.692,665.563 653,666.5C 652.536,665.906 652.369,665.239 652.5,664.5 Z"/></g>
<g><path style="opacity:1" fill="#487fdf" d="M 981.5,661.5 C 978.899,665.771 975.566,669.437 971.5,672.5C 974.101,668.229 977.434,664.563 981.5,661.5 Z"/></g>
<g><path style="opacity:1" fill="#ee565f" d="M 533.5,668.5 C 533.573,670.027 532.906,671.027 531.5,671.5C 531.427,669.973 532.094,668.973 533.5,668.5 Z"/></g>
<g><path style="opacity:1" fill="#3478da" d="M 1090.5,665.5 C 1084.47,671.86 1078.47,678.193 1072.5,684.5C 1072.06,684.565 1071.73,684.399 1071.5,684C 1074,681.5 1076.5,679 1079,676.5C 1081.87,672.595 1085.53,668.595 1090,664.5C 1090.4,664.728 1090.57,665.062 1090.5,665.5 Z"/></g>
<g><path style="opacity:1" fill="#4583da" d="M 968.5,675.5 C 967.969,677.544 966.802,679.211 965,680.5C 964.601,680.272 964.435,679.938 964.5,679.5C 965.5,677.833 966.833,676.5 968.5,675.5 Z"/></g>
<g><path style="opacity:1" fill="#4981e0" d="M 707.5,674.5 C 706.557,677.4 704.89,679.733 702.5,681.5C 703.511,679.628 704.345,677.628 705,675.5C 705.671,674.748 706.504,674.414 707.5,674.5 Z"/></g>
<g><path style="opacity:1" fill="#4585d8" d="M 459.5,676.5 C 458.249,680.003 456.249,683.003 453.5,685.5C 453.062,685.565 452.728,685.399 452.5,685C 454.698,681.977 457.031,679.144 459.5,676.5 Z"/></g>
<g><path style="opacity:1" fill="#fa5761" d="M 523.5,682.5 C 523.573,684.027 522.906,685.027 521.5,685.5C 521.427,683.973 522.094,682.973 523.5,682.5 Z"/></g>
<g><path style="opacity:1" fill="#4f85df" d="M 305.5,677.5 C 309.898,680.895 313.564,684.895 316.5,689.5C 311.801,685.83 308.134,681.83 305.5,677.5 Z"/></g>
<g><path style="opacity:1" fill="#3770d9" d="M 207.5,693.5 C 201.861,687.526 196.195,681.526 190.5,675.5C 190.435,675.062 190.601,674.728 191,674.5C 194.058,678.062 197.558,681.062 201.5,683.5C 202.641,684.425 202.641,685.259 201.5,686C 204.118,688.106 206.118,690.606 207.5,693.5 Z"/></g>
<g><path style="opacity:1" fill="#4780dd" d="M 961.5,683.5 C 958.564,688.105 954.898,692.105 950.5,695.5C 953.436,690.895 957.102,686.895 961.5,683.5 Z"/></g>
<g><path style="opacity:1" fill="#3e7dda" d="M 693.5,692.5 C 692.833,691.167 692.833,691.167 693.5,692.5 Z"/></g>
<g><path style="opacity:1" fill="#fa6366" d="M 515.5,693.5 C 515.573,695.027 514.906,696.027 513.5,696.5C 513.427,694.973 514.094,693.973 515.5,693.5 Z"/></g>
<g><path style="opacity:1" fill="#437de1" d="M 317.5,690.5 C 320.5,693.167 323.5,695.833 326.5,698.5C 327.6,699.605 328.267,700.938 328.5,702.5C 323.801,698.83 320.134,694.83 317.5,690.5 Z"/></g>
<g><path style="opacity:1" fill="#4b84d9" d="M 381.5,698.5 C 379.251,697.92 377.585,696.587 376.5,694.5C 378.478,694.738 380.145,696.071 381.5,698.5 Z"/></g>
<g><path style="opacity:1" fill="#0050d4" d="M 326.5,697.5 C 327.833,698.167 327.833,698.167 326.5,697.5 Z"/></g>
<g><path style="opacity:1" fill="#4b84e0" d="M 948.5,697.5 C 947.243,700.427 945.243,702.761 942.5,704.5C 943.757,701.573 945.757,699.239 948.5,697.5 Z"/></g>
<g><path style="opacity:1" fill="#3676d8" d="M 804.5,696.5 C 802.237,701.365 799.237,705.698 795.5,709.5C 795.062,709.565 794.728,709.399 794.5,709C 797.732,704.672 801.066,700.506 804.5,696.5 Z"/></g>
<g><path style="opacity:1" fill="#4586df" d="M 438.5,702.5 C 437.421,704.543 435.754,705.876 433.5,706.5C 434.539,704.469 436.205,703.136 438.5,702.5 Z"/></g>
<g><path style="opacity:1" fill="#f63b3d" d="M 513.5,696.5 C 511.7,698.828 510.533,701.495 510,704.5C 508.887,705.305 507.721,705.972 506.5,706.5C 507.851,702.458 510.185,699.125 513.5,696.5 Z"/></g>
<g><path style="opacity:1" fill="#1f66d5" d="M 432.5,706.5 C 428.288,709.056 423.622,710.39 418.5,710.5C 414.833,709.167 411.167,709.167 407.5,710.5C 400.064,710.134 393.397,707.8 387.5,703.5C 387.435,703.062 387.601,702.728 388,702.5C 394.456,706.127 401.123,706.46 408,703.5C 408.483,704.448 408.649,705.448 408.5,706.5C 412.011,705.411 415.511,705.411 419,706.5C 421.954,706.406 422.121,705.906 419.5,705C 421.218,704.654 422.885,704.154 424.5,703.5C 425.696,703.846 425.696,704.346 424.5,705C 425.899,705.595 427.232,705.428 428.5,704.5C 428.833,705.167 429.167,705.833 429.5,706.5C 430.687,705.347 431.687,705.347 432.5,706.5 Z"/></g>
<g><path style="opacity:1" fill="#fa5f69" d="M 506.5,706.5 C 506.262,708.404 505.262,709.738 503.5,710.5C 503.738,708.596 504.738,707.262 506.5,706.5 Z"/></g>
<g><path style="opacity:1" fill="#f9192a" d="M 620.5,708.5 C 621.833,709.167 621.833,709.167 620.5,708.5 Z"/></g>
<g><path style="opacity:1" fill="#4c84de" d="M 332.5,706.5 C 335.243,708.239 337.243,710.573 338.5,713.5C 335.438,711.49 333.438,709.157 332.5,706.5 Z"/></g>
<g><path style="opacity:1" fill="#4d84da" d="M 407.5,710.5 C 411.167,709.167 414.833,709.167 418.5,710.5C 414.935,711.787 411.268,711.787 407.5,710.5 Z"/></g>
<g><path style="opacity:1" fill="#4c84db" d="M 936.5,710.5 C 935.243,713.427 933.243,715.761 930.5,717.5C 931.81,714.527 933.81,712.193 936.5,710.5 Z"/></g>
<g><path style="opacity:1" fill="#397dda" d="M 1053.5,705.5 C 1050.17,709.5 1046.5,713.167 1042.5,716.5C 1045.4,712.095 1048.9,708.095 1053,704.5C 1053.4,704.728 1053.57,705.062 1053.5,705.5 Z"/></g>
<g><path style="opacity:1" fill="#0050d4" d="M 229.5,718.5 C 228.833,719.167 228.833,719.167 229.5,718.5 Z"/></g>
<g><path style="opacity:1" fill="#447de1" d="M 345.5,718.5 C 346.833,719.167 346.833,719.167 345.5,718.5 Z"/></g>
<g><path style="opacity:1" fill="#2e70d7" d="M 789.5,718.5 C 785.155,724.538 780.821,730.538 776.5,736.5C 776.062,736.565 775.728,736.399 775.5,736C 777.694,733.305 779.694,730.472 781.5,727.5C 781.154,726.304 780.654,726.304 780,727.5C 780.027,725.583 780.861,723.916 782.5,722.5C 783.086,722.709 783.586,723.043 784,723.5C 785.667,721.5 787.333,719.5 789,717.5C 789.399,717.728 789.565,718.062 789.5,718.5 Z"/></g>
<g><path style="opacity:1" fill="#4c82df" d="M 930.5,717.5 C 927.564,722.105 923.898,726.105 919.5,729.5C 922.436,724.895 926.102,720.895 930.5,717.5 Z"/></g>
<g><path style="opacity:1" fill="#fa2935" d="M 490.5,727.5 C 489.475,727.103 489.308,726.437 490,725.5C 490.464,726.094 490.631,726.761 490.5,727.5 Z"/></g>
<g><path style="opacity:1" fill="#f94450" d="M 487.5,731.5 C 486.833,731.5 486.5,731.833 486.5,732.5C 485.957,732.44 485.624,732.107 485.5,731.5C 486.257,730.227 486.923,730.227 487.5,731.5 Z"/></g>
<g><path style="opacity:1" fill="#4782e0" d="M 908.5,741.5 C 903.535,748.408 897.868,754.741 891.5,760.5C 896.465,753.592 902.132,747.259 908.5,741.5 Z"/></g>
<g><path style="opacity:1" fill="#3f7adc" d="M 254.5,743.5 C 259.528,747.694 264.028,752.361 268,757.5C 272.104,761.095 275.604,765.095 278.5,769.5C 274.833,766.167 271.167,762.833 267.5,759.5C 266.974,757.77 265.974,756.436 264.5,755.5C 260.767,751.773 257.434,747.773 254.5,743.5 Z"/></g>
<g><path style="opacity:1" fill="#0056d4" d="M 1012.5,750.5 C 1013.83,751.167 1013.83,751.167 1012.5,750.5 Z"/></g>
<g><path style="opacity:1" fill="#4489e1" d="M 1010.5,752.5 C 1011.83,753.167 1011.83,753.167 1010.5,752.5 Z"/></g>
<g><path style="opacity:1" fill="#387dda" d="M 1009.5,753.5 C 1009.83,753.5 1010.17,753.5 1010.5,753.5C 1010.31,754.17 1009.98,754.17 1009.5,753.5 Z"/></g>
<g><path style="opacity:1" fill="#3476d6" d="M 772.5,742.5 C 766.065,751.716 759.399,760.716 752.5,769.5C 753.557,767.059 754.89,764.725 756.5,762.5C 754.868,762.238 753.701,763.238 753,765.5C 752.583,762.716 753.75,760.716 756.5,759.5C 757.425,760.641 758.259,760.641 759,759.5C 762.667,754.167 766.333,748.833 770,743.5C 770.838,742.001 771.671,741.668 772.5,742.5 Z"/></g>
<g><path style="opacity:1" fill="#327cda" d="M 1008.5,754.5 C 1008.83,754.5 1009.17,754.5 1009.5,754.5C 1009.31,755.17 1008.98,755.17 1008.5,754.5 Z"/></g>
<g><path style="opacity:1" fill="#1263d4" d="M 264.5,755.5 C 263.833,756.167 263.833,756.167 264.5,755.5 Z"/></g>
<g><path style="opacity:1" fill="#3578dd" d="M 370.5,748.5 C 375.258,752.253 379.258,756.586 382.5,761.5C 377.725,757.732 373.725,753.398 370.5,748.5 Z"/></g>
<g><path style="opacity:1" fill="#2b75da" d="M 1007.5,755.5 C 1007.83,755.5 1008.17,755.5 1008.5,755.5C 1008.31,756.17 1007.98,756.17 1007.5,755.5 Z"/></g>
<g><path style="opacity:1" fill="#326fda" d="M 1006.5,756.5 C 1006.83,756.5 1007.17,756.5 1007.5,756.5C 1007.31,757.17 1006.98,757.17 1006.5,756.5 Z"/></g>
<g><path style="opacity:1" fill="#1f69da" d="M 1005.5,757.5 C 1005.83,757.5 1006.17,757.5 1006.5,757.5C 1006.31,758.17 1005.98,758.17 1005.5,757.5 Z"/></g>
<g><path style="opacity:1" fill="#fa232e" d="M 467.5,759.5 C 466.475,759.103 466.308,758.437 467,757.5C 467.464,758.094 467.631,758.761 467.5,759.5 Z"/></g>
<g><path style="opacity:1" fill="#0050ce" d="M 267.5,759.5 C 266.833,760.167 266.833,760.167 267.5,759.5 Z"/></g>
<g><path style="opacity:1" fill="#f2384a" d="M 581.5,762.5 C 582.833,763.167 582.833,763.167 581.5,762.5 Z"/></g>
<g><path style="opacity:1" fill="#f9323d" d="M 462.5,766.5 C 461.833,765.167 461.833,765.167 462.5,766.5 Z"/></g>
<g><path style="opacity:1" fill="#4c89e2" d="M 643.5,762.5 C 644.231,765.047 643.231,767.047 640.5,768.5C 641.471,766.517 642.471,764.517 643.5,762.5 Z"/></g>
<g><path style="opacity:1" fill="#3574d9" d="M 1002.5,759.5 C 998.539,765.129 993.873,770.129 988.5,774.5C 990.725,770.765 993.558,767.432 997,764.5C 996.512,760.828 998.345,759.161 1002.5,759.5 Z"/></g>
<g><path style="opacity:1" fill="#0c5cce" d="M 391.5,770.5 C 392.833,771.167 392.833,771.167 391.5,770.5 Z"/></g>
<g><path style="opacity:1" fill="#fa2c31" d="M 574.5,770.5 C 573.529,772.483 572.529,774.483 571.5,776.5C 570.833,776.5 570.5,776.833 570.5,777.5C 569.662,777.842 569.328,778.508 569.5,779.5C 567.1,781.296 565.433,783.63 564.5,786.5C 563.833,786.5 563.5,786.833 563.5,787.5C 561.808,789.205 560.475,791.205 559.5,793.5C 558.833,793.5 558.5,793.833 558.5,794.5C 557.833,794.833 557.167,795.167 556.5,795.5C 558.397,792.053 560.563,788.72 563,785.5C 563.626,783.287 563.459,781.12 562.5,779C 562.82,777.347 563.82,776.347 565.5,776C 565.167,775.667 564.833,775.333 564.5,775C 565.572,773.716 566.905,773.383 568.5,774C 569.362,771.266 570.195,771.099 571,773.5C 572.039,772.29 573.206,771.29 574.5,770.5 Z"/></g>
<g><path style="opacity:1" fill="#5796e7" d="M 750.5,774.5 C 751.833,775.167 751.833,775.167 750.5,774.5 Z"/></g>
<g><path style="opacity:1" fill="#2b75e1" d="M 749.5,775.5 C 749.833,775.5 750.167,775.5 750.5,775.5C 750.315,776.17 749.981,776.17 749.5,775.5 Z"/></g>
<g><path style="opacity:1" fill="#f21f31" d="M 571.5,776.5 C 572.833,777.167 572.833,777.167 571.5,776.5 Z"/></g>
<g><path style="opacity:1" fill="#f91224" d="M 570.5,777.5 C 570.833,777.5 571.167,777.5 571.5,777.5C 571.315,778.17 570.981,778.17 570.5,777.5 Z"/></g>
<g><path style="opacity:1" fill="#f94b56" d="M 569.5,779.5 C 570.833,780.167 570.833,780.167 569.5,779.5 Z"/></g>
<g><path style="opacity:1" fill="#3c7cdc" d="M 987.5,775.5 C 987.267,777.062 986.6,778.395 985.5,779.5C 984.833,779.5 984.5,779.833 984.5,780.5C 983.833,780.5 983.5,780.833 983.5,781.5C 982.833,781.5 982.5,781.833 982.5,782.5C 981.833,782.5 981.5,782.833 981.5,783.5C 980.833,783.5 980.5,783.833 980.5,784.5C 979.833,784.5 979.5,784.833 979.5,785.5C 978.833,785.5 978.5,785.833 978.5,786.5C 977.167,787.5 975.833,788.5 974.5,789.5C 978.105,784.226 982.438,779.559 987.5,775.5 Z"/></g>
<g><path style="opacity:1" fill="#0056ce" d="M 985.5,779.5 C 986.833,780.167 986.833,780.167 985.5,779.5 Z"/></g>
<g><path style="opacity:1" fill="#4b89e1" d="M 984.5,780.5 C 984.833,780.5 985.167,780.5 985.5,780.5C 985.315,781.17 984.981,781.17 984.5,780.5 Z"/></g>
<g><path style="opacity:1" fill="#3e83e1" d="M 745.5,781.5 C 746.833,782.167 746.833,782.167 745.5,781.5 Z"/></g>
<g><path style="opacity:1" fill="#4b89e1" d="M 983.5,781.5 C 983.833,781.5 984.167,781.5 984.5,781.5C 984.315,782.17 983.981,782.17 983.5,781.5 Z"/></g>
<g><path style="opacity:1" fill="#3e83e1" d="M 982.5,782.5 C 982.833,782.5 983.167,782.5 983.5,782.5C 983.315,783.17 982.981,783.17 982.5,782.5 Z"/></g>
<g><path style="opacity:1" fill="#1f69d4" d="M 290.5,783.5 C 289.833,784.167 289.833,784.167 290.5,783.5 Z"/></g>
<g><path style="opacity:1" fill="#327ce1" d="M 981.5,783.5 C 981.833,783.5 982.167,783.5 982.5,783.5C 982.315,784.17 981.981,784.17 981.5,783.5 Z"/></g>
<g><path style="opacity:1" fill="#2575da" d="M 980.5,784.5 C 980.833,784.5 981.167,784.5 981.5,784.5C 981.315,785.17 980.981,785.17 980.5,784.5 Z"/></g>
<g><path style="opacity:1" fill="#256fda" d="M 979.5,785.5 C 979.833,785.5 980.167,785.5 980.5,785.5C 980.315,786.17 979.981,786.17 979.5,785.5 Z"/></g>
<g><path style="opacity:1" fill="#f94b56" d="M 564.5,786.5 C 565.833,787.167 565.833,787.167 564.5,786.5 Z"/></g>
<g><path style="opacity:1" fill="#1f6fd4" d="M 978.5,786.5 C 978.833,786.5 979.167,786.5 979.5,786.5C 979.315,787.17 978.981,787.17 978.5,786.5 Z"/></g>
<g><path style="opacity:1" fill="#f91f31" d="M 563.5,787.5 C 563.833,787.5 564.167,787.5 564.5,787.5C 564.315,788.17 563.981,788.17 563.5,787.5 Z"/></g>
<g><path style="opacity:1" fill="#0056da" d="M 298.5,792.5 C 297.833,793.167 297.833,793.167 298.5,792.5 Z"/></g>
<g><path style="opacity:1" fill="#f9384a" d="M 559.5,793.5 C 560.833,794.167 560.833,794.167 559.5,793.5 Z"/></g>
<g><path style="opacity:1" fill="#3e7ad9" d="M 295.5,787.5 C 299.847,790.848 303.514,794.848 306.5,799.5C 304.833,798.167 303.167,796.833 301.5,795.5C 300.833,794.167 299.833,793.167 298.5,792.5C 297.248,790.999 296.248,789.332 295.5,787.5 Z"/></g>
<g><path style="opacity:1" fill="#f9192a" d="M 558.5,794.5 C 558.833,794.5 559.167,794.5 559.5,794.5C 559.315,795.17 558.981,795.17 558.5,794.5 Z"/></g>
<g><path style="opacity:1" fill="#387dda" d="M 301.5,795.5 C 300.833,796.167 300.833,796.167 301.5,795.5 Z"/></g>
<g><path style="opacity:1" fill="#3477db" d="M 972.5,792.5 C 969.833,795.833 966.833,798.833 963.5,801.5C 965.725,797.765 968.558,794.432 972,791.5C 972.399,791.728 972.565,792.062 972.5,792.5 Z"/></g>
<g><path style="opacity:1" fill="#4785e3" d="M 735.5,794.5 C 732.975,798.896 729.975,802.896 726.5,806.5C 726.062,806.565 725.728,806.399 725.5,806C 728.388,802.778 730.888,799.278 733,795.5C 733.838,794.001 734.671,793.668 735.5,794.5 Z"/></g>
<g><path style="opacity:1" fill="#f9515c" d="M 551.5,804.5 C 552.833,805.167 552.833,805.167 551.5,804.5 Z"/></g>
<g><path style="opacity:1" fill="#4483e1" d="M 725.5,809.5 C 726.833,810.167 726.833,810.167 725.5,809.5 Z"/></g>
<g><path style="opacity:1" fill="#196fda" d="M 391.5,811.5 C 392.833,812.167 392.833,812.167 391.5,811.5 Z"/></g>
<g><path style="opacity:1" fill="#f9383d" d="M 545.5,812.5 C 546.833,813.167 546.833,813.167 545.5,812.5 Z"/></g>
<g><path style="opacity:1" fill="#3a75d7" d="M 306.5,799.5 C 311.417,803.914 316.251,808.581 321,813.5C 321.333,813.167 321.667,812.833 322,812.5C 323.284,813.572 323.617,814.905 323,816.5C 325.5,819 328,821.5 330.5,824C 330.272,824.399 329.938,824.565 329.5,824.5C 328.833,824.167 328.167,823.833 327.5,823.5C 320.478,815.48 313.478,807.48 306.5,799.5 Z"/></g>
<g><path style="opacity:1" fill="#f91224" d="M 544.5,813.5 C 544.833,813.5 545.167,813.5 545.5,813.5C 545.167,816.167 544.833,816.167 544.5,813.5 Z"/></g>
<g><path style="opacity:1" fill="#4985d9" d="M 881.5,811.5 C 883.218,813.223 884.551,815.223 885.5,817.5C 882.956,816.292 881.622,814.292 881.5,811.5 Z"/></g>
<g><path style="opacity:1" fill="#3f7ade" d="M 957.5,808.5 C 955.167,811.167 952.833,813.833 950.5,816.5C 949.167,817.833 947.833,819.167 946.5,820.5C 943.814,819.012 944.147,818.345 947.5,818.5C 950.014,814.47 953.181,810.804 957,807.5C 957.399,807.728 957.565,808.062 957.5,808.5 Z"/></g>
<g><path style="opacity:1" fill="#1263d4" d="M 950.5,816.5 C 951.833,817.167 951.833,817.167 950.5,816.5 Z"/></g>
<g><path style="opacity:1" fill="#f4494d" d="M 543.5,813.5 C 542.241,817.025 540.241,820.025 537.5,822.5C 537.062,822.565 536.728,822.399 536.5,822C 538.698,818.977 541.031,816.144 543.5,813.5 Z"/></g>
<g><path style="opacity:1" fill="#498ce2" d="M 391.5,809.5 C 391.5,810.167 391.5,810.833 391.5,811.5C 390.167,811.833 390.167,812.167 391.5,812.5C 388.489,816.509 384.823,819.842 380.5,822.5C 384.414,818.312 388.081,813.979 391.5,809.5 Z"/></g>
<g><path style="opacity:1" fill="#3275d4" d="M 327.5,823.5 C 326.833,824.167 326.833,824.167 327.5,823.5 Z"/></g>
<g><path style="opacity:1" fill="#518ee2" d="M 942.5,823.5 C 939.378,826.568 935.711,828.902 931.5,830.5C 931.369,829.624 931.702,828.957 932.5,828.5C 935.886,826.807 939.22,825.14 942.5,823.5 Z"/></g>
<g><path style="opacity:1" fill="#5286df" d="M 598.5,827.5 C 597.588,829.595 596.421,831.595 595,833.5C 594.31,834.738 593.81,834.738 593.5,833.5C 594.443,830.891 596.11,828.891 598.5,827.5 Z"/></g>
<g><path style="opacity:1" fill="#598adb" d="M 911.5,832.5 C 915.167,831.167 918.833,831.167 922.5,832.5C 918.85,833.728 915.184,833.728 911.5,832.5 Z"/></g>
<g><path style="opacity:1" fill="#3d7ede" d="M 712.5,826.5 C 709.975,830.896 706.975,834.896 703.5,838.5C 703.062,838.565 702.728,838.399 702.5,838C 705.388,834.778 707.888,831.278 710,827.5C 710.838,826.001 711.671,825.668 712.5,826.5 Z"/></g>
<g><path style="opacity:1" fill="#f95156" d="M 528.5,836.5 C 529.833,837.167 529.833,837.167 528.5,836.5 Z"/></g>
<g><path style="opacity:1" fill="#fa292f" d="M 530.5,831.5 C 529.833,833.167 529.167,834.833 528.5,836.5C 527.167,836.833 527.167,837.167 528.5,837.5C 528.573,839.027 527.906,840.027 526.5,840.5C 526.167,839.167 525.833,839.167 525.5,840.5C 521.833,845.167 518.167,849.833 514.5,854.5C 514.062,854.565 513.728,854.399 513.5,854C 514.956,852.255 516.289,850.422 517.5,848.5C 516.312,848.693 514.978,848.193 513.5,847C 514.669,844.993 515.335,842.827 515.5,840.5C 517.308,840.491 518.975,840.991 520.5,842C 518.071,842.451 517.904,843.285 520,844.5C 523.519,840.097 527.019,835.763 530.5,831.5 Z"/></g>
<g><path style="opacity:1" fill="#f93843" d="M 525.5,840.5 C 525.833,840.5 526.167,840.5 526.5,840.5C 526.315,841.17 525.981,841.17 525.5,840.5 Z"/></g>
<g><path style="opacity:1" fill="#4184e2" d="M 702.5,840.5 C 700.066,844.382 697.399,848.048 694.5,851.5C 694.062,851.565 693.728,851.399 693.5,851C 696.037,848.094 698.204,844.927 700,841.5C 700.838,840.001 701.671,839.668 702.5,840.5 Z"/></g>
<g><path style="opacity:1" fill="#5186dc" d="M 582.5,849.5 C 581.928,851.255 581.094,852.922 580,854.5C 579.31,855.738 578.81,855.738 578.5,854.5C 579.124,852.246 580.457,850.579 582.5,849.5 Z"/></g>
<g><path style="opacity:1" fill="#5285df" d="M 576.5,857.5 C 576.937,859.595 575.937,861.262 573.5,862.5C 574.11,860.566 575.11,858.899 576.5,857.5 Z"/></g>
<g><path style="opacity:1" fill="#3877db" d="M 692.5,854.5 C 688.188,861.13 683.521,867.463 678.5,873.5C 678.062,873.565 677.728,873.399 677.5,873C 680.167,869.333 682.833,865.667 685.5,862C 684.549,861.282 684.383,860.449 685,859.5C 685.667,858.167 686.333,858.167 687,859.5C 688.667,857.5 690.333,855.5 692,853.5C 692.399,853.728 692.565,854.062 692.5,854.5 Z"/></g>
<g><path style="opacity:1" fill="#407fe0" d="M 568.5,869.5 C 566.251,873.598 563.751,877.598 561,881.5C 560.31,882.738 559.81,882.738 559.5,881.5C 561.762,876.91 564.762,872.91 568.5,869.5 Z"/></g>
<g><path style="opacity:1" fill="#fa3435" d="M 505.5,866.5 C 501.251,875.034 495.584,882.367 488.5,888.5C 490.581,886.578 490.581,884.411 488.5,882C 490,880.5 491.5,879 493,877.5C 493.604,879.686 494.77,879.852 496.5,878C 499.158,873.825 502.158,869.992 505.5,866.5 Z"/></g>
<g><path style="opacity:1" fill="#f7343a" d="M 417.5,874.5 C 420.176,878.468 423.343,882.135 427,885.5C 427.915,884.672 428.581,883.672 429,882.5C 429.833,883.333 430.667,884.167 431.5,885C 429.193,886.828 429.526,888.494 432.5,890C 432.272,890.399 431.938,890.565 431.5,890.5C 425.034,886.703 420.367,881.37 417.5,874.5 Z"/></g>
<g><path style="opacity:1" fill="#3c7ad8" d="M 672.5,882.5 C 667.522,890.137 662.188,897.47 656.5,904.5C 656.062,904.565 655.728,904.399 655.5,904C 660.456,897.254 665.29,890.421 670,883.5C 670.838,882.001 671.671,881.668 672.5,882.5 Z"/></g>
<g><path style="opacity:1" fill="#fa3336" d="M 475.5,896.5 C 471.761,898.102 467.761,899.102 463.5,899.5C 464.348,897.907 465.681,896.74 467.5,896C 464.258,895.717 463.924,894.883 466.5,893.5C 469.732,894.133 472.732,895.133 475.5,896.5 Z"/></g>
<g><path style="opacity:1" fill="#437ad7" d="M 553.5,890.5 C 551.023,894.778 548.523,899.112 546,903.5C 545.329,904.252 544.496,904.586 543.5,904.5C 543.577,903.25 544.244,902.417 545.5,902C 544.366,900.984 544.699,900.317 546.5,900C 545.655,898.442 546.321,897.442 548.5,897C 548.167,896.667 547.833,896.333 547.5,896C 549.417,893.878 551.417,892.045 553.5,890.5 Z"/></g>
<g><path style="opacity:1" fill="#246cd8" d="M 637.5,931.5 C 633.066,938.049 628.399,944.383 623.5,950.5C 621.324,949.287 620.991,947.62 622.5,945.5C 622.154,944.304 621.654,944.304 621,945.5C 620.333,944.167 620.333,942.833 621,941.5C 622,941.167 623,940.833 624,940.5C 625,941.5 626,942.5 627,943.5C 629.911,940.01 632.578,936.344 635,932.5C 635.838,931.001 636.671,930.668 637.5,931.5 Z"/></g>
<g><path style="opacity:1" fill="#5083d6" d="M 580.5,969.5 C 584.5,968.167 588.5,968.167 592.5,969.5C 588.723,969.772 584.723,969.772 580.5,969.5 Z"/></g>
</svg>
