<?xml version="1.0" encoding="UTF-8"?>
<!DOCTYPE svg PUBLIC "-//W3C//DTD SVG 1.1//EN" "http://www.w3.org/Graphics/SVG/1.1/DTD/svg11.dtd">
<svg xmlns="http://www.w3.org/2000/svg" version="1.1" width="1998px" height="787px" style="shape-rendering:geometricPrecision; text-rendering:geometricPrecision; image-rendering:optimizeQuality; fill-rule:evenodd; clip-rule:evenodd" xmlns:xlink="http://www.w3.org/1999/xlink">
<g><path style="opacity:1" fill="#1256ce" d="M 364.5,435.5 C 359.594,432.93 355.261,429.596 351.5,425.5C 348.16,418.067 347.66,410.401 350,402.5C 381.28,359.391 413.113,316.725 445.5,274.5C 452.32,266.197 458.653,257.53 464.5,248.5C 478.799,230.593 492.632,212.26 506,193.5C 518.353,181.505 530.686,181.505 543,193.5C 548.564,202.963 548.897,212.63 544,222.5C 493.333,289.833 442.667,357.167 392,424.5C 385.051,433.897 375.884,437.563 364.5,435.5 Z"/></g>
<g><path style="opacity:1" fill="#1256ce" d="M 1191.5,254.5 C 1190.17,255.167 1190.17,255.833 1191.5,256.5C 1191.33,257.492 1191.66,258.158 1192.5,258.5C 1192.92,261.354 1193.92,264.021 1195.5,266.5C 1190.95,267.99 1186.28,269.156 1181.5,270C 1185.03,271.785 1188.36,271.619 1191.5,269.5C 1192.79,270.098 1194.13,270.598 1195.5,271C 1202.5,271.667 1209.5,271.667 1216.5,271C 1214.97,269.113 1212.97,268.113 1210.5,268C 1210.83,267.667 1211.17,267.333 1211.5,267C 1209.72,266.186 1208.22,265.019 1207,263.5C 1205.98,264.706 1205.48,264.373 1205.5,262.5C 1209.79,257.697 1213.96,252.697 1218,247.5C 1220.04,244.757 1221.54,241.757 1222.5,238.5C 1226.14,232.116 1229.3,225.449 1232,218.5C 1239.68,220.53 1247.51,221.863 1255.5,222.5C 1255.31,226.064 1254.31,229.397 1252.5,232.5C 1253,232.833 1253.5,233.167 1254,233.5C 1254.67,232.833 1255.33,232.167 1256,231.5C 1273.7,233.456 1291.54,234.123 1309.5,233.5C 1309.5,240.167 1309.5,246.833 1309.5,253.5C 1299.76,253.639 1290.09,253.806 1280.5,254C 1281.46,255.419 1282.29,256.919 1283,258.5C 1283.33,257.833 1283.67,257.167 1284,256.5C 1284.78,258.286 1285.95,259.786 1287.5,261C 1286.38,261.249 1285.38,261.749 1284.5,262.5C 1285.62,263.914 1286.62,265.414 1287.5,267C 1281.98,268.325 1276.32,269.325 1270.5,270C 1276.47,270.963 1282.47,271.463 1288.5,271.5C 1288.18,298.241 1288.51,324.908 1289.5,351.5C 1286.33,354.498 1283,357.331 1279.5,360C 1275.27,361.29 1270.94,361.79 1266.5,361.5C 1266.5,364.833 1266.5,368.167 1266.5,371.5C 1281.5,371.333 1296.5,371.5 1311.5,372C 1311.96,372.414 1312.29,372.914 1312.5,373.5C 1311.79,379.774 1311.46,385.941 1311.5,392C 1296.5,392.5 1281.5,392.667 1266.5,392.5C 1266.5,403.167 1266.5,413.833 1266.5,424.5C 1257.48,424.832 1248.48,424.498 1239.5,423.5C 1240.49,413.269 1240.82,402.936 1240.5,392.5C 1221.82,392.167 1203.15,392.5 1184.5,393.5C 1174.42,414.538 1157.75,425.538 1134.5,426.5C 1132.42,421.334 1129.59,416.667 1126,412.5C 1125.33,411.5 1125.33,410.5 1126,409.5C 1132.29,407.775 1138.46,405.608 1144.5,403C 1145.94,402.623 1146.94,401.79 1147.5,400.5C 1150.9,398.612 1153.9,396.112 1156.5,393C 1141.5,392.5 1126.5,392.333 1111.5,392.5C 1111.33,385.748 1111.66,378.915 1112.5,372C 1128.83,371.5 1145.16,371.333 1161.5,371.5C 1161.5,368.167 1161.5,364.833 1161.5,361.5C 1153.17,361.5 1144.83,361.5 1136.5,361.5C 1136.67,331.831 1136.5,302.165 1136,272.5C 1132.66,274.516 1129.32,276.516 1126,278.5C 1121.97,274.967 1117.8,271.634 1113.5,268.5C 1112.71,267.206 1111.71,266.039 1110.5,265C 1117.64,258.865 1124.47,252.365 1131,245.5C 1136.39,236.72 1141.22,227.72 1145.5,218.5C 1153.1,220.23 1160.77,221.73 1168.5,223C 1168.96,223.414 1169.29,223.914 1169.5,224.5C 1168.17,227.167 1166.83,229.833 1165.5,232.5C 1180.82,233.499 1196.15,233.833 1211.5,233.5C 1211.5,240.167 1211.5,246.833 1211.5,253.5C 1204.65,253.176 1197.98,253.509 1191.5,254.5 Z M 1153.5,253.5 C 1157.83,253.5 1162.17,253.5 1166.5,253.5C 1167.53,257.243 1168.87,260.91 1170.5,264.5C 1170.17,265.167 1169.83,265.833 1169.5,266.5C 1169.85,267.696 1170.35,267.696 1171,266.5C 1171.98,267.759 1172.32,269.092 1172,270.5C 1160.58,271.654 1149.08,271.82 1137.5,271C 1142.35,266.635 1147.18,262.135 1152,257.5C 1152.79,256.255 1153.29,254.922 1153.5,253.5 Z M 1241.5,253.5 C 1246.54,253.173 1251.54,253.506 1256.5,254.5C 1259.13,259.558 1261.46,264.725 1263.5,270C 1261.89,270.089 1260.72,269.255 1260,267.5C 1259.52,268.448 1259.35,269.448 1259.5,270.5C 1248.79,271.87 1238.12,271.704 1227.5,270C 1233.15,265.195 1237.82,259.695 1241.5,253.5 Z M 1162.5,289.5 C 1195.17,289.333 1227.84,289.5 1260.5,290C 1259.29,290.893 1259.29,291.726 1260.5,292.5C 1262.09,288.692 1263.09,289.025 1263.5,293.5C 1263.17,294.5 1262.83,295.5 1262.5,296.5C 1261.15,294.816 1259.48,294.316 1257.5,295C 1257.83,295.333 1258.17,295.667 1258.5,296C 1226.17,296.5 1193.84,296.667 1161.5,296.5C 1161.3,294.05 1161.63,291.717 1162.5,289.5 Z M 1161.5,313.5 C 1195.5,313.5 1229.5,313.5 1263.5,313.5C 1263.79,315.288 1263.45,316.955 1262.5,318.5C 1260.78,317.339 1259.11,317.505 1257.5,319C 1259.5,319.333 1261.5,319.667 1263.5,320C 1229.36,320.268 1195.36,320.434 1161.5,320.5C 1161.5,318.167 1161.5,315.833 1161.5,313.5 Z M 1161.5,336.5 C 1195.5,336.5 1229.5,336.5 1263.5,336.5C 1263.76,338.792 1263.42,340.959 1262.5,343C 1253.48,343.283 1244.48,343.783 1235.5,344.5C 1211.24,343.563 1186.91,343.563 1162.5,344.5C 1161.52,341.914 1161.19,339.247 1161.5,336.5 Z M 1187.5,361.5 C 1205.17,361.5 1222.83,361.5 1240.5,361.5C 1240.17,364.833 1239.83,368.167 1239.5,371.5C 1222.17,371.5 1204.83,371.5 1187.5,371.5C 1187.5,368.167 1187.5,364.833 1187.5,361.5 Z"/></g>
<g><path style="opacity:1" fill="#1256ce" d="M 948.5,253.5 C 948.953,254.458 949.619,255.292 950.5,256C 943.333,261.833 936.167,267.667 929,273.5C 925.968,269.641 922.802,265.974 919.5,262.5C 912.841,254.174 905.507,246.508 897.5,239.5C 896.2,238.399 895.7,237.066 896,235.5C 902.344,230.486 908.678,225.486 915,220.5C 917.489,222.319 919.989,224.152 922.5,226C 931.005,235.338 939.672,244.505 948.5,253.5 Z"/></g>
<g><path style="opacity:1" fill="#1256ce" d="M 1004.5,221.5 C 1013.17,221.5 1021.83,221.5 1030.5,221.5C 1030.51,242.451 1030.68,263.451 1031,284.5C 1047.88,285.281 1065.04,285.781 1082.5,286C 1083.48,294.081 1083.82,302.248 1083.5,310.5C 1066.17,310.5 1048.83,310.5 1031.5,310.5C 1030.81,347.965 1030.81,385.465 1031.5,423C 1022.67,424.47 1013.67,424.97 1004.5,424.5C 1003.89,386.596 1003.89,348.596 1004.5,310.5C 986.167,310.5 967.833,310.5 949.5,310.5C 949.184,302.248 949.518,294.081 950.5,286C 966.407,285.825 982.241,285.325 998,284.5C 999.822,284.968 1001.99,285.301 1004.5,285.5C 1004.44,264.06 1004.44,242.726 1004.5,221.5 Z"/></g>
<g><path style="opacity:1" fill="#1256ce" d="M 1411.5,358.5 C 1412.69,362.224 1414.86,365.224 1418,367.5C 1418.62,368.449 1418.45,369.282 1417.5,370C 1421.96,377.097 1426.8,383.93 1432,390.5C 1431.14,394.253 1429.64,397.919 1427.5,401.5C 1427.83,401.833 1428.17,402.167 1428.5,402.5C 1429.9,401.479 1431.23,400.479 1432.5,399.5C 1433.17,399.5 1433.5,399.167 1433.5,398.5C 1451.18,386.966 1463.01,370.966 1469,350.5C 1469.84,348.179 1470.17,345.845 1470,343.5C 1469.67,344.167 1469.33,344.833 1469,345.5C 1466.93,344.736 1464.76,344.236 1462.5,344C 1465.66,344.053 1468.16,342.886 1470,340.5C 1470.33,341.167 1470.67,341.833 1471,342.5C 1471.79,339.529 1472.46,336.529 1473,333.5C 1474.34,311.19 1474.84,288.856 1474.5,266.5C 1482.92,265.554 1491.09,265.554 1499,266.5C 1499.67,286.5 1499.67,306.5 1499,326.5C 1498.48,332.56 1497.65,338.56 1496.5,344.5C 1495.96,344.56 1495.62,344.893 1495.5,345.5C 1499.45,346.491 1503.45,346.824 1507.5,346.5C 1507.33,363.837 1507.5,381.17 1508,398.5C 1513.67,400.423 1519.5,400.923 1525.5,400C 1526.42,399.722 1527.08,399.222 1527.5,398.5C 1528.79,397.158 1529.63,395.491 1530,393.5C 1530.5,390.183 1530.67,386.85 1530.5,383.5C 1537.82,384.261 1545.16,384.927 1552.5,385.5C 1553.61,396.539 1551.61,406.872 1546.5,416.5C 1543.14,419.572 1539.14,421.406 1534.5,422C 1522.83,422.667 1511.17,422.667 1499.5,422C 1491.63,421.128 1486.47,416.961 1484,409.5C 1483.67,399.833 1483.33,390.167 1483,380.5C 1477.72,389.922 1471.55,398.588 1464.5,406.5C 1462.97,406.427 1461.97,407.094 1461.5,408.5C 1452.34,415.581 1442.67,421.915 1432.5,427.5C 1430.51,425.334 1428.67,423.001 1427,420.5C 1426.09,421.654 1425.25,421.487 1424.5,420C 1425.17,419.667 1425.83,419.333 1426.5,419C 1413.99,406.106 1403.32,391.939 1394.5,376.5C 1394.3,380.35 1392.47,381.35 1389,379.5C 1381.69,397.151 1370.85,412.317 1356.5,425C 1355.83,425.667 1355.17,425.667 1354.5,425C 1351.66,420.999 1348.33,417.499 1344.5,414.5C 1342.98,412.814 1341.65,410.981 1340.5,409C 1341.65,407.019 1342.98,405.186 1344.5,403.5C 1349.13,399.568 1352.8,394.901 1355.5,389.5C 1367.7,371.891 1374.37,352.224 1375.5,330.5C 1366.59,330.679 1357.59,331.012 1348.5,331.5C 1348.5,323.5 1348.5,315.5 1348.5,307.5C 1358.17,307.5 1367.83,307.5 1377.5,307.5C 1377.5,296.833 1377.5,286.167 1377.5,275.5C 1368.83,275.5 1360.17,275.5 1351.5,275.5C 1351.5,267.833 1351.5,260.167 1351.5,252.5C 1360.17,252.5 1368.83,252.5 1377.5,252.5C 1377.5,242.5 1377.5,232.5 1377.5,222.5C 1385.83,222.5 1394.17,222.5 1402.5,222.5C 1402.5,232.5 1402.5,242.5 1402.5,252.5C 1410.84,252.334 1419.17,252.5 1427.5,253C 1427.28,257.577 1427.78,262.077 1429,266.5C 1429.87,265.127 1430.37,263.627 1430.5,262C 1429.75,259.846 1429.58,257.68 1430,255.5C 1431.01,256.337 1432.18,256.67 1433.5,256.5C 1433.46,259.91 1433.96,263.243 1435,266.5C 1435.83,258.479 1435.66,250.479 1434.5,242.5C 1431.16,241.336 1431.16,239.669 1434.5,237.5C 1435.48,234.914 1435.81,232.247 1435.5,229.5C 1469.39,229.175 1503.23,229.175 1537,229.5C 1537.5,271.832 1537.67,314.165 1537.5,356.5C 1529.2,357.349 1520.87,357.349 1512.5,356.5C 1512.5,321.833 1512.5,287.167 1512.5,252.5C 1494.83,252.5 1477.17,252.5 1459.5,252.5C 1459.51,287.435 1459.51,322.102 1459.5,356.5C 1451.5,356.5 1443.5,356.5 1435.5,356.5C 1435.67,327.165 1435.5,297.831 1435,268.5C 1434.98,271.308 1433.98,273.641 1432,275.5C 1430.26,274.284 1429.26,272.618 1429,270.5C 1427.73,271.905 1427.23,273.571 1427.5,275.5C 1419.17,275.5 1410.83,275.5 1402.5,275.5C 1402.5,286.167 1402.5,296.833 1402.5,307.5C 1411.51,307.334 1420.51,307.5 1429.5,308C 1430.83,315.328 1430.83,322.828 1429.5,330.5C 1420.5,330.5 1411.5,330.5 1402.5,330.5C 1402.39,334.247 1402.89,337.914 1404,341.5C 1405.82,347.164 1408.32,352.831 1411.5,358.5 Z M 1394.5,376.5 C 1392.94,375.709 1391.61,375.376 1390.5,375.5C 1391.7,369.321 1393.04,369.655 1394.5,376.5 Z"/></g>
<g><path style="opacity:1" fill="#1256ce" d="M 1777.5,411.5 C 1776.66,411.842 1776.33,412.508 1776.5,413.5C 1773.12,418.373 1768.45,421.539 1762.5,423C 1750.55,424.391 1738.55,424.891 1726.5,424.5C 1725.3,416.479 1723.96,408.479 1722.5,400.5C 1731.51,400.666 1740.51,400.5 1749.5,400C 1750.42,399.722 1751.08,399.222 1751.5,398.5C 1752.94,396.46 1753.94,394.127 1754.5,391.5C 1754.14,335.399 1753.81,279.065 1753.5,222.5C 1762.17,222.5 1770.83,222.5 1779.5,222.5C 1779.67,282.501 1779.5,342.501 1779,402.5C 1778.5,405.513 1778,408.513 1777.5,411.5 Z"/></g>
<g><path style="opacity:1" fill="#1256ce" d="M 1589.5,229.5 C 1624.07,229.171 1658.57,229.504 1693,230.5C 1692.72,274.722 1692.55,319.389 1692.5,364.5C 1684.52,365.276 1676.52,365.61 1668.5,365.5C 1667.94,327.5 1667.94,290 1668.5,253C 1665.83,252.833 1663.17,252.667 1660.5,252.5C 1644.98,252.516 1629.48,252.516 1614,252.5C 1613.67,289.833 1613.33,327.167 1613,364.5C 1605.25,365.482 1597.42,365.815 1589.5,365.5C 1589.5,320.167 1589.5,274.833 1589.5,229.5 Z"/></g>
<g><path style="opacity:1" fill="#1256ce" d="M 1212.5,235.5 C 1213.57,236.251 1213.74,237.251 1213,238.5C 1212.52,237.552 1212.35,236.552 1212.5,235.5 Z"/></g>
<g><path style="opacity:1" fill="#1256ce" d="M 1222.5,238.5 C 1221.47,238.103 1221.31,237.437 1222,236.5C 1222.46,237.094 1222.63,237.761 1222.5,238.5 Z"/></g>
<g><path style="opacity:1" fill="#ec1f24" d="M 491.5,429.5 C 489.738,430.262 488.738,431.596 488.5,433.5C 464.53,464.983 440.697,496.649 417,528.5C 403.705,542.785 390.038,543.118 376,529.5C 370.079,520.483 370.079,511.483 376,502.5C 416.086,449.316 455.919,395.982 495.5,342.5C 503.136,333.355 510.636,324.021 518,314.5C 535.716,289.121 554.549,264.621 574.5,241C 589.487,234.202 601.32,237.702 610,251.5C 613.458,260.253 612.458,268.586 607,276.5C 567.996,327.201 529.496,378.201 491.5,429.5 Z"/></g>
<g><path style="opacity:1" fill="#1256ce" d="M 897.5,239.5 C 896.833,240.167 896.833,240.167 897.5,239.5 Z"/></g>
<g><path style="opacity:1" fill="#1256ce" d="M 1587.5,240.5 C 1588.83,241.167 1588.83,241.167 1587.5,240.5 Z"/></g>
<g><path style="opacity:1" fill="#1256ce" d="M 1711.5,241.5 C 1717.69,241.383 1723.86,241.716 1730,242.5C 1731.98,242.629 1733.65,243.296 1735,244.5C 1735.67,288.167 1735.67,331.833 1735,375.5C 1726.92,376.482 1718.75,376.816 1710.5,376.5C 1710.44,342.003 1710.44,307.67 1710.5,273.5C 1710.33,269.833 1710.17,266.167 1710,262.5C 1709.63,261.584 1709.13,260.75 1708.5,260C 1710.03,257.243 1710.69,254.243 1710.5,251C 1710.42,248.375 1709.75,246.041 1708.5,244C 1709.57,243.148 1710.57,242.315 1711.5,241.5 Z"/></g>
<g><path style="opacity:1" fill="#1256ce" d="M 1215.5,244.5 C 1216.25,243.427 1217.25,243.26 1218.5,244C 1217.65,245.728 1216.65,245.895 1215.5,244.5 Z"/></g>
<g><path style="opacity:1" fill="#1256ce" d="M 1780.5,245.5 C 1781.83,246.167 1781.83,246.167 1780.5,245.5 Z"/></g>
<g><path style="opacity:1" fill="#1256ce" d="M 1538.5,246.5 C 1539.83,247.167 1539.83,247.167 1538.5,246.5 Z"/></g>
<g><path style="opacity:1" fill="#1256ce" d="M 464.5,248.5 C 463.833,247.167 463.833,247.167 464.5,248.5 Z"/></g>
<g><path style="opacity:1" fill="#1256ce" d="M 947.5,248.5 C 948.833,249.167 948.833,249.167 947.5,248.5 Z"/></g>
<g><path style="opacity:1" fill="#1256ce" d="M 948.5,252.5 C 949.833,253.167 949.833,253.167 948.5,252.5 Z"/></g>
<g><path style="opacity:1" fill="#1256ce" d="M 1461.5,254.5 C 1461.9,253.475 1462.56,253.308 1463.5,254C 1462.91,254.464 1462.24,254.631 1461.5,254.5 Z"/></g>
<g><path style="opacity:1" fill="#1256ce" d="M 1509.5,253.5 C 1510.53,253.897 1510.69,254.563 1510,255.5C 1509.54,254.906 1509.37,254.239 1509.5,253.5 Z"/></g>
<g><path style="opacity:1" fill="#1256ce" d="M 1191.5,254.5 C 1193.93,255.548 1193.93,256.214 1191.5,256.5C 1191.5,255.833 1191.5,255.167 1191.5,254.5 Z"/></g>
<g><path style="opacity:1" fill="#1256ce" d="M 1540.5,256.5 C 1541.57,257.251 1541.74,258.251 1541,259.5C 1540.52,258.552 1540.35,257.552 1540.5,256.5 Z"/></g>
<g><path style="opacity:1" fill="#1256ce" d="M 1192.5,257.5 C 1193.83,258.167 1193.83,258.167 1192.5,257.5 Z"/></g>
<g><path style="opacity:1" fill="#1256ce" d="M 1538.5,258.5 C 1539.83,259.167 1539.83,259.167 1538.5,258.5 Z"/></g>
<g><path style="opacity:1" fill="#1256ce" d="M 916.5,260.5 C 917.833,261.167 917.833,261.167 916.5,260.5 Z"/></g>
<g><path style="opacity:1" fill="#1256ce" d="M 1203.5,261.5 C 1204.83,262.167 1204.83,262.167 1203.5,261.5 Z"/></g>
<g><path style="opacity:1" fill="#1256ce" d="M 919.5,262.5 C 918.833,263.167 918.833,263.167 919.5,262.5 Z"/></g>
<g><path style="opacity:1" fill="#1256ce" d="M 1108.5,264.5 C 1109.83,265.167 1109.83,265.167 1108.5,264.5 Z"/></g>
<g><path style="opacity:1" fill="#1256ce" d="M 1461.5,265.5 C 1461.9,264.475 1462.56,264.308 1463.5,265C 1462.91,265.464 1462.24,265.631 1461.5,265.5 Z"/></g>
<g><path style="opacity:1" fill="#1256ce" d="M 1510.5,264.5 C 1511.57,265.251 1511.74,266.251 1511,267.5C 1510.52,266.552 1510.35,265.552 1510.5,264.5 Z"/></g>
<g><path style="opacity:1" fill="#1256ce" d="M 1664.5,371.5 C 1668.13,378.07 1673.13,383.403 1679.5,387.5C 1686.22,394.558 1693.56,400.892 1701.5,406.5C 1697.4,411.041 1694.07,416.041 1691.5,421.5C 1690.12,422.574 1688.95,423.907 1688,425.5C 1683.29,421.946 1678.45,418.613 1673.5,415.5C 1668.16,410.157 1662.49,405.157 1656.5,400.5C 1654.06,397.271 1651.39,394.271 1648.5,391.5C 1647.88,389.246 1646.54,387.579 1644.5,386.5C 1642.82,381.445 1641.49,381.445 1640.5,386.5C 1628.22,404.601 1612.05,418.267 1592,427.5C 1589.75,425.377 1587.75,423.044 1586,420.5C 1585.72,415.931 1583.72,411.931 1580,408.5C 1579.52,407.552 1579.35,406.552 1579.5,405.5C 1591.21,400.975 1601.21,393.975 1609.5,384.5C 1619.31,373.763 1625.31,360.597 1627.5,345C 1627.41,342.046 1626.91,341.879 1626,344.5C 1625.37,342.365 1625.7,340.365 1627,338.5C 1627.33,339.167 1627.67,339.833 1628,340.5C 1628.5,315.502 1628.67,290.502 1628.5,265.5C 1637.17,265.5 1645.83,265.5 1654.5,265.5C 1654.67,288.169 1654.5,310.836 1654,333.5C 1653.81,341.656 1652.64,349.656 1650.5,357.5C 1652.17,358.167 1653.83,358.833 1655.5,359.5C 1658.03,363.926 1661.03,367.926 1664.5,371.5 Z M 1644.5,386.5 C 1643.04,385.595 1641.7,385.595 1640.5,386.5C 1641.49,381.445 1642.82,381.445 1644.5,386.5 Z"/></g>
<g><path style="opacity:1" fill="#1256ce" d="M 343.5,489.5 C 342.662,489.842 342.328,490.508 342.5,491.5C 334.996,500.112 325.663,503.112 314.5,500.5C 309.064,496.24 303.731,491.74 298.5,487C 294.276,482.041 289.943,477.207 285.5,472.5C 264.672,451.494 243.506,429.827 222,407.5C 215.981,396.086 216.148,384.753 222.5,373.5C 255.327,339.839 287.994,306.006 320.5,272C 330.381,265.74 340.048,266.073 349.5,273C 357.315,281.662 358.481,291.162 353,301.5C 328.055,327.113 303.055,352.78 278,378.5C 272.886,385.419 272.22,392.752 276,400.5C 298.444,422.609 320.444,444.942 342,467.5C 346.065,474.583 346.565,481.917 343.5,489.5 Z"/></g>
<g><path style="opacity:1" fill="#1256ce" d="M 1113.5,268.5 C 1112.83,269.167 1112.83,269.167 1113.5,268.5 Z"/></g>
<g><path style="opacity:1" fill="#1256ce" d="M 1470.5,269.5 C 1471.83,270.167 1471.83,270.167 1470.5,269.5 Z"/></g>
<g><path style="opacity:1" fill="#1256ce" d="M 922.5,270.5 C 923.833,271.167 923.833,271.167 922.5,270.5 Z"/></g>
<g><path style="opacity:1" fill="#1256ce" d="M 445.5,274.5 C 444.833,273.167 444.833,273.167 445.5,274.5 Z"/></g>
<g><path style="opacity:1" fill="#1256ce" d="M 1349.5,273.5 C 1350.83,274.167 1350.83,274.167 1349.5,273.5 Z"/></g>
<g><path style="opacity:1" fill="#1256ce" d="M 1472.5,273.5 C 1473.63,275.966 1473.8,278.633 1473,281.5C 1472.55,279.481 1471.72,277.648 1470.5,276C 1471.38,275.292 1472.05,274.458 1472.5,273.5 Z"/></g>
<g><path style="opacity:1" fill="#1256ce" d="M 354.5,278.5 C 355.386,277.224 356.386,277.224 357.5,278.5C 356.451,281.045 355.451,281.045 354.5,278.5 Z"/></g>
<g><path style="opacity:1" fill="#1256ce" d="M 1626.5,277.5 C 1627.83,278.167 1627.83,278.167 1626.5,277.5 Z"/></g>
<g><path style="opacity:1" fill="#1256ce" d="M 1461.5,279.5 C 1462.6,280.601 1462.76,281.934 1462,283.5C 1461.51,282.207 1461.34,280.873 1461.5,279.5 Z"/></g>
<g><path style="opacity:1" fill="#1256ce" d="M 1472.5,282.5 C 1473.83,283.167 1473.83,283.167 1472.5,282.5 Z"/></g>
<g><path style="opacity:1" fill="#1256ce" d="M 671.5,289.5 C 675.112,293.779 679.112,297.779 683.5,301.5C 684.167,302.833 685.167,303.833 686.5,304.5C 690.494,309.494 694.827,314.16 699.5,318.5C 700.5,320.167 701.833,321.5 703.5,322.5C 717.767,338.269 732.6,353.602 748,368.5C 759.791,384.677 759.125,400.343 746,415.5C 728.322,432.678 711.156,450.344 694.5,468.5C 693.167,469.167 692.167,470.167 691.5,471.5C 686.222,477.114 680.889,482.781 675.5,488.5C 674.833,488.5 674.5,488.833 674.5,489.5C 673.833,489.5 673.5,489.833 673.5,490.5C 672.833,490.5 672.5,490.833 672.5,491.5C 660.422,503.976 647.755,504.642 634.5,493.5C 634.5,492.833 634.167,492.5 633.5,492.5C 633.5,491.833 633.167,491.5 632.5,491.5C 628.27,483.211 628.77,475.211 634,467.5C 654.971,445.528 676.305,423.861 698,402.5C 703.534,395.42 703.867,388.087 699,380.5C 680.694,362.194 662.36,343.86 644,325.5C 640.846,322.348 638.513,318.681 637,314.5C 636.977,308.453 636.144,302.953 634.5,298C 639.097,296.486 643.097,293.486 646.5,289C 650.326,287.267 654.326,286.101 658.5,285.5C 663.097,286.083 667.431,287.416 671.5,289.5 Z"/></g>
<g><path style="opacity:1" fill="#1256ce" d="M 957.5,393.5 C 955.77,394.026 954.436,395.026 953.5,396.5C 951.77,397.026 950.436,398.026 949.5,399.5C 942.446,403.687 935.779,408.353 929.5,413.5C 926.865,414.811 924.531,416.478 922.5,418.5C 919.86,419.993 917.193,421.16 914.5,422C 911.024,416.211 907.691,410.377 904.5,404.5C 906.771,396.165 907.771,387.665 907.5,379C 907.355,360.582 907.355,342.082 907.5,323.5C 906.721,318.887 906.221,314.22 906,309.5C 905.517,310.448 905.351,311.448 905.5,312.5C 902.402,312.587 902.068,312.087 904.5,311C 903.128,310.598 901.795,310.098 900.5,309.5C 893.637,310.819 886.803,310.819 880,309.5C 879.5,301.507 879.334,293.507 879.5,285.5C 897.167,285.5 914.833,285.5 932.5,285.5C 932.333,317.168 932.5,348.835 933,380.5C 932.93,377.733 933.93,375.066 936,372.5C 936.333,374.167 936.667,375.833 937,377.5C 945.847,371.075 954.514,364.409 963,357.5C 966.639,364.902 969.806,372.569 972.5,380.5C 972.471,382.029 971.804,383.196 970.5,384C 965.744,386.699 961.411,389.866 957.5,393.5 Z"/></g>
<g><path style="opacity:1" fill="#1256ce" d="M 877.5,287.5 C 878.634,289.966 878.801,292.633 878,295.5C 877.503,292.854 877.336,290.187 877.5,287.5 Z"/></g>
<g><path style="opacity:1" fill="#1256ce" d="M 933.5,287.5 C 934.649,287.791 935.316,288.624 935.5,290C 935.333,290.833 935.167,291.667 935,292.5C 933.991,290.975 933.491,289.308 933.5,287.5 Z"/></g>
<g><path style="opacity:1" fill="#1256ce" d="M 671.5,288.5 C 672.833,289.167 672.833,289.167 671.5,288.5 Z"/></g>
<g><path style="opacity:1" fill="#1256ce" d="M 683.5,300.5 C 684.833,301.167 684.833,301.167 683.5,300.5 Z"/></g>
<g><path style="opacity:1" fill="#1256ce" d="M 934.5,300.5 C 935.833,301.167 935.833,301.167 934.5,300.5 Z"/></g>
<g><path style="opacity:1" fill="#1256ce" d="M 1084.5,300.5 C 1085.61,301.946 1085.78,303.613 1085,305.5C 1084.51,303.866 1084.34,302.199 1084.5,300.5 Z"/></g>
<g><path style="opacity:1" fill="#1256ce" d="M 1500.5,300.5 C 1501.53,300.897 1501.69,301.563 1501,302.5C 1500.54,301.906 1500.37,301.239 1500.5,300.5 Z"/></g>
<g><path style="opacity:1" fill="#1256ce" d="M 686.5,303.5 C 687.833,304.167 687.833,304.167 686.5,303.5 Z"/></g>
<g><path style="opacity:1" fill="#1256ce" d="M 933.5,304.5 C 934.267,305.172 934.934,306.005 935.5,307C 934.411,310.264 934.244,313.764 935,317.5C 933.633,313.3 933.133,308.967 933.5,304.5 Z"/></g>
<g><path style="opacity:1" fill="#1256ce" d="M 1371.5,306.5 C 1372.25,305.427 1373.25,305.26 1374.5,306C 1373.55,306.483 1372.55,306.649 1371.5,306.5 Z"/></g>
<g><path style="opacity:1" fill="#1256ce" d="M 1403.5,305.5 C 1404.83,306.167 1404.83,306.167 1403.5,305.5 Z"/></g>
<g><path style="opacity:1" fill="#1256ce" d="M 1430.5,306.5 C 1430.9,305.475 1431.56,305.308 1432.5,306C 1431.91,306.464 1431.24,306.631 1430.5,306.5 Z"/></g>
<g><path style="opacity:1" fill="#1256ce" d="M 1433.5,311.5 C 1434.83,312.167 1434.83,312.167 1433.5,311.5 Z"/></g>
<g><path style="opacity:1" fill="#1256ce" d="M 411.5,314.5 C 412.833,315.167 412.833,315.167 411.5,314.5 Z"/></g>
<g><path style="opacity:1" fill="#1256ce" d="M 904.5,315.5 C 905.525,315.897 905.692,316.563 905,317.5C 904.536,316.906 904.369,316.239 904.5,315.5 Z"/></g>
<g><path style="opacity:1" fill="#1256ce" d="M 699.5,317.5 C 700.833,318.167 700.833,318.167 699.5,317.5 Z"/></g>
<g><path style="opacity:1" fill="#1256ce" d="M 904.5,318.5 C 905.525,318.897 905.692,319.563 905,320.5C 904.536,319.906 904.369,319.239 904.5,318.5 Z"/></g>
<g><path style="opacity:1" fill="#1256ce" d="M 703.5,321.5 C 704.833,322.167 704.833,322.167 703.5,321.5 Z"/></g>
<g><path style="opacity:1" fill="#1256ce" d="M 1346.5,321.5 C 1347.83,322.167 1347.83,322.167 1346.5,321.5 Z"/></g>
<g><path style="opacity:1" fill="#1256ce" d="M 933.5,323.5 C 934.598,324.601 934.765,325.934 934,327.5C 933.51,326.207 933.343,324.873 933.5,323.5 Z"/></g>
<g><path style="opacity:1" fill="#1256ce" d="M 1461.5,324.5 C 1462.64,327.304 1462.8,330.304 1462,333.5C 1461.5,330.518 1461.34,327.518 1461.5,324.5 Z"/></g>
<g><path style="opacity:1" fill="#1256ce" d="M 1471.5,324.5 C 1472.53,324.897 1472.69,325.563 1472,326.5C 1471.54,325.906 1471.37,325.239 1471.5,324.5 Z"/></g>
<g><path style="opacity:1" fill="#1256ce" d="M 933.5,328.5 C 934.833,329.167 934.833,329.167 933.5,328.5 Z"/></g>
<g><path style="opacity:1" fill="#1256ce" d="M 935.5,329.5 C 936.525,329.897 936.692,330.563 936,331.5C 935.536,330.906 935.369,330.239 935.5,329.5 Z"/></g>
<g><path style="opacity:1" fill="#1256ce" d="M 1499.5,330.5 C 1503.03,331.297 1503.2,332.297 1500,333.5C 1499.52,332.552 1499.35,331.552 1499.5,330.5 Z"/></g>
<g><path style="opacity:1" fill="#1256ce" d="M 935.5,332.5 C 936.525,332.897 936.692,333.563 936,334.5C 935.536,333.906 935.369,333.239 935.5,332.5 Z"/></g>
<g><path style="opacity:1" fill="#1256ce" d="M 1371.5,333.5 C 1371.9,332.475 1372.56,332.308 1373.5,333C 1372.91,333.464 1372.24,333.631 1371.5,333.5 Z"/></g>
<g><path style="opacity:1" fill="#1256ce" d="M 1433.5,335.5 C 1434.79,337.364 1434.79,339.364 1433.5,341.5C 1433.14,339.345 1433.14,337.345 1433.5,335.5 Z"/></g>
<g><path style="opacity:1" fill="#1256ce" d="M 1462.5,336.5 C 1463.53,336.897 1463.69,337.563 1463,338.5C 1462.54,337.906 1462.37,337.239 1462.5,336.5 Z"/></g>
<g><path style="opacity:1" fill="#1256ce" d="M 392.5,341.5 C 393.833,342.167 393.833,342.167 392.5,341.5 Z"/></g>
<g><path style="opacity:1" fill="#ec1f24" d="M 495.5,342.5 C 494.833,341.167 494.833,341.167 495.5,342.5 Z"/></g>
<g><path style="opacity:1" fill="#1256ce" d="M 935.5,343.5 C 936.833,344.167 936.833,344.167 935.5,343.5 Z"/></g>
<g><path style="opacity:1" fill="#1256ce" d="M 1496.5,344.5 C 1497.65,343.105 1498.65,343.272 1499.5,345C 1498.25,345.74 1497.25,345.573 1496.5,344.5 Z"/></g>
<g><path style="opacity:1" fill="#1256ce" d="M 904.5,346.5 C 905.833,347.167 905.833,347.167 904.5,346.5 Z"/></g>
<g><path style="opacity:1" fill="#1256ce" d="M 1508.5,346.5 C 1509.5,346.5 1510.5,346.5 1511.5,346.5C 1511.5,349.833 1511.5,353.167 1511.5,356.5C 1510.5,356.5 1509.5,356.5 1508.5,356.5C 1508.5,353.167 1508.5,349.833 1508.5,346.5 Z"/></g>
<g><path style="opacity:1" fill="#1256ce" d="M 1653.5,346.5 C 1654.53,346.897 1654.69,347.563 1654,348.5C 1653.54,347.906 1653.37,347.239 1653.5,346.5 Z"/></g>
<g><path style="opacity:1" fill="#1256ce" d="M 933.5,347.5 C 934.117,347.611 934.617,347.944 935,348.5C 935.667,351.833 935.667,355.167 935,358.5C 933.585,355.042 933.085,351.375 933.5,347.5 Z"/></g>
<g><path style="opacity:1" fill="#1256ce" d="M 1622.5,347.5 C 1623.83,348.167 1623.83,348.167 1622.5,347.5 Z"/></g>
<g><path style="opacity:1" fill="#1256ce" d="M 1461.5,349.5 C 1464.06,351.417 1464.56,353.75 1463,356.5C 1461.65,354.406 1461.15,352.073 1461.5,349.5 Z"/></g>
<g><path style="opacity:1" fill="#1256ce" d="M 1622.5,349.5 C 1623.83,350.167 1623.83,350.167 1622.5,349.5 Z"/></g>
<g><path style="opacity:1" fill="#1256ce" d="M 542.5,494.5 C 538.147,499.527 534.147,504.86 530.5,510.5C 513.444,532.921 496.61,555.587 480,578.5C 469.826,590.777 457.993,592.944 444.5,585C 436.321,577.454 433.821,568.287 437,557.5C 483.565,494.266 530.898,431.6 579,369.5C 580.167,367.667 581.333,365.833 582.5,364C 581.833,363.667 581.167,363.333 580.5,363C 585.167,359.667 589.833,356.333 594.5,353C 610.585,348.458 621.419,353.958 627,369.5C 628.209,375.886 627.209,381.886 624,387.5C 596.234,422.759 569.067,458.426 542.5,494.5 Z"/></g>
<g><path style="opacity:1" fill="#1256ce" d="M 1289.5,351.5 C 1290.83,352.167 1290.83,352.167 1289.5,351.5 Z"/></g>
<g><path style="opacity:1" fill="#1256ce" d="M 1587.5,351.5 C 1588.57,352.251 1588.74,353.251 1588,354.5C 1587.52,353.552 1587.35,352.552 1587.5,351.5 Z"/></g>
<g><path style="opacity:1" fill="#1256ce" d="M 904.5,352.5 C 905.833,353.167 905.833,353.167 904.5,352.5 Z"/></g>
<g><path style="opacity:1" fill="#1256ce" d="M 1369.5,352.5 C 1370.83,353.167 1370.83,353.167 1369.5,352.5 Z"/></g>
<g><path style="opacity:1" fill="#1256ce" d="M 617.5,353.5 C 618.833,354.167 618.833,354.167 617.5,353.5 Z"/></g>
<g><path style="opacity:1" fill="#1256ce" d="M 1653.5,355.5 C 1654.76,355.461 1655.76,355.961 1656.5,357C 1655.17,357.667 1653.83,357.667 1652.5,357C 1653.06,356.617 1653.39,356.117 1653.5,355.5 Z"/></g>
<g><path style="opacity:1" fill="#1256ce" d="M 1411.5,357.5 C 1412.83,358.167 1412.83,358.167 1411.5,357.5 Z"/></g>
<g><path style="opacity:1" fill="#1256ce" d="M 231.5,360.5 C 231.897,359.475 232.563,359.308 233.5,360C 232.906,360.464 232.239,360.631 231.5,360.5 Z"/></g>
<g><path style="opacity:1" fill="#1256ce" d="M 904.5,361.5 C 905.833,362.167 905.833,362.167 904.5,361.5 Z"/></g>
<g><path style="opacity:1" fill="#1256ce" d="M 933.5,362.5 C 934.622,364.288 934.789,366.288 934,368.5C 933.505,366.527 933.338,364.527 933.5,362.5 Z"/></g>
<g><path style="opacity:1" fill="#1256ce" d="M 904.5,364.5 C 904.897,363.475 905.563,363.308 906.5,364C 905.906,364.464 905.239,364.631 904.5,364.5 Z"/></g>
<g><path style="opacity:1" fill="#1256ce" d="M 1458.5,366.5 C 1459.53,366.897 1459.69,367.563 1459,368.5C 1458.54,367.906 1458.37,367.239 1458.5,366.5 Z"/></g>
<g><path style="opacity:1" fill="#1256ce" d="M 935.5,368.5 C 936.833,369.167 936.833,369.167 935.5,368.5 Z"/></g>
<g><path style="opacity:1" fill="#1256ce" d="M 1157.5,368.5 C 1158.83,369.167 1158.83,369.167 1157.5,368.5 Z"/></g>
<g><path style="opacity:1" fill="#1256ce" d="M 1159.5,368.5 C 1160.83,369.167 1160.83,369.167 1159.5,368.5 Z"/></g>
<g><path style="opacity:1" fill="#1256ce" d="M 1508.5,369.5 C 1509.65,374.316 1509.82,379.316 1509,384.5C 1508.5,379.511 1508.33,374.511 1508.5,369.5 Z"/></g>
<g><path style="opacity:1" fill="#1256ce" d="M 1664.5,371.5 C 1664.78,370.711 1665.28,370.044 1666,369.5C 1666.53,370.816 1666.03,371.483 1664.5,371.5 Z"/></g>
<g><path style="opacity:1" fill="#1256ce" d="M 222.5,373.5 C 221.833,372.167 221.833,372.167 222.5,373.5 Z"/></g>
<g><path style="opacity:1" fill="#1256ce" d="M 221.5,373.5 C 220.833,374.167 220.833,374.167 221.5,373.5 Z"/></g>
<g><path style="opacity:1" fill="#1256ce" d="M 1780.5,373.5 C 1781.83,374.167 1781.83,374.167 1780.5,373.5 Z"/></g>
<g><path style="opacity:1" fill="#1256ce" d="M 754.5,375.5 C 755.833,376.167 755.833,376.167 754.5,375.5 Z"/></g>
<g><path style="opacity:1" fill="#1256ce" d="M 215.5,379.5 C 216.573,380.251 216.74,381.251 216,382.5C 215.517,381.552 215.351,380.552 215.5,379.5 Z"/></g>
<g><path style="opacity:1" fill="#1256ce" d="M 1427.5,380.5 C 1428.83,381.167 1428.83,381.167 1427.5,380.5 Z"/></g>
<g><path style="opacity:1" fill="#1256ce" d="M 758.5,383.5 C 759.833,384.167 759.833,384.167 758.5,383.5 Z"/></g>
<g><path style="opacity:1" fill="#1256ce" d="M 1609.5,384.5 C 1608.83,383.167 1608.83,383.167 1609.5,384.5 Z"/></g>
<g><path style="opacity:1" fill="#1256ce" d="M 1676.5,383.5 C 1677.83,384.167 1677.83,384.167 1676.5,383.5 Z"/></g>
<g><path style="opacity:1" fill="#1256ce" d="M 1644.5,386.5 C 1643.06,390.439 1641.73,390.439 1640.5,386.5C 1641.7,385.595 1643.04,385.595 1644.5,386.5 Z"/></g>
<g><path style="opacity:1" fill="#1256ce" d="M 903.5,387.5 C 904.251,386.427 905.251,386.26 906.5,387C 905.552,387.483 904.552,387.649 903.5,387.5 Z"/></g>
<g><path style="opacity:1" fill="#1256ce" d="M 1679.5,386.5 C 1680.83,387.167 1680.83,387.167 1679.5,386.5 Z"/></g>
<g><path style="opacity:1" fill="#ec1f24" d="M 523.5,387.5 C 524.833,388.167 524.833,388.167 523.5,387.5 Z"/></g>
<g><path style="opacity:1" fill="#1256ce" d="M 1354.5,388.5 C 1353.83,387.167 1353.83,387.167 1354.5,388.5 Z"/></g>
<g><path style="opacity:1" fill="#1256ce" d="M 1481.5,387.5 C 1482.96,393.453 1482.96,395.787 1481.5,394.5C 1479.57,394.769 1477.9,394.269 1476.5,393C 1478.42,391.25 1480.09,389.417 1481.5,387.5 Z"/></g>
<g><path style="opacity:1" fill="#1256ce" d="M 1354.5,388.5 C 1355.17,388.5 1355.5,388.833 1355.5,389.5C 1355.17,389.167 1354.83,388.833 1354.5,388.5 Z"/></g>
<g><path style="opacity:1" fill="#1256ce" d="M 758.5,391.5 C 759.833,392.167 759.833,392.167 758.5,391.5 Z"/></g>
<g><path style="opacity:1" fill="#1256ce" d="M 1648.5,391.5 C 1647.83,392.167 1647.83,392.167 1648.5,391.5 Z"/></g>
<g><path style="opacity:1" fill="#1256ce" d="M 1638.5,392.5 C 1639.83,393.167 1639.83,393.167 1638.5,392.5 Z"/></g>
<g><path style="opacity:1" fill="#1256ce" d="M 957.5,393.5 C 958.239,393.369 958.906,393.536 959.5,394C 958.563,394.692 957.897,394.525 957.5,393.5 Z"/></g>
<g><path style="opacity:1" fill="#1256ce" d="M 1235.5,394.5 C 1235.9,393.475 1236.56,393.308 1237.5,394C 1236.91,394.464 1236.24,394.631 1235.5,394.5 Z"/></g>
<g><path style="opacity:1" fill="#1256ce" d="M 1267.5,393.5 C 1269.65,393.696 1269.81,394.696 1268,396.5C 1267.52,395.552 1267.35,394.552 1267.5,393.5 Z"/></g>
<g><path style="opacity:1" fill="#1256ce" d="M 1348.5,393.5 C 1349.83,394.167 1349.83,394.167 1348.5,393.5 Z"/></g>
<g><path style="opacity:1" fill="#1256ce" d="M 904.5,394.5 C 905.833,395.167 905.833,395.167 904.5,394.5 Z"/></g>
<g><path style="opacity:1" fill="#1256ce" d="M 1527.5,398.5 C 1526.45,398.649 1525.45,398.483 1524.5,398C 1525.67,397.5 1526.5,396.667 1527,395.5C 1527.48,396.448 1527.65,397.448 1527.5,398.5 Z"/></g>
<g><path style="opacity:1" fill="#1256ce" d="M 953.5,396.5 C 954.833,397.167 954.833,397.167 953.5,396.5 Z"/></g>
<g><path style="opacity:1" fill="#ec1f24" d="M 450.5,397.5 C 451.833,398.167 451.833,398.167 450.5,397.5 Z"/></g>
<g><path style="opacity:1" fill="#1256ce" d="M 1433.5,398.5 C 1432.83,398.5 1432.5,398.833 1432.5,399.5C 1431.62,399.631 1430.96,399.298 1430.5,398.5C 1431.61,397.224 1432.61,397.224 1433.5,398.5 Z"/></g>
<g><path style="opacity:1" fill="#1256ce" d="M 1751.5,398.5 C 1750.83,397.167 1750.83,397.167 1751.5,398.5 Z"/></g>
<g><path style="opacity:1" fill="#1256ce" d="M 697.5,398.5 C 698.833,399.167 698.833,399.167 697.5,398.5 Z"/></g>
<g><path style="opacity:1" fill="#1256ce" d="M 949.5,399.5 C 950.833,400.167 950.833,400.167 949.5,399.5 Z"/></g>
<g><path style="opacity:1" fill="#1256ce" d="M 1147.5,400.5 C 1146.83,399.167 1146.83,399.167 1147.5,400.5 Z"/></g>
<g><path style="opacity:1" fill="#1256ce" d="M 1656.5,400.5 C 1655.83,401.167 1655.83,401.167 1656.5,400.5 Z"/></g>
<g><path style="opacity:1" fill="#1256ce" d="M 215.5,401.5 C 216.833,402.167 216.833,402.167 215.5,401.5 Z"/></g>
<g><path style="opacity:1" fill="#1256ce" d="M 1344.5,403.5 C 1343.83,402.167 1343.83,402.167 1344.5,403.5 Z"/></g>
<g><path style="opacity:1" fill="#1256ce" d="M 1465.5,405.5 C 1466.83,406.167 1466.83,406.167 1465.5,405.5 Z"/></g>
<g><path style="opacity:1" fill="#1256ce" d="M 346.5,406.5 C 347.776,407.386 347.776,408.386 346.5,409.5C 345.913,408.767 345.913,407.767 346.5,406.5 Z"/></g>
<g><path style="opacity:1" fill="#1256ce" d="M 1464.5,406.5 C 1464.83,406.5 1465.17,406.5 1465.5,406.5C 1465.31,407.17 1464.98,407.17 1464.5,406.5 Z"/></g>
<g><path style="opacity:1" fill="#1256ce" d="M 1461.5,408.5 C 1462.83,409.167 1462.83,409.167 1461.5,408.5 Z"/></g>
<g><path style="opacity:1" fill="#1256ce" d="M 1778.5,410.5 C 1779.83,411.167 1779.83,411.167 1778.5,410.5 Z"/></g>
<g><path style="opacity:1" fill="#1256ce" d="M 1777.5,411.5 C 1777.83,411.5 1778.17,411.5 1778.5,411.5C 1778.67,412.492 1778.34,413.158 1777.5,413.5C 1777.5,412.833 1777.5,412.167 1777.5,411.5 Z"/></g>
<g><path style="opacity:1" fill="#1256ce" d="M 929.5,413.5 C 930.833,414.167 930.833,414.167 929.5,413.5 Z"/></g>
<g><path style="opacity:1" fill="#1256ce" d="M 1776.5,413.5 C 1776.83,413.5 1777.17,413.5 1777.5,413.5C 1777.31,414.17 1776.98,414.17 1776.5,413.5 Z"/></g>
<g><path style="opacity:1" fill="#1256ce" d="M 1344.5,414.5 C 1343.83,415.167 1343.83,415.167 1344.5,414.5 Z"/></g>
<g><path style="opacity:1" fill="#1256ce" d="M 345.5,415.5 C 346.833,416.167 346.833,416.167 345.5,415.5 Z"/></g>
<g><path style="opacity:1" fill="#1256ce" d="M 1547.5,415.5 C 1548.83,416.167 1548.83,416.167 1547.5,415.5 Z"/></g>
<g><path style="opacity:1" fill="#1256ce" d="M 1673.5,415.5 C 1672.83,416.167 1672.83,416.167 1673.5,415.5 Z"/></g>
<g><path style="opacity:1" fill="#1256ce" d="M 1546.5,416.5 C 1546.83,416.5 1547.17,416.5 1547.5,416.5C 1547.31,417.17 1546.98,417.17 1546.5,416.5 Z"/></g>
<g><path style="opacity:1" fill="#1256ce" d="M 922.5,418.5 C 923.833,419.167 923.833,419.167 922.5,418.5 Z"/></g>
<g><path style="opacity:1" fill="#1256ce" d="M 297.5,419.5 C 298.833,420.167 298.833,420.167 297.5,419.5 Z"/></g>
<g><path style="opacity:1" fill="#1256ce" d="M 677.5,419.5 C 678.833,420.167 678.833,420.167 677.5,419.5 Z"/></g>
<g><path style="opacity:1" fill="#1256ce" d="M 1583.5,419.5 C 1584.83,420.167 1584.83,420.167 1583.5,419.5 Z"/></g>
<g><path style="opacity:1" fill="#1256ce" d="M 1691.5,421.5 C 1692.83,422.167 1692.83,422.167 1691.5,421.5 Z"/></g>
<g><path style="opacity:1" fill="#1256ce" d="M 1505.5,424.5 C 1505.9,423.475 1506.56,423.308 1507.5,424C 1506.91,424.464 1506.24,424.631 1505.5,424.5 Z"/></g>
<g><path style="opacity:1" fill="#1256ce" d="M 1514.5,424.5 C 1515.6,423.402 1516.93,423.235 1518.5,424C 1517.21,424.49 1515.87,424.657 1514.5,424.5 Z"/></g>
<g><path style="opacity:1" fill="#1256ce" d="M 351.5,425.5 C 350.833,426.167 350.833,426.167 351.5,425.5 Z"/></g>
<g><path style="opacity:1" fill="#ec1f24" d="M 491.5,429.5 C 492.833,430.167 492.833,430.167 491.5,429.5 Z"/></g>
<g><path style="opacity:1" fill="#ec1f24" d="M 488.5,433.5 C 489.833,434.167 489.833,434.167 488.5,433.5 Z"/></g>
<g><path style="opacity:1" fill="#1256ce" d="M 364.5,435.5 C 363.833,436.167 363.833,436.167 364.5,435.5 Z"/></g>
<g><path style="opacity:1" fill="#1256ce" d="M 316.5,439.5 C 317.833,440.167 317.833,440.167 316.5,439.5 Z"/></g>
<g><path style="opacity:1" fill="#1256ce" d="M 657.5,440.5 C 657.897,439.475 658.563,439.308 659.5,440C 658.906,440.464 658.239,440.631 657.5,440.5 Z"/></g>
<g><path style="opacity:1" fill="#1256ce" d="M 711.5,451.5 C 712.833,452.167 712.833,452.167 711.5,451.5 Z"/></g>
<g><path style="opacity:1" fill="#1256ce" d="M 638.5,459.5 C 639.833,460.167 639.833,460.167 638.5,459.5 Z"/></g>
<g><path style="opacity:1" fill="#1256ce" d="M 694.5,468.5 C 695.833,469.167 695.833,469.167 694.5,468.5 Z"/></g>
<g><path style="opacity:1" fill="#1256ce" d="M 691.5,471.5 C 692.833,472.167 692.833,472.167 691.5,471.5 Z"/></g>
<g><path style="opacity:1" fill="#1256ce" d="M 285.5,472.5 C 284.833,473.167 284.833,473.167 285.5,472.5 Z"/></g>
<g><path style="opacity:1" fill="#1256ce" d="M 1711.5,473.5 C 1720.89,474.259 1724.39,479.259 1722,488.5C 1715.71,494.974 1709.71,494.641 1704,487.5C 1702.61,480.599 1705.11,475.933 1711.5,473.5 Z"/></g>
<g><path style="opacity:1" fill="#1256ce" d="M 984.5,474.5 C 989.167,474.5 993.833,474.5 998.5,474.5C 998.372,478.881 998.705,483.215 999.5,487.5C 1003,487.565 1003.5,488.899 1001,491.5C 1000.33,490.167 999.667,490.167 999,491.5C 998.333,495.5 998.333,499.5 999,503.5C 999.667,504.833 1000.33,504.833 1001,503.5C 1002.27,505.424 1002.27,507.09 1001,508.5C 1000.67,508.167 1000.33,507.833 1000,507.5C 998.186,522.13 998.019,536.797 999.5,551.5C 998.773,558.813 998.273,566.147 998,573.5C 993.587,574.632 989.087,574.799 984.5,574C 983.691,540.673 983.691,507.507 984.5,474.5 Z"/></g>
<g><path style="opacity:1" fill="#1256ce" d="M 1025.5,480.5 C 1028.51,474.858 1033.18,473.025 1039.5,475C 1046.51,481.251 1046.17,486.917 1038.5,492C 1029.01,494.012 1024.68,490.179 1025.5,480.5 Z"/></g>
<g><path style="opacity:1" fill="#1256ce" d="M 1071.5,561.5 C 1069.83,558.123 1068.16,554.789 1066.5,551.5C 1064.14,539.825 1065.47,528.659 1070.5,518C 1068.07,517.549 1067.9,516.715 1070,515.5C 1070.33,515.833 1070.67,516.167 1071,516.5C 1083.77,500.349 1099.6,496.516 1118.5,505C 1120.67,507.167 1122.83,509.333 1125,511.5C 1124.68,499.771 1124.68,487.771 1125,475.5C 1129.75,474.365 1134.58,474.198 1139.5,475C 1140.18,507.751 1140.35,540.584 1140,573.5C 1135.26,574.469 1130.43,574.803 1125.5,574.5C 1125.67,571.15 1125.5,567.817 1125,564.5C 1113.79,575.84 1100.63,578.674 1085.5,573C 1080.38,569.71 1075.71,565.877 1071.5,561.5 Z M 1081.5,533.5 C 1084.55,518.958 1093.55,512.791 1108.5,515C 1121.98,520.695 1127.15,530.861 1124,545.5C 1119.39,557.763 1110.55,562.93 1097.5,561C 1084.29,556.406 1078.95,547.239 1081.5,533.5 Z"/></g>
<g><path style="opacity:1" fill="#1256ce" d="M 1450.5,474.5 C 1455.5,474.5 1460.5,474.5 1465.5,474.5C 1466.27,507.583 1466.11,540.583 1465,573.5C 1464.44,574.022 1463.77,574.355 1463,574.5C 1459.91,573.892 1456.58,573.892 1453,574.5C 1450.79,572.373 1449.63,569.707 1449.5,566.5C 1450.48,535.858 1450.82,505.192 1450.5,474.5 Z"/></g>
<g><path style="opacity:1" fill="#1256ce" d="M 956.5,493.5 C 956.167,492.167 955.833,492.167 955.5,493.5C 954.026,494.436 953.026,495.77 952.5,497.5C 951.017,499.094 949.517,500.76 948,502.5C 939.992,493.161 929.825,489.328 917.5,491C 904.328,493.109 900.328,500.109 905.5,512C 916.753,516.719 928.42,520.052 940.5,522C 946.876,524.567 952.21,528.4 956.5,533.5C 960.747,543.348 960.414,553.015 955.5,562.5C 946.063,572.076 934.563,576.743 921,576.5C 906.749,575.54 894.415,570.206 884,560.5C 885.914,555.755 889.081,551.755 893.5,548.5C 896.52,551.355 899.687,554.021 903,556.5C 903.414,556.043 903.914,555.709 904.5,555.5C 906.692,556.27 908.026,557.27 908.5,558.5C 916.874,561.787 925.541,562.287 934.5,560C 937.326,559.366 940.159,557.2 943,553.5C 945.906,544.888 943.073,539.055 934.5,536C 922.893,533.932 911.56,530.932 900.5,527C 890.839,521.532 886.339,512.699 887,500.5C 885.844,501.993 885.01,501.826 884.5,500C 885.317,498.51 886.15,497.01 887,495.5C 887.667,494.167 888.333,494.167 889,495.5C 889.791,494.255 890.291,492.922 890.5,491.5C 902.516,477.918 917.516,473.418 935.5,478C 944.896,480.014 952.563,484.514 958.5,491.5C 958.253,492.713 957.586,493.38 956.5,493.5 Z"/></g>
<g><path style="opacity:1" fill="#1256ce" d="M 1324.5,553.5 C 1326.4,557.732 1329.07,561.399 1332.5,564.5C 1333.89,567.607 1335.56,570.607 1337.5,573.5C 1331.53,574.664 1325.53,574.83 1319.5,574C 1311.83,563 1304.17,552 1296.5,541C 1288.5,540.333 1280.5,540.333 1272.5,541C 1273.67,542.868 1273.51,544.702 1272,546.5C 1271.33,551.167 1271.33,555.833 1272,560.5C 1272.85,562.125 1273.85,562.458 1275,561.5C 1275.67,563.5 1275.67,565.5 1275,567.5C 1274.68,565.699 1274.02,565.366 1273,566.5C 1271.99,568.937 1271.49,571.437 1271.5,574C 1266.58,574.802 1261.75,574.635 1257,573.5C 1256.63,571.302 1256.13,569.135 1255.5,567C 1255.63,537.06 1255.97,507.393 1256.5,478C 1272.4,477.928 1288.4,477.762 1304.5,477.5C 1328.93,481.388 1338.76,495.388 1334,519.5C 1329.64,528.86 1322.47,535.027 1312.5,538C 1316.36,543.352 1320.36,548.519 1324.5,553.5 Z M 1318.5,513.5 C 1317.02,519.816 1313.02,523.649 1306.5,525C 1297.9,526.542 1289.23,526.876 1280.5,526C 1278.56,525.696 1276.89,524.863 1275.5,523.5C 1274.72,524.737 1273.72,525.737 1272.5,526.5C 1270.44,520.88 1271.44,516.047 1275.5,512C 1274.44,510.812 1273.1,510.312 1271.5,510.5C 1272.04,507.187 1272.54,503.854 1273,500.5C 1274.98,499.457 1275.48,498.123 1274.5,496.5C 1274.98,495.522 1275.64,494.689 1276.5,494C 1275.17,493.667 1273.83,493.333 1272.5,493C 1282.13,492.713 1291.47,492.213 1300.5,491.5C 1304.28,492.122 1307.94,493.122 1311.5,494.5C 1318.8,499.084 1321.14,505.418 1318.5,513.5 Z"/></g>
<g><path style="opacity:1" fill="#1256ce" d="M 1025.5,480.5 C 1024.83,479.167 1024.83,479.167 1025.5,480.5 Z"/></g>
<g><path style="opacity:1" fill="#1256ce" d="M 1001.5,481.5 C 1002.83,482.167 1002.83,482.167 1001.5,481.5 Z"/></g>
<g><path style="opacity:1" fill="#1256ce" d="M 1001.5,483.5 C 1002.83,484.167 1002.83,484.167 1001.5,483.5 Z"/></g>
<g><path style="opacity:1" fill="#1256ce" d="M 1448.5,483.5 C 1449.6,484.601 1449.76,485.934 1449,487.5C 1447.49,486.436 1447.32,485.103 1448.5,483.5 Z"/></g>
<g><path style="opacity:1" fill="#1256ce" d="M 1001.5,484.5 C 1000.83,485.167 1000.83,485.167 1001.5,484.5 Z"/></g>
<g><path style="opacity:1" fill="#1256ce" d="M 345.5,485.5 C 346.833,486.167 346.833,486.167 345.5,485.5 Z"/></g>
<g><path style="opacity:1" fill="#1256ce" d="M 1701.5,487.5 C 1702.83,488.167 1702.83,488.167 1701.5,487.5 Z"/></g>
<g><path style="opacity:1" fill="#1256ce" d="M 675.5,488.5 C 676.833,489.167 676.833,489.167 675.5,488.5 Z"/></g>
<g><path style="opacity:1" fill="#1256ce" d="M 343.5,489.5 C 344.833,490.167 344.833,490.833 343.5,491.5C 343.5,490.833 343.5,490.167 343.5,489.5 Z"/></g>
<g><path style="opacity:1" fill="#1256ce" d="M 674.5,489.5 C 674.833,489.5 675.167,489.5 675.5,489.5C 675.315,490.17 674.981,490.17 674.5,489.5 Z"/></g>
<g><path style="opacity:1" fill="#1256ce" d="M 673.5,490.5 C 673.833,490.5 674.167,490.5 674.5,490.5C 674.315,491.17 673.981,491.17 673.5,490.5 Z"/></g>
<g><path style="opacity:1" fill="#1256ce" d="M 890.5,491.5 C 889.833,490.167 889.833,490.167 890.5,491.5 Z"/></g>
<g><path style="opacity:1" fill="#1256ce" d="M 342.5,491.5 C 342.833,491.5 343.167,491.5 343.5,491.5C 343.315,492.17 342.981,492.17 342.5,491.5 Z"/></g>
<g><path style="opacity:1" fill="#1256ce" d="M 632.5,491.5 C 633.167,491.5 633.5,491.833 633.5,492.5C 633.5,492.833 633.5,493.167 633.5,493.5C 630.147,493.655 629.814,492.988 632.5,491.5 Z"/></g>
<g><path style="opacity:1" fill="#1256ce" d="M 672.5,491.5 C 672.833,491.5 673.167,491.5 673.5,491.5C 673.315,492.17 672.981,492.17 672.5,491.5 Z"/></g>
<g><path style="opacity:1" fill="#1256ce" d="M 633.5,493.5 C 633.833,493.5 634.167,493.5 634.5,493.5C 634.315,494.17 633.981,494.17 633.5,493.5 Z"/></g>
<g><path style="opacity:1" fill="#1256ce" d="M 955.5,493.5 C 955.833,493.5 956.167,493.5 956.5,493.5C 956.315,494.17 955.981,494.17 955.5,493.5 Z"/></g>
<g><path style="opacity:1" fill="#1256ce" d="M 542.5,494.5 C 543.833,495.167 543.833,495.167 542.5,494.5 Z"/></g>
<g><path style="opacity:1" fill="#1256ce" d="M 908.5,496.5 C 909.833,497.167 909.833,497.167 908.5,496.5 Z"/></g>
<g><path style="opacity:1" fill="#1256ce" d="M 952.5,497.5 C 953.833,498.167 953.833,498.167 952.5,497.5 Z"/></g>
<g><path style="opacity:1" fill="#1256ce" d="M 1337.5,499.5 C 1338.83,500.167 1338.83,500.167 1337.5,499.5 Z"/></g>
<g><path style="opacity:1" fill="#1256ce" d="M 314.5,500.5 C 313.833,501.167 313.833,501.167 314.5,500.5 Z"/></g>
<g><path style="opacity:1" fill="#1256ce" d="M 1164.5,553.5 C 1158.38,532.332 1164.38,515.832 1182.5,504C 1200.22,497.139 1215.05,500.972 1227,515.5C 1231.99,524.772 1233.82,534.272 1232.5,544C 1215.97,544.13 1199.3,544.297 1182.5,544.5C 1182,548.335 1181,548.335 1179.5,544.5C 1180.03,552.574 1184.36,558.074 1192.5,561C 1203.6,563.187 1213.1,560.354 1221,552.5C 1224.14,555.645 1227.31,558.812 1230.5,562C 1218.63,574.448 1204.29,578.448 1187.5,574C 1176.8,570.464 1169.14,563.63 1164.5,553.5 Z M 1197.5,513.5 C 1208.93,514.262 1215.59,520.262 1217.5,531.5C 1204.5,531.5 1191.5,531.5 1178.5,531.5C 1180.98,521.348 1187.32,515.348 1197.5,513.5 Z"/></g>
<g><path style="opacity:1" fill="#1256ce" d="M 1505.5,549.5 C 1507.68,555.181 1511.68,559.014 1517.5,561C 1529.12,563.506 1538.45,560.672 1545.5,552.5C 1549.47,555.626 1553.14,558.959 1556.5,562.5C 1553,566.458 1548.67,569.625 1543.5,572C 1522.52,580.298 1505.35,575.465 1492,557.5C 1487.43,546.758 1486.6,535.758 1489.5,524.5C 1490.34,524.158 1490.67,523.492 1490.5,522.5C 1492.5,519.175 1494.5,515.841 1496.5,512.5C 1509.69,499.535 1524.69,497.035 1541.5,505C 1547.1,508.603 1551.27,513.437 1554,519.5C 1554.73,517.842 1555.89,517.342 1557.5,518C 1555.97,518.7 1554.97,519.866 1554.5,521.5C 1558.17,528.708 1559.17,536.208 1557.5,544C 1544.97,544.804 1532.47,544.638 1520,543.5C 1514.95,544.117 1509.95,544.783 1505,545.5C 1504.67,544.833 1504.33,544.167 1504,543.5C 1503.59,545.775 1504.09,547.775 1505.5,549.5 Z M 1517.5,514.5 C 1531.59,512.025 1539.92,517.691 1542.5,531.5C 1529.48,531.832 1516.48,531.499 1503.5,530.5C 1504.83,525.175 1507.66,520.841 1512,517.5C 1513.81,518.609 1514.65,517.942 1514.5,515.5C 1515.79,515.737 1516.79,515.404 1517.5,514.5 Z"/></g>
<g><path style="opacity:1" fill="#1256ce" d="M 1616.5,544.5 C 1617.34,544.158 1617.67,543.492 1617.5,542.5C 1624.18,533.695 1633.18,529.028 1644.5,528.5C 1650.1,529.454 1655.77,529.788 1661.5,529.5C 1661.35,528.448 1661.52,527.448 1662,526.5C 1663.38,527.551 1664.38,528.884 1665,530.5C 1665.46,527.442 1665.12,524.442 1664,521.5C 1660.5,519.975 1657.67,517.808 1655.5,515C 1644.99,512.84 1635.82,515.34 1628,522.5C 1625.62,520.292 1623.46,517.958 1621.5,515.5C 1621.32,514.305 1620.99,513.138 1620.5,512C 1632.23,501.318 1645.9,497.985 1661.5,502C 1672.33,505.181 1678.33,512.348 1679.5,523.5C 1680.5,523.5 1681.5,523.5 1682.5,523.5C 1682.54,527.893 1682.04,528.226 1681,524.5C 1680.67,540.833 1680.33,557.167 1680,573.5C 1679.59,573.957 1679.09,574.291 1678.5,574.5C 1674.86,574.235 1671.19,574.068 1667.5,574C 1665.93,572.174 1665.09,570.007 1665,567.5C 1656.55,575.035 1646.72,577.535 1635.5,575C 1619.58,570.899 1613.25,560.733 1616.5,544.5 Z M 1645.5,541.5 C 1651.85,542.425 1658.19,542.759 1664.5,542.5C 1666.4,554.174 1661.4,560.674 1649.5,562C 1644.29,562.866 1639.29,562.199 1634.5,560C 1630.21,554.318 1630.54,548.984 1635.5,544C 1638.95,543.115 1642.29,542.282 1645.5,541.5 Z"/></g>
<g><path style="opacity:1" fill="#1256ce" d="M 1027.5,501.5 C 1032.5,501.5 1037.5,501.5 1042.5,501.5C 1042.67,525.502 1042.5,549.502 1042,573.5C 1037.26,574.469 1032.43,574.803 1027.5,574.5C 1027.5,550.167 1027.5,525.833 1027.5,501.5 Z"/></g>
<g><path style="opacity:1" fill="#1256ce" d="M 1376.5,554.5 C 1379.2,558.858 1383.2,561.191 1388.5,561.5C 1398.82,562 1405.32,557.333 1408,547.5C 1408.33,532.5 1408.67,517.5 1409,502.5C 1413.25,501.631 1417.42,501.298 1421.5,501.5C 1422.09,501.709 1422.59,502.043 1423,502.5C 1423.5,520.497 1423.67,538.497 1423.5,556.5C 1424.5,556.5 1425.5,556.5 1426.5,556.5C 1426.77,558.429 1426.27,560.095 1425,561.5C 1424.67,560.833 1424.33,560.167 1424,559.5C 1423.67,564.475 1423.5,569.308 1423.5,574C 1418.83,574.667 1414.17,574.667 1409.5,574C 1408.73,571.595 1408.23,569.095 1408,566.5C 1406.62,567.705 1405.46,569.038 1404.5,570.5C 1403.83,570.5 1403.5,570.833 1403.5,571.5C 1392.91,576.566 1382.24,576.733 1371.5,572C 1364.23,567.978 1360.07,561.812 1359,553.5C 1358.5,536.17 1358.33,518.837 1358.5,501.5C 1363.5,501.5 1368.5,501.5 1373.5,501.5C 1374.34,516.813 1374.51,532.146 1374,547.5C 1374.16,550.191 1374.99,552.524 1376.5,554.5 Z"/></g>
<g><path style="opacity:1" fill="#1256ce" d="M 1705.5,501.5 C 1710.5,501.5 1715.5,501.5 1720.5,501.5C 1719.88,505.013 1720.88,507.847 1723.5,510C 1722.58,510.374 1721.75,510.874 1721,511.5C 1720.63,532.254 1720.47,552.921 1720.5,573.5C 1715.57,573.93 1710.73,573.93 1706,573.5C 1705.5,549.502 1705.33,525.502 1705.5,501.5 Z"/></g>
<g><path style="opacity:1" fill="#1256ce" d="M 885.5,502.5 C 886.833,503.167 886.833,503.167 885.5,502.5 Z"/></g>
<g><path style="opacity:1" fill="#1256ce" d="M 1043.5,503.5 C 1044.83,504.167 1044.83,504.167 1043.5,503.5 Z"/></g>
<g><path style="opacity:1" fill="#1256ce" d="M 1375.5,503.5 C 1376.83,504.167 1376.83,504.167 1375.5,503.5 Z"/></g>
<g><path style="opacity:1" fill="#1256ce" d="M 1043.5,506.5 C 1044.29,506.783 1044.96,507.283 1045.5,508C 1044.18,508.528 1043.52,508.028 1043.5,506.5 Z"/></g>
<g><path style="opacity:1" fill="#1256ce" d="M 1448.5,506.5 C 1449.53,506.897 1449.69,507.563 1449,508.5C 1448.54,507.906 1448.37,507.239 1448.5,506.5 Z"/></g>
<g><path style="opacity:1" fill="#1256ce" d="M 1318.5,513.5 C 1317.76,513.631 1317.09,513.464 1316.5,513C 1317.88,508.295 1318.55,508.461 1318.5,513.5 Z"/></g>
<g><path style="opacity:1" fill="#1256ce" d="M 530.5,510.5 C 531.833,511.167 531.833,511.167 530.5,510.5 Z"/></g>
<g><path style="opacity:1" fill="#1256ce" d="M 1448.5,510.5 C 1449.62,512.288 1449.79,514.288 1449,516.5C 1448.5,514.527 1448.34,512.527 1448.5,510.5 Z"/></g>
<g><path style="opacity:1" fill="#1256ce" d="M 1496.5,512.5 C 1495.83,511.167 1495.83,511.167 1496.5,512.5 Z"/></g>
<g><path style="opacity:1" fill="#1256ce" d="M 1621.5,515.5 C 1620.83,516.167 1620.83,516.167 1621.5,515.5 Z"/></g>
<g><path style="opacity:1" fill="#1256ce" d="M 1044.5,516.5 C 1045.83,517.167 1045.83,517.167 1044.5,516.5 Z"/></g>
<g><path style="opacity:1" fill="#1256ce" d="M 1489.5,517.5 C 1489.9,516.475 1490.56,516.308 1491.5,517C 1490.91,517.464 1490.24,517.631 1489.5,517.5 Z"/></g>
<g><path style="opacity:1" fill="#1256ce" d="M 1001.5,517.5 C 1002.83,518.167 1002.83,518.167 1001.5,517.5 Z"/></g>
<g><path style="opacity:1" fill="#1256ce" d="M 1044.5,518.5 C 1045.83,519.167 1045.83,519.167 1044.5,518.5 Z"/></g>
<g><path style="opacity:1" fill="#1256ce" d="M 1448.5,518.5 C 1449.83,519.167 1449.83,519.167 1448.5,518.5 Z"/></g>
<g><path style="opacity:1" fill="#1256ce" d="M 1232.5,519.5 C 1233.83,520.167 1233.83,520.167 1232.5,519.5 Z"/></g>
<g><path style="opacity:1" fill="#1256ce" d="M 1490.5,522.5 C 1489.66,522.842 1489.33,523.508 1489.5,524.5C 1488.2,523.151 1488.37,521.818 1490,520.5C 1490.46,521.094 1490.63,521.761 1490.5,522.5 Z"/></g>
<g><path style="opacity:1" fill="#1256ce" d="M 1162.5,522.5 C 1163.83,523.167 1163.83,523.167 1162.5,522.5 Z"/></g>
<g><path style="opacity:1" fill="#1256ce" d="M 1448.5,524.5 C 1449.83,525.167 1449.83,525.167 1448.5,524.5 Z"/></g>
<g><path style="opacity:1" fill="#1256ce" d="M 1485.5,524.5 C 1489.05,525.186 1489.22,526.186 1486,527.5C 1485.52,526.552 1485.35,525.552 1485.5,524.5 Z"/></g>
<g><path style="opacity:1" fill="#1256ce" d="M 1446.5,526.5 C 1447.83,527.167 1447.83,527.167 1446.5,526.5 Z"/></g>
<g><path style="opacity:1" fill="#1256ce" d="M 1180.5,528.5 C 1182.34,528.639 1182.67,529.306 1181.5,530.5C 1180.7,530.043 1180.37,529.376 1180.5,528.5 Z"/></g>
<g><path style="opacity:1" fill="#1256ce" d="M 1375.5,528.5 C 1376.83,529.167 1376.83,529.167 1375.5,528.5 Z"/></g>
<g><path style="opacity:1" fill="#1256ce" d="M 515.5,531.5 C 516.833,532.167 516.833,532.167 515.5,531.5 Z"/></g>
<g><path style="opacity:1" fill="#1256ce" d="M 1081.5,533.5 C 1082.22,533.082 1082.72,532.416 1083,531.5C 1083.4,532.872 1083.9,534.205 1084.5,535.5C 1083.29,536.72 1083.29,537.887 1084.5,539C 1083.97,539.692 1083.31,540.192 1082.5,540.5C 1081.53,538.257 1081.19,535.924 1081.5,533.5 Z"/></g>
<g><path style="opacity:1" fill="#1256ce" d="M 1375.5,531.5 C 1376.83,532.167 1376.83,532.167 1375.5,531.5 Z"/></g>
<g><path style="opacity:1" fill="#1256ce" d="M 957.5,533.5 C 956.833,532.167 956.833,532.167 957.5,533.5 Z"/></g>
<g><path style="opacity:1" fill="#1256ce" d="M 957.5,533.5 C 958.833,534.167 958.833,534.167 957.5,533.5 Z"/></g>
<g><path style="opacity:1" fill="#1256ce" d="M 1375.5,535.5 C 1376.63,537.966 1376.8,540.633 1376,543.5C 1375.5,540.854 1375.34,538.187 1375.5,535.5 Z"/></g>
<g><path style="opacity:1" fill="#1256ce" d="M 1043.5,536.5 C 1044.57,537.251 1044.74,538.251 1044,539.5C 1043.52,538.552 1043.35,537.552 1043.5,536.5 Z"/></g>
<g><path style="opacity:1" fill="#1256ce" d="M 1253.5,536.5 C 1254.57,537.251 1254.74,538.251 1254,539.5C 1253.52,538.552 1253.35,537.552 1253.5,536.5 Z"/></g>
<g><path style="opacity:1" fill="#1256ce" d="M 1160.5,540.5 C 1161.53,540.897 1161.69,541.563 1161,542.5C 1160.54,541.906 1160.37,541.239 1160.5,540.5 Z"/></g>
<g><path style="opacity:1" fill="#1256ce" d="M 1617.5,542.5 C 1616.71,542.217 1616.04,541.717 1615.5,541C 1616.82,540.472 1617.48,540.972 1617.5,542.5 Z"/></g>
<g><path style="opacity:1" fill="#1256ce" d="M 1661.5,542.5 C 1664.14,544.154 1663.8,544.654 1660.5,544C 1661.06,543.617 1661.39,543.117 1661.5,542.5 Z"/></g>
<g><path style="opacity:1" fill="#1256ce" d="M 1616.5,544.5 C 1615.83,543.167 1615.83,543.167 1616.5,544.5 Z"/></g>
<g><path style="opacity:1" fill="#1256ce" d="M 960.5,545.5 C 961.598,546.601 961.765,547.934 961,549.5C 960.51,548.207 960.343,546.873 960.5,545.5 Z"/></g>
<g><path style="opacity:1" fill="#1256ce" d="M 1663.5,545.5 C 1664.97,548.557 1664.3,549.057 1661.5,547C 1662.42,546.722 1663.08,546.222 1663.5,545.5 Z"/></g>
<g><path style="opacity:1" fill="#1256ce" d="M 962.5,546.5 C 963.833,547.167 963.833,547.167 962.5,546.5 Z"/></g>
<g><path style="opacity:1" fill="#1256ce" d="M 1375.5,547.5 C 1376.53,547.897 1376.69,548.563 1376,549.5C 1375.54,548.906 1375.37,548.239 1375.5,547.5 Z"/></g>
<g><path style="opacity:1" fill="#1256ce" d="M 1505.5,549.5 C 1505.37,548.761 1505.54,548.094 1506,547.5C 1506.69,548.437 1506.53,549.103 1505.5,549.5 Z"/></g>
<g><path style="opacity:1" fill="#1256ce" d="M 1403.5,550.5 C 1403.9,549.475 1404.56,549.308 1405.5,550C 1404.91,550.464 1404.24,550.631 1403.5,550.5 Z"/></g>
<g><path style="opacity:1" fill="#1256ce" d="M 1485.5,549.5 C 1486.57,550.251 1486.74,551.251 1486,552.5C 1485.52,551.552 1485.35,550.552 1485.5,549.5 Z"/></g>
<g><path style="opacity:1" fill="#1256ce" d="M 1066.5,551.5 C 1066.54,552.756 1066.04,553.756 1065,554.5C 1064.33,553.167 1064.33,551.833 1065,550.5C 1065.38,551.056 1065.88,551.389 1066.5,551.5 Z"/></g>
<g><path style="opacity:1" fill="#1256ce" d="M 1632.5,551.5 C 1633.27,552.172 1633.93,553.005 1634.5,554C 1632.94,554.188 1632.27,553.355 1632.5,551.5 Z"/></g>
<g><path style="opacity:1" fill="#1256ce" d="M 1164.5,553.5 C 1164.63,554.376 1164.3,555.043 1163.5,555.5C 1162.13,553.192 1162.46,552.525 1164.5,553.5 Z"/></g>
<g><path style="opacity:1" fill="#1256ce" d="M 1324.5,552.5 C 1325.83,553.167 1325.83,553.167 1324.5,552.5 Z"/></g>
<g><path style="opacity:1" fill="#1256ce" d="M 1376.5,554.5 C 1376.37,553.761 1376.54,553.094 1377,552.5C 1377.69,553.437 1377.53,554.103 1376.5,554.5 Z"/></g>
<g><path style="opacity:1" fill="#1256ce" d="M 1581.5,554.5 C 1592.73,552.666 1597.57,557.333 1596,568.5C 1593.79,572.694 1590.29,575.028 1585.5,575.5C 1576.28,572.337 1573.78,566.337 1578,557.5C 1579.52,556.837 1580.69,555.837 1581.5,554.5 Z"/></g>
<g><path style="opacity:1" fill="#1256ce" d="M 1681.5,556.5 C 1682.62,558.288 1682.79,560.288 1682,562.5C 1681.5,560.527 1681.34,558.527 1681.5,556.5 Z"/></g>
<g><path style="opacity:1" fill="#1256ce" d="M 908.5,558.5 C 908.897,557.475 909.563,557.308 910.5,558C 909.906,558.464 909.239,558.631 908.5,558.5 Z"/></g>
<g><path style="opacity:1" fill="#1256ce" d="M 1204.5,559.5 C 1205.83,560.167 1205.83,560.167 1204.5,559.5 Z"/></g>
<g><path style="opacity:1" fill="#1256ce" d="M 1356.5,559.5 C 1357.83,560.167 1357.83,560.167 1356.5,559.5 Z"/></g>
<g><path style="opacity:1" fill="#1256ce" d="M 1070.5,561.5 C 1069.83,560.167 1069.83,560.167 1070.5,561.5 Z"/></g>
<g><path style="opacity:1" fill="#1256ce" d="M 1070.5,561.5 C 1070.83,561.5 1071.17,561.5 1071.5,561.5C 1071.31,562.17 1070.98,562.17 1070.5,561.5 Z"/></g>
<g><path style="opacity:1" fill="#1256ce" d="M 1556.5,561.5 C 1557.83,562.167 1557.83,562.167 1556.5,561.5 Z"/></g>
<g><path style="opacity:1" fill="#1256ce" d="M 492.5,562.5 C 493.833,563.167 493.833,563.167 492.5,562.5 Z"/></g>
<g><path style="opacity:1" fill="#1256ce" d="M 955.5,562.5 C 956.833,563.167 956.833,563.167 955.5,562.5 Z"/></g>
<g><path style="opacity:1" fill="#1256ce" d="M 1332.5,563.5 C 1333.83,564.167 1333.83,564.167 1332.5,563.5 Z"/></g>
<g><path style="opacity:1" fill="#1256ce" d="M 1571.5,563.5 C 1572.57,564.251 1572.74,565.251 1572,566.5C 1571.52,565.552 1571.35,564.552 1571.5,563.5 Z"/></g>
<g><path style="opacity:1" fill="#1256ce" d="M 1597.5,567.5 C 1597.9,566.475 1598.56,566.308 1599.5,567C 1598.91,567.464 1598.24,567.631 1597.5,567.5 Z"/></g>
<g><path style="opacity:1" fill="#1256ce" d="M 1001.5,569.5 C 1002.83,570.167 1002.83,570.167 1001.5,569.5 Z"/></g>
<g><path style="opacity:1" fill="#1256ce" d="M 1043.5,569.5 C 1044.53,569.897 1044.69,570.563 1044,571.5C 1043.54,570.906 1043.37,570.239 1043.5,569.5 Z"/></g>
<g><path style="opacity:1" fill="#1256ce" d="M 1122.5,569.5 C 1123.83,570.167 1123.83,570.167 1122.5,569.5 Z"/></g>
<g><path style="opacity:1" fill="#1256ce" d="M 1446.5,570.5 C 1447.25,569.427 1448.25,569.26 1449.5,570C 1448.55,570.483 1447.55,570.649 1446.5,570.5 Z"/></g>
<g><path style="opacity:1" fill="#1256ce" d="M 1702.5,570.5 C 1703.08,569.227 1703.74,569.227 1704.5,570.5C 1704.03,571.463 1703.36,571.463 1702.5,570.5 Z"/></g>
<g><path style="opacity:1" fill="#1256ce" d="M 1313.5,570.5 C 1314.83,571.167 1314.83,571.167 1313.5,570.5 Z"/></g>
<g><path style="opacity:1" fill="#1256ce" d="M 1404.5,570.5 C 1405.38,570.369 1406.04,570.702 1406.5,571.5C 1405.39,572.776 1404.39,572.776 1403.5,571.5C 1404.17,571.5 1404.5,571.167 1404.5,570.5 Z"/></g>
<g><path style="opacity:1" fill="#1256ce" d="M 1661.5,572.5 C 1661.9,571.475 1662.56,571.308 1663.5,572C 1662.91,572.464 1662.24,572.631 1661.5,572.5 Z"/></g>
</svg>
